<svg xmlns="http://www.w3.org/2000/svg" width="287" height="172" viewBox="0 0 287 172">
  <g id="Grupo_83441" data-name="Grupo 83441" transform="translate(-793 -1200)">
    <rect id="Rectángulo_8153" data-name="Rectángulo 8153" width="287" height="124" transform="translate(793 1200)" fill="#f3f9ff"/>
    <g id="Grupo_83440" data-name="Grupo 83440" transform="translate(573 411.848)">
      <g id="Elipse_4093" data-name="Elipse 4093" transform="translate(325 788.152)" fill="#fff" stroke="#5038a1" stroke-width="3">
        <circle cx="41.5" cy="41.5" r="41.5" stroke="none"/>
        <circle cx="41.5" cy="41.5" r="40" fill="none"/>
      </g>
      <g id="flete-aereo" transform="translate(335.602 802.923)">
        <path id="Trazado_106136" data-name="Trazado 106136" d="M408.133,216.574a2.225,2.225,0,0,1,0,3.146l-5.662,5.662-.881-5.411,3.4-3.4A2.223,2.223,0,0,1,408.133,216.574Zm0,0" transform="translate(-356.925 -191.963)" fill="#fafaff"/>
        <path id="Trazado_106137" data-name="Trazado 106137" d="M220.328,46.874a2.224,2.224,0,0,1,0,3.145l-3.4,3.4-5.411-.881,5.662-5.662A2.225,2.225,0,0,1,220.328,46.874Zm0,0" transform="translate(-187.994 -41.137)" fill="#fafaff"/>
        <g id="Grupo_83434" data-name="Grupo 83434" transform="translate(1.112 8.279)">
          <path id="Trazado_106138" data-name="Trazado 106138" d="M47.728,80.038,34.013,93.753,14.626,79.714A2.641,2.641,0,0,1,16.6,74.969Zm0,0" transform="translate(-13.141 -74.935)" fill="#ffdc72"/>
          <path id="Trazado_106139" data-name="Trazado 106139" d="M22.418,308.392l.112.06a74.246,74.246,0,0,0-3.678,7.01l-.11-.051L11.069,310.1a2.483,2.483,0,0,1,2.113-4.423Zm0,0" transform="translate(-9.999 -279.923)" fill="#8c6df2"/>
          <path id="Trazado_106140" data-name="Trazado 106140" d="M127.814,399.738a2.483,2.483,0,0,1-4.423,2.113l-5.312-7.673-.051-.11a75.175,75.175,0,0,0,6.828-3.568l.242,0Zm0,0" transform="translate(-106.012 -355.403)" fill="#8c6df2"/>
          <path id="Trazado_106141" data-name="Trazado 106141" d="M287.151,222.649a2.641,2.641,0,0,1-4.745,1.973l-14.039-19.387,13.716-13.716Zm0,0" transform="translate(-239.631 -178.553)" fill="#ffdc72"/>
        </g>
        <path id="Trazado_106142" data-name="Trazado 106142" d="M115.642,11.431c-1.833-1.832-5.879-.864-9.709,2.091-1.513,1.171.137-.384-27.565,27.318A28.854,28.854,0,0,0,74.382,46.2,89.773,89.773,0,0,0,68.34,58.733,90.272,90.272,0,0,0,80.694,52.8a29.352,29.352,0,0,0,5.539-4.1c27.567-27.568,26.11-26,27.318-27.565C116.506,17.31,117.473,13.264,115.642,11.431Zm0,0" transform="translate(-60.739 -9.389)" fill="#fafaff"/>
        <path id="Trazado_106143" data-name="Trazado 106143" d="M238.612,254.534a1.112,1.112,0,1,0,1.573,0A1.111,1.111,0,0,0,238.612,254.534Zm0,0" transform="translate(-211.784 -225.991)"/>
        <path id="Trazado_106144" data-name="Trazado 106144" d="M44.512,3.754c-1.909,1.478-2.429,2.239-9.2,8.938l-4.058-.661,1.862-1.862A3.337,3.337,0,0,0,28.4,5.451L23.141,10.71,4.747,7.715a3.753,3.753,0,0,0-2.8,6.743l18.33,13.274-3.432,3.432a27.907,27.907,0,0,0-3.686,4.813L4.608,33.465a3.595,3.595,0,0,0-3.06,6.4L8.556,44.72c-1.22,2.692-1.962,4.639-2,4.729a1.112,1.112,0,0,0,1.435,1.435c.09-.034,2.037-.776,4.729-2L17.575,55.9a3.595,3.595,0,0,0,6.4-3.06l-2.513-8.548A27.927,27.927,0,0,0,26.279,40.6l3.432-3.432L42.985,55.5a3.753,3.753,0,0,0,6.744-2.8L46.734,34.3l5.259-5.259a3.337,3.337,0,0,0-4.718-4.719l-1.863,1.862-.66-4.058c6.706-6.776,7.455-7.284,8.934-9.192l.006-.007c3.43-4.446,4.233-8.936,2-11.174S48.96.322,44.512,3.754ZM29.973,7.024A1.112,1.112,0,1,1,31.547,8.6l-3,2.995-2.705-.441ZM3.248,12.657A1.528,1.528,0,0,1,4.39,9.911L33.377,14.63,21.867,26.14ZM2.625,35.945A1.371,1.371,0,0,1,3.98,35.6l8,2.351c-.818,1.432-1.643,3.014-2.466,4.726l-6.7-4.635A1.371,1.371,0,0,1,2.625,35.945ZM21.5,54.819a1.371,1.371,0,0,1-2.1-.189l-4.635-6.7c1.713-.824,3.3-1.649,4.726-2.465l2.351,7.995A1.371,1.371,0,0,1,21.5,54.819ZM48.848,25.9a1.112,1.112,0,1,1,1.572,1.574L46.294,31.6l-.44-2.705ZM47.533,53.053A1.528,1.528,0,0,1,44.787,54.2L31.3,35.577l11.51-11.51ZM24.706,39.029a28.009,28.009,0,0,1-5.324,3.929,82.411,82.411,0,0,1-9.757,4.86,81.355,81.355,0,0,1,4.968-9.935,27.535,27.535,0,0,1,3.821-5.145c27.168-27.1,25.558-25.7,27.207-27.023a5.776,5.776,0,0,1,4.56,1.547,5.776,5.776,0,0,1,1.548,4.56C50.408,13.474,51.79,11.88,24.706,39.029ZM53.633,8.9a7.34,7.34,0,0,0-5.087-5.088c1.61-.816,4.32-1.73,5.569-.482C55.1,4.315,54.856,6.487,53.633,8.9Zm0,0" transform="translate(0.001 -0.501)"/>
        <path id="Trazado_106145" data-name="Trazado 106145" d="M270.049,197.966l-3.145,3.145a1.112,1.112,0,1,0,1.573,1.573l3.145-3.145a1.112,1.112,0,1,0-1.573-1.573Zm0,0" transform="translate(-236.929 -175.715)"/>
        <path id="Trazado_106146" data-name="Trazado 106146" d="M326.612,141.4l-3.147,3.146a1.112,1.112,0,0,0,1.573,1.573l3.146-3.146a1.112,1.112,0,1,0-1.573-1.573Zm0,0" transform="translate(-287.2 -125.436)"/>
      </g>
    </g>
    <g id="manual" transform="translate(829.629 1232)">
      <path id="Trazado_106148" data-name="Trazado 106148" d="M91.015,7.935V120.77a2.78,2.78,0,0,1-2.779,2.779H7.15a2.78,2.78,0,0,1-2.779-2.779V7.935A2.777,2.777,0,0,1,7.15,5.156H88.236A2.777,2.777,0,0,1,91.015,7.935Zm0,0" transform="translate(-2.888 -3.723)" fill="#8c6df2"/>
      <path id="Trazado_106149" data-name="Trazado 106149" d="M113.025,7.935V120.77a2.78,2.78,0,0,1-2.779,2.779H37.631a2.78,2.78,0,0,1-2.779-2.779V7.935a2.777,2.777,0,0,1,2.779-2.779h72.615A2.777,2.777,0,0,1,113.025,7.935Zm0,0" transform="translate(-24.898 -3.723)" fill="#ffdc72"/>
      <path id="Trazado_106150" data-name="Trazado 106150" d="M48.6,431.148H39.152v18.688a.662.662,0,0,0,1.109.487l8.34-7.664,8.34,7.664a.662.662,0,0,0,1.11-.487V431.148Zm0,0" transform="translate(-28.003 -311.324)" fill="#5038a1"/>
      <path id="Trazado_106151" data-name="Trazado 106151" d="M103.985,123.272h-5.9a25.891,25.891,0,0,0-2.1-5.047l4.18-4.18a2.614,2.614,0,0,0,0-3.691l-5.82-5.808-1.016-1.017a2.614,2.614,0,0,0-3.691,0L85.464,107.7a25.859,25.859,0,0,0-5.052-2.09V99.7A2.612,2.612,0,0,0,77.8,97.1H68.144A2.609,2.609,0,0,0,65.531,99.7v5.909l-.066.016a25.854,25.854,0,0,0-4.981,2.074l-3.162-3.157L56.3,103.529a2.606,2.606,0,0,0-3.685,0l-6.837,6.825a2.614,2.614,0,0,0,0,3.691l4.18,4.18a25.608,25.608,0,0,0-2.218,5.5h-5.78a2.607,2.607,0,0,0-2.613,2.6v9.661a2.614,2.614,0,0,0,2.613,2.617h6.047a24.852,24.852,0,0,0,1.951,4.6l-4.18,4.175a2.612,2.612,0,0,0,0,3.69l6.837,6.837a2.606,2.606,0,0,0,3.685,0l4.18-4.18a25.737,25.737,0,0,0,3.974,1.75c.328.117.656.223,1,.322a.278.278,0,0,0,.077.023v5.908a2.614,2.614,0,0,0,2.613,2.613H77.8a2.617,2.617,0,0,0,2.613-2.613v-5.908a26.266,26.266,0,0,0,5.058-2.1l1.739,1.745,2.43,2.435a2.614,2.614,0,0,0,3.691,0l1.016-1.012,5.82-5.825a2.612,2.612,0,0,0,0-3.69l-4.18-4.169a26.078,26.078,0,0,0,2.1-5.052h5.9a2.618,2.618,0,0,0,2.612-2.619v-9.654A2.613,2.613,0,0,0,103.985,123.272ZM86.476,139.08a16.105,16.105,0,0,1-5.186,5.181,15.864,15.864,0,0,1-18.7-1.489,16.009,16.009,0,0,1-3.4-4.113,15.877,15.877,0,1,1,27.292.422Zm0,0" transform="translate(-28.147 -70.112)" fill="#d8d6d7"/>
      <path id="Trazado_106152" data-name="Trazado 106152" d="M118.847,123.272h-5.9a25.891,25.891,0,0,0-2.1-5.047l4.18-4.18a2.614,2.614,0,0,0,0-3.691l-5.82-5.808-1.016-1.017a2.614,2.614,0,0,0-3.691,0l-4.174,4.174a25.859,25.859,0,0,0-5.052-2.09V99.7A2.612,2.612,0,0,0,92.661,97.1h-5.73a3.626,3.626,0,0,0-.817,2.3v4.113a1.036,1.036,0,0,1-.728.984,25.831,25.831,0,0,0-3.774,1.578.854.854,0,0,1-.985-.144l-.3-.3a25.855,25.855,0,0,0-4.981,2.074l-3.162-3.157-5.819,5.808a2.614,2.614,0,0,0,0,3.691l3.646,3.641a1.043,1.043,0,0,1,.178,1.212,26.04,26.04,0,0,0-1.645,4.085,1.049,1.049,0,0,1-1,.745h-5a2.61,2.61,0,0,0-2.612,2.6v8.633a3.644,3.644,0,0,0,3.646,3.645h4.263a1.02,1.02,0,0,1,.973.684,24.394,24.394,0,0,0,1.384,3.262,1.032,1.032,0,0,1-.194,1.19l-3.64,3.636a2.612,2.612,0,0,0,0,3.69l5.819,5.82,3.162-3.162a25.738,25.738,0,0,0,3.974,1.75c.328.117.656.223,1,.322l.211-.216a.991.991,0,0,1,1.179-.2,26.391,26.391,0,0,0,3.685,1.529,1.044,1.044,0,0,1,.723.985v2.8a3.645,3.645,0,0,0,3.647,3.647h2.9a2.617,2.617,0,0,0,2.613-2.613v-5.908a26.265,26.265,0,0,0,5.058-2.1l1.739,1.745,2.43,2.435a2.614,2.614,0,0,0,3.691,0l1.016-1.012,5.82-5.825a2.612,2.612,0,0,0,0-3.69l-4.18-4.169a26.079,26.079,0,0,0,2.1-5.052h5.9a2.618,2.618,0,0,0,2.612-2.619v-9.654A2.613,2.613,0,0,0,118.847,123.272ZM101.338,139.08a16.105,16.105,0,0,1-5.186,5.181,15.864,15.864,0,0,1-18.7-1.489,16.009,16.009,0,0,1-3.4-4.113,15.877,15.877,0,1,1,27.292.422Zm0,0" transform="translate(-43.009 -70.112)" fill="#fff"/>
      <g id="Grupo_83439" data-name="Grupo 83439" transform="translate(0.371)">
        <path id="Trazado_106153" data-name="Trazado 106153" d="M85.348,0H4.262A3.9,3.9,0,0,0,.371,3.891V116.727a3.9,3.9,0,0,0,3.891,3.891h5.774v17.576a1.776,1.776,0,0,0,2.975,1.306l7.586-6.973c7.908,7.267,8.082,7.913,9.5,7.292a1.775,1.775,0,0,0,1.06-1.625V120.619H85.347a3.9,3.9,0,0,0,3.891-3.891V3.891A3.894,3.894,0,0,0,85.348,0ZM28.935,137.17,21.351,130.2a1.112,1.112,0,0,0-1.5,0l-7.585,6.972V120.618H28.936V137.17Zm58.081-20.443a1.669,1.669,0,0,1-1.668,1.668H4.263A1.669,1.669,0,0,1,2.6,116.727V3.891A1.669,1.669,0,0,1,4.263,2.223H85.348a1.669,1.669,0,0,1,1.668,1.668Zm0,0" transform="translate(-0.371)" fill="#491352"/>
        <path id="Trazado_106154" data-name="Trazado 106154" d="M105.01,159.91a16.994,16.994,0,0,0-3.641,21.344c8.628,15.013,31.725,8.877,31.725-8.468C133.094,158.384,116.081,150.382,105.01,159.91ZM116.1,187.554c-13.757,0-19.917-17.1-9.641-25.96a14.77,14.77,0,1,1,9.641,25.96Zm0,0" transform="translate(-71.668 -112.477)" fill="#491352"/>
        <path id="Trazado_106155" data-name="Trazado 106155" d="M100.984,118.143H95.892a26.807,26.807,0,0,0-1.548-3.732l3.6-3.6a3.723,3.723,0,0,0,0-5.267l-6.838-6.831a3.732,3.732,0,0,0-5.266,0l-3.6,3.6a26.986,26.986,0,0,0-3.737-1.547V95.674a3.729,3.729,0,0,0-3.725-3.725H65.118a3.729,3.729,0,0,0-3.725,3.725v5.09a27.053,27.053,0,0,0-3.731,1.546l-3.6-3.6a3.719,3.719,0,0,0-5.263,0l-6.835,6.833a3.724,3.724,0,0,0,0,5.265l3.6,3.6a27.08,27.08,0,0,0-1.687,4.183h-4.95a3.726,3.726,0,0,0-3.725,3.72v9.667a3.729,3.729,0,0,0,3.725,3.725h5.245a25.854,25.854,0,0,0,1.392,3.283l-3.6,3.6a3.732,3.732,0,0,0,0,5.264L48.8,154.7a3.725,3.725,0,0,0,5.262,0l3.6-3.6a27.564,27.564,0,0,0,3.731,1.547v5.094a3.729,3.729,0,0,0,3.725,3.725h9.664a3.729,3.729,0,0,0,3.724-3.725v-5.094a27.561,27.561,0,0,0,3.739-1.547l3.6,3.605a3.74,3.74,0,0,0,5.263,0l6.839-6.839a3.733,3.733,0,0,0,0-5.266L94.345,139a26.98,26.98,0,0,0,1.548-3.74h5.093a3.729,3.729,0,0,0,3.724-3.725v-9.663A3.729,3.729,0,0,0,100.984,118.143Zm1.5,13.388a1.5,1.5,0,0,1-1.5,1.5c-6.027,0-6.659-.265-6.974.8-2.182,7.345-4.318,3.666,2.362,10.333a1.5,1.5,0,0,1,0,2.123l-6.837,6.837a1.508,1.508,0,0,1-2.121,0l-4.174-4.181a1.111,1.111,0,0,0-1.318-.191,25.377,25.377,0,0,1-4.847,2.007,1.112,1.112,0,0,0-.794,1.065v5.909a1.5,1.5,0,0,1-1.5,1.5H65.118a1.5,1.5,0,0,1-1.5-1.5v-5.909a1.113,1.113,0,0,0-.793-1.065,25.343,25.343,0,0,1-4.839-2.007,1.111,1.111,0,0,0-1.318.19l-4.182,4.182a1.5,1.5,0,0,1-2.117,0l-6.835-6.839a1.505,1.505,0,0,1,0-2.122l4.177-4.182a1.11,1.11,0,0,0,.189-1.32,23.6,23.6,0,0,1-1.863-4.393,1.113,1.113,0,0,0-1.063-.784h-6.05a1.5,1.5,0,0,1-1.5-1.5v-9.667a1.5,1.5,0,0,1,1.5-1.5h5.782A1.113,1.113,0,0,0,45.777,120a24.9,24.9,0,0,1,2.123-5.266,1.111,1.111,0,0,0-.19-1.318l-4.179-4.184a1.5,1.5,0,0,1,0-2.119l6.836-6.833a1.529,1.529,0,0,1,2.117,0l4.182,4.177a1.111,1.111,0,0,0,1.317.19,24.78,24.78,0,0,1,4.834-2,1.111,1.111,0,0,0,.8-1.066V95.673a1.5,1.5,0,0,1,1.5-1.5h9.664a1.5,1.5,0,0,1,1.5,1.5v5.909a1.111,1.111,0,0,0,.8,1.066,24.565,24.565,0,0,1,4.838,2,1.113,1.113,0,0,0,1.318-.19l4.176-4.175a1.5,1.5,0,0,1,2.123,0l6.838,6.831a1.5,1.5,0,0,1,0,2.121l-4.181,4.182a1.112,1.112,0,0,0-.189,1.32,24.686,24.686,0,0,1,2.006,4.834,1.111,1.111,0,0,0,1.065.795h5.909a1.5,1.5,0,0,1,1.5,1.5Zm0,0" transform="translate(-25.52 -66.395)" fill="#491352"/>
      </g>
    </g>
  </g>
</svg>
