<svg xmlns="http://www.w3.org/2000/svg" width="77.879" height="78.309" viewBox="0 0 77.879 78.309">
  <g id="avion" transform="translate(-1.405)">
    <g id="Grupo_56016" data-name="Grupo 56016" transform="translate(7.964 32.68)">
      <path id="Trazado_101833" data-name="Trazado 101833" d="M51.308,215.666a1.867,1.867,0,0,0-1.862-2H46.157a1.867,1.867,0,0,0-1.862,2l.552,7.732,6.145-3.3Z" transform="translate(-44.29 -213.666)" fill="#8c6df2"/>
      <path id="Trazado_101834" data-name="Trazado 101834" d="M428.808,215.666a1.867,1.867,0,0,0-1.862-2h-3.288a1.867,1.867,0,0,0-1.862,2l.316,4.428,6.145,3.3Z" transform="translate(-364.053 -213.666)" fill="#8c6df2"/>
    </g>
    <g id="Grupo_56017" data-name="Grupo 56017" transform="translate(2.934 29.232)">
      <path id="Trazado_101835" data-name="Trazado 101835" d="M23.136,201l-6.145,3.3-3.107,1.67a4.709,4.709,0,0,0-2.48,4.148v4.984a.923.923,0,0,0,1.17.89l28.932-8.025V191.127Z" transform="translate(-11.404 -191.127)" fill="#eceff0"/>
      <path id="Trazado_101836" data-name="Trazado 101836" d="M332.707,216a.923.923,0,0,0,1.17-.89v-4.984a4.709,4.709,0,0,0-2.48-4.148l-3.107-1.67-6.145-3.3-18.371-9.875v16.845Z" transform="translate(-259.058 -191.128)" fill="#eceff0"/>
    </g>
    <g id="Grupo_56018" data-name="Grupo 56018" transform="translate(20.434 64.351)">
      <path id="Trazado_101837" data-name="Trazado 101837" d="M288.808,426.285h0l-.834,4.868a2.408,2.408,0,0,1-.085.336l13.26,1.481a1.6,1.6,0,0,0,1.773-1.586v-1.744a3.229,3.229,0,0,0-1.721-2.855l-11.447-6.046c-.018.113-.035.227-.055.341Z" transform="translate(-263.101 -420.74)" fill="#8c6df2"/>
      <path id="Trazado_101838" data-name="Trazado 101838" d="M139.85,426.375h0l-.873-5.4c-.007-.044-.013-.088-.02-.131l-11.416,6.03a3.229,3.229,0,0,0-1.721,2.855v1.744a1.6,1.6,0,0,0,1.773,1.586l13.133-1.467a2.411,2.411,0,0,1-.093-.372Z" transform="translate(-125.82 -420.831)" fill="#8c6df2"/>
    </g>
    <g id="Grupo_56019" data-name="Grupo 56019" transform="translate(33.037 1.529)">
      <path id="Trazado_101839" data-name="Trazado 101839" d="M222.836,54.547v-30.1a23,23,0,0,0-3.47-12.229h0a4.427,4.427,0,0,0-7.674,0h0a23,23,0,0,0-3.47,12.229V66.08a43.12,43.12,0,0,0,.534,6.757c.007.044.013.088.02.131l.873,5.4h11.677l.892-5.2c.019-.113.036-.227.055-.341a43.124,43.124,0,0,0,.565-6.941V54.547Z" transform="translate(-208.221 -9.999)" fill="#ffdc72"/>
      <path id="Trazado_101840" data-name="Trazado 101840" d="M278.713,499.838a2.43,2.43,0,0,1-.379.18A2.43,2.43,0,0,0,278.713,499.838Z" transform="translate(-267.61 -424.919)" fill="#ffdc72"/>
      <path id="Trazado_101841" data-name="Trazado 101841" d="M281.96,493.819a2.426,2.426,0,0,0,.8-.953A2.426,2.426,0,0,1,281.96,493.819Z" transform="translate(-270.682 -419.013)" fill="#ffdc72"/>
      <path id="Trazado_101842" data-name="Trazado 101842" d="M287.18,489.441a2.714,2.714,0,0,0,.193-.618A2.43,2.43,0,0,1,287.18,489.441Z" transform="translate(-275.103 -415.588)" fill="#ffdc72"/>
    </g>
    <path id="Trazado_101843" data-name="Trazado 101843" d="M228.393,461.861l.834-4.868H217.55l.784,4.846a2.442,2.442,0,0,0,.093.372,2.414,2.414,0,0,0,2.3,1.665H226a2.418,2.418,0,0,0,1.223-.331q.09-.053.176-.113a2.42,2.42,0,0,0,.992-1.572Z" transform="translate(-183.086 -387.097)" fill="#eceff0"/>
    <path id="Trazado_101844" data-name="Trazado 101844" d="M1.4,48.229v4.984a2.456,2.456,0,0,0,2.446,2.454,2.467,2.467,0,0,0,.662-.091l26.994-7.488V57.61a44.816,44.816,0,0,0,.395,5.908L21.44,69.044A4.746,4.746,0,0,0,18.9,73.251v1.744A3.126,3.126,0,0,0,22.377,78.1l12.116-1.354a3.936,3.936,0,0,0,3.149,1.561h5.275a3.942,3.942,0,0,0,3.157-1.575L58.312,78.1A3.125,3.125,0,0,0,61.784,75V73.252a4.747,4.747,0,0,0-2.536-4.207h0L48.761,63.5a44.8,44.8,0,0,0,.421-6.1v-9.32l26.994,7.488a2.479,2.479,0,0,0,.662.091,2.456,2.456,0,0,0,2.446-2.454V48.229A6.23,6.23,0,0,0,76,42.734l-2.235-1.2.481-6.745a3.4,3.4,0,0,0-3.388-3.638H67.569a3.4,3.4,0,0,0-3.388,3.638l.118,1.657L49.181,28.318V15.977A24.41,24.41,0,0,0,45.475,2.932a5.955,5.955,0,0,0-10.262,0,24.41,24.41,0,0,0-3.706,13.044V28.318L16.389,36.445l.118-1.657A3.4,3.4,0,0,0,13.12,31.15H9.831a3.4,3.4,0,0,0-3.388,3.638l.481,6.745-2.235,1.2A6.23,6.23,0,0,0,1.4,48.229ZM67.232,34.571a.338.338,0,0,1,.337-.362h3.288a.338.338,0,0,1,.337.362l-.384,5.375-3.322-1.786Zm-18.051-2.78L55.153,35v6.165a1.529,1.529,0,1,0,3.059,0V36.646l6.345,3.411,3.189,1.714,1.864,1,3.853,2.071,1.087.584a3.176,3.176,0,0,1,1.674,2.8v4.187l-27.043-7.5V31.791h0ZM42.917,75.25H37.642a.892.892,0,0,1-.884-.752l-.172-1.062-.325-2.011h8.066l-.342,2L43.8,74.506A.893.893,0,0,1,42.917,75.25Zm14.9-3.5h0a1.7,1.7,0,0,1,.905,1.5V75a.06.06,0,0,1-.022.05.061.061,0,0,1-.052.016l-11.621-1.3.618-3.609h0l.593-3.463ZM34.566,46.078v-30.1A21.358,21.358,0,0,1,37.8,4.563a2.9,2.9,0,0,1,5.086,0,21.358,21.358,0,0,1,3.235,11.414V57.41a41.7,41.7,0,0,1-.253,4.568q-.136,1.234-.344,2.456l-.129.754-.545,3.179H35.765l-.511-3.159-.154-.953q-.182-1.126-.3-2.266a41.722,41.722,0,0,1-.233-4.378V46.078ZM32.954,70.139h0l.588,3.636-11.5,1.285a.061.061,0,0,1-.052-.016.06.06,0,0,1-.022-.05V73.252a1.694,1.694,0,0,1,.905-1.5L32.4,66.716ZM9.495,34.571a.338.338,0,0,1,.337-.362H13.12a.338.338,0,0,1,.337.362L13.2,38.159,9.878,39.945ZM6.138,45.428l1.087-.584,3.853-2.071,1.864-1,3.189-1.714,6.345-3.411v4.521a1.529,1.529,0,1,0,3.059,0V35l5.972-3.21V44.915l-27.044,7.5V48.229A3.176,3.176,0,0,1,6.138,45.428Z"/>
    <path id="Trazado_101845" data-name="Trazado 101845" d="M230.423,60.884l1.944-1.178,1.944,1.178a1.529,1.529,0,1,0,1.585-2.616L233.16,56.61a1.529,1.529,0,0,0-1.585,0l-2.737,1.659a1.529,1.529,0,1,0,1.586,2.616Z" transform="translate(-192.023 -47.764)"/>
    <path id="Trazado_101846" data-name="Trazado 101846" d="M247.253,186.333h0a1.529,1.529,0,0,0-1.526,1.533l.042,18.252a1.529,1.529,0,0,0,1.529,1.526h0a1.529,1.529,0,0,0,1.526-1.533l-.042-18.252A1.53,1.53,0,0,0,247.253,186.333Z" transform="translate(-206.951 -157.834)"/>
    <path id="Trazado_101847" data-name="Trazado 101847" d="M248.939,346.614a1.551,1.551,0,0,0-.141-.263,1.456,1.456,0,0,0-.19-.233,1.541,1.541,0,0,0-1.38-.419,1.557,1.557,0,0,0-.286.087,1.52,1.52,0,0,0-.265.141,1.564,1.564,0,0,0-.232.191,1.458,1.458,0,0,0-.19.233,1.552,1.552,0,0,0-.141.263,1.619,1.619,0,0,0-.087.286,1.533,1.533,0,0,0-.031.3,1.508,1.508,0,0,0,.031.3,1.544,1.544,0,0,0,.087.286,1.565,1.565,0,0,0,.141.264,1.481,1.481,0,0,0,.422.422,1.51,1.51,0,0,0,.265.141,1.545,1.545,0,0,0,.286.087,1.47,1.47,0,0,0,.6,0,1.546,1.546,0,0,0,.286-.087,1.511,1.511,0,0,0,.265-.141,1.481,1.481,0,0,0,.422-.422,1.569,1.569,0,0,0,.141-.264,1.552,1.552,0,0,0,.089-.286,1.507,1.507,0,0,0,.029-.3,1.53,1.53,0,0,0-.029-.3A1.625,1.625,0,0,0,248.939,346.614Z" transform="translate(-207.183 -292.801)"/>
  </g>
</svg>
