<svg xmlns="http://www.w3.org/2000/svg" xmlns:xlink="http://www.w3.org/1999/xlink" width="730.839" height="328.563" viewBox="0 0 730.839 328.563">
  <defs>
    <linearGradient id="linear-gradient" y1="0.5" x2="1" y2="0.5" gradientUnits="objectBoundingBox">
      <stop offset="0" stop-color="#d5deff"/>
      <stop offset="1" stop-color="#281b9a"/>
    </linearGradient>
  </defs>
  <g id="Grupo_56040" data-name="Grupo 56040" transform="translate(-175.231 -245.893)">
    <g id="Grupo_56028" data-name="Grupo 56028" transform="translate(605.668 402.201)">
      <path id="Trazado_101871" data-name="Trazado 101871" d="M538.584,335.431,547,390.5l66.454,62.076s18.948,33.357-49.828.814-74.3-35.235-74.3-35.235L421.8,403.6Z" transform="translate(-421.799 -335.431)" fill="#8c6df2"/>
      <path id="Trazado_101872" data-name="Trazado 101872" d="M423.124,381.274l65.211,14.053s97.311,48.85,113.1,49.491l-98.266-59.682L446.04,366.046Z" transform="translate(-420.811 -312.601)" fill="#5038a1" opacity="0.2"/>
      <path id="Trazado_101873" data-name="Trazado 101873" d="M477.377,353.185l23.013,46,71.619,53.392L505.555,390.5l-8.417-55.071Z" transform="translate(-380.354 -335.431)" fill="#5038a1"/>
    </g>
    <g id="Grupo_56029" data-name="Grupo 56029" transform="translate(309.943 245.893)">
      <path id="Trazado_101874" data-name="Trazado 101874" d="M263.6,555.463s-12.133-22.188-11.148-32.025,439.6-245.261,439.6-245.261,95.365-53.937,150.669-21.912c0,0,16.094,7.405-5.574,33.664,0,0-19.238,26.778-264.669,173.891C572.483,463.82,388.2,562.406,263.6,555.463Z" transform="translate(-252.398 -245.733)" fill="#fff"/>
      <path id="Trazado_101875" data-name="Trazado 101875" d="M261.073,551.127s-2.549-4.665-5.216-10.665c0,0,250.1-50.538,584.341-288.533,0,0,16.094,7.405-5.574,33.664,0,0-19.238,26.777-264.669,173.891C569.955,459.484,385.675,558.068,261.073,551.127Z" transform="translate(-249.819 -241.392)" fill="#ccc" opacity="0.16"/>
      <path id="Trazado_101876" data-name="Trazado 101876" d="M258.842,555.626c114.8-58.8,153.633-67.5,268.435-126.3C655.035,354.892,649.69,282.616,741.893,255.378c40.478-11.96,70.869-13.679,96.074,1.053,0,0,16.094,7.405-5.574,33.664,0,0-19.238,26.777-264.671,173.891C567.722,463.985,383.442,562.569,258.842,555.626Z" transform="translate(-247.593 -245.893)" fill="#a09eef" opacity="0.1"/>
    </g>
    <g id="Grupo_56031" data-name="Grupo 56031" transform="translate(442.44 246.268)">
      <g id="Grupo_56030" data-name="Grupo 56030" transform="translate(0 40.027)">
        <path id="Trazado_101877" data-name="Trazado 101877" d="M509.313,276.106h0a2.467,2.467,0,0,1-2.411-2.524l.051-2.133a2.468,2.468,0,0,1,2.524-2.411h0a2.47,2.47,0,0,1,2.409,2.526l-.049,2.133A2.468,2.468,0,0,1,509.313,276.106Z" transform="translate(-195.108 -269.037)" fill="#525189"/>
        <path id="Trazado_101878" data-name="Trazado 101878" d="M504.06,279.006h0a2.47,2.47,0,0,1-2.411-2.524l.051-2.135a2.467,2.467,0,0,1,2.524-2.409h0a2.468,2.468,0,0,1,2.409,2.524l-.049,2.133A2.469,2.469,0,0,1,504.06,279.006Z" transform="translate(-199.026 -266.874)" fill="#525189"/>
        <path id="Trazado_101879" data-name="Trazado 101879" d="M504.06,279.006h0a2.47,2.47,0,0,1-2.411-2.524l.051-2.135a2.467,2.467,0,0,1,2.524-2.409h0a2.468,2.468,0,0,1,2.409,2.524l-.049,2.133A2.469,2.469,0,0,1,504.06,279.006Z" transform="translate(-199.026 -266.874)" fill="#525189"/>
        <path id="Trazado_101880" data-name="Trazado 101880" d="M498.807,281.9h0a2.468,2.468,0,0,1-2.411-2.524l.051-2.133a2.467,2.467,0,0,1,2.524-2.411h0a2.47,2.47,0,0,1,2.409,2.526l-.049,2.133A2.469,2.469,0,0,1,498.807,281.9Z" transform="translate(-202.943 -264.712)" fill="#525189"/>
        <path id="Trazado_101881" data-name="Trazado 101881" d="M498.807,281.9h0a2.468,2.468,0,0,1-2.411-2.524l.051-2.133a2.467,2.467,0,0,1,2.524-2.411h0a2.47,2.47,0,0,1,2.409,2.526l-.049,2.133A2.469,2.469,0,0,1,498.807,281.9Z" transform="translate(-202.943 -264.712)" fill="#525189"/>
        <path id="Trazado_101882" data-name="Trazado 101882" d="M493.552,284.8h0a2.469,2.469,0,0,1-2.409-2.524l.051-2.135a2.467,2.467,0,0,1,2.524-2.409h0a2.468,2.468,0,0,1,2.409,2.524l-.049,2.133A2.47,2.47,0,0,1,493.552,284.8Z" transform="translate(-206.86 -262.55)" fill="#525189"/>
        <path id="Trazado_101883" data-name="Trazado 101883" d="M493.552,284.8h0a2.469,2.469,0,0,1-2.409-2.524l.051-2.135a2.467,2.467,0,0,1,2.524-2.409h0a2.468,2.468,0,0,1,2.409,2.524l-.049,2.133A2.47,2.47,0,0,1,493.552,284.8Z" transform="translate(-206.86 -262.55)" fill="#525189"/>
        <path id="Trazado_101884" data-name="Trazado 101884" d="M488.3,287.7h0a2.467,2.467,0,0,1-2.409-2.524l.049-2.133a2.47,2.47,0,0,1,2.526-2.411h0a2.47,2.47,0,0,1,2.409,2.526l-.051,2.133A2.467,2.467,0,0,1,488.3,287.7Z" transform="translate(-210.777 -260.388)" fill="#525189"/>
        <path id="Trazado_101885" data-name="Trazado 101885" d="M488.3,287.7h0a2.467,2.467,0,0,1-2.409-2.524l.049-2.133a2.47,2.47,0,0,1,2.526-2.411h0a2.47,2.47,0,0,1,2.409,2.526l-.051,2.133A2.467,2.467,0,0,1,488.3,287.7Z" transform="translate(-210.777 -260.388)" fill="#525189"/>
        <path id="Trazado_101886" data-name="Trazado 101886" d="M483.046,290.6h0a2.469,2.469,0,0,1-2.409-2.524l.049-2.135a2.469,2.469,0,0,1,2.524-2.409h0a2.469,2.469,0,0,1,2.411,2.524l-.051,2.133A2.468,2.468,0,0,1,483.046,290.6Z" transform="translate(-214.694 -258.225)" fill="#525189"/>
        <path id="Trazado_101887" data-name="Trazado 101887" d="M483.046,290.6h0a2.469,2.469,0,0,1-2.409-2.524l.049-2.135a2.469,2.469,0,0,1,2.524-2.409h0a2.469,2.469,0,0,1,2.411,2.524l-.051,2.133A2.468,2.468,0,0,1,483.046,290.6Z" transform="translate(-214.694 -258.225)" fill="#525189"/>
        <path id="Trazado_101888" data-name="Trazado 101888" d="M477.793,293.5h0a2.467,2.467,0,0,1-2.409-2.524l.049-2.133a2.469,2.469,0,0,1,2.524-2.411h0a2.47,2.47,0,0,1,2.411,2.526l-.051,2.133A2.467,2.467,0,0,1,477.793,293.5Z" transform="translate(-218.612 -256.063)" fill="#525189"/>
        <path id="Trazado_101889" data-name="Trazado 101889" d="M477.793,293.5h0a2.467,2.467,0,0,1-2.409-2.524l.049-2.133a2.469,2.469,0,0,1,2.524-2.411h0a2.47,2.47,0,0,1,2.411,2.526l-.051,2.133A2.467,2.467,0,0,1,477.793,293.5Z" transform="translate(-218.612 -256.063)" fill="#525189"/>
        <path id="Trazado_101890" data-name="Trazado 101890" d="M472.54,296.4h0a2.469,2.469,0,0,1-2.409-2.524l.049-2.135a2.468,2.468,0,0,1,2.524-2.409h0a2.468,2.468,0,0,1,2.411,2.524l-.051,2.133A2.468,2.468,0,0,1,472.54,296.4Z" transform="translate(-222.529 -253.901)" fill="#525189"/>
        <path id="Trazado_101891" data-name="Trazado 101891" d="M472.54,296.4h0a2.469,2.469,0,0,1-2.409-2.524l.049-2.135a2.468,2.468,0,0,1,2.524-2.409h0a2.468,2.468,0,0,1,2.411,2.524l-.051,2.133A2.468,2.468,0,0,1,472.54,296.4Z" transform="translate(-222.529 -253.901)" fill="#525189"/>
        <path id="Trazado_101892" data-name="Trazado 101892" d="M467.287,299.3h0a2.467,2.467,0,0,1-2.409-2.524l.049-2.133a2.469,2.469,0,0,1,2.524-2.411h0a2.47,2.47,0,0,1,2.411,2.526l-.051,2.133A2.467,2.467,0,0,1,467.287,299.3Z" transform="translate(-226.446 -251.739)" fill="#525189"/>
        <path id="Trazado_101893" data-name="Trazado 101893" d="M467.287,299.3h0a2.467,2.467,0,0,1-2.409-2.524l.049-2.133a2.469,2.469,0,0,1,2.524-2.411h0a2.47,2.47,0,0,1,2.411,2.526l-.051,2.133A2.467,2.467,0,0,1,467.287,299.3Z" transform="translate(-226.446 -251.739)" fill="#525189"/>
        <path id="Trazado_101894" data-name="Trazado 101894" d="M462.034,302.2h0a2.467,2.467,0,0,1-2.409-2.524l.049-2.135a2.468,2.468,0,0,1,2.524-2.409h0a2.466,2.466,0,0,1,2.409,2.524l-.049,2.133A2.468,2.468,0,0,1,462.034,302.2Z" transform="translate(-230.363 -249.576)" fill="#525189"/>
        <path id="Trazado_101895" data-name="Trazado 101895" d="M462.034,302.2h0a2.467,2.467,0,0,1-2.409-2.524l.049-2.135a2.468,2.468,0,0,1,2.524-2.409h0a2.466,2.466,0,0,1,2.409,2.524l-.049,2.133A2.468,2.468,0,0,1,462.034,302.2Z" transform="translate(-230.363 -249.576)" fill="#525189"/>
        <path id="Trazado_101896" data-name="Trazado 101896" d="M456.781,305.1h0a2.465,2.465,0,0,1-2.409-2.524l.049-2.133a2.468,2.468,0,0,1,2.524-2.411h0a2.467,2.467,0,0,1,2.409,2.526l-.049,2.133A2.468,2.468,0,0,1,456.781,305.1Z" transform="translate(-234.281 -247.415)" fill="#525189"/>
        <path id="Trazado_101897" data-name="Trazado 101897" d="M456.781,305.1h0a2.465,2.465,0,0,1-2.409-2.524l.049-2.133a2.468,2.468,0,0,1,2.524-2.411h0a2.467,2.467,0,0,1,2.409,2.526l-.049,2.133A2.468,2.468,0,0,1,456.781,305.1Z" transform="translate(-234.281 -247.415)" fill="#525189"/>
        <path id="Trazado_101898" data-name="Trazado 101898" d="M451.529,308h0a2.469,2.469,0,0,1-2.411-2.524l.051-2.135a2.467,2.467,0,0,1,2.524-2.409h0a2.468,2.468,0,0,1,2.409,2.524l-.049,2.133A2.468,2.468,0,0,1,451.529,308Z" transform="translate(-238.199 -245.252)" fill="#525189"/>
        <path id="Trazado_101899" data-name="Trazado 101899" d="M451.529,308h0a2.469,2.469,0,0,1-2.411-2.524l.051-2.135a2.467,2.467,0,0,1,2.524-2.409h0a2.468,2.468,0,0,1,2.409,2.524l-.049,2.133A2.468,2.468,0,0,1,451.529,308Z" transform="translate(-238.199 -245.252)" fill="#525189"/>
        <path id="Trazado_101900" data-name="Trazado 101900" d="M446.276,310.9h0a2.467,2.467,0,0,1-2.411-2.524l.051-2.133a2.467,2.467,0,0,1,2.524-2.411h0a2.47,2.47,0,0,1,2.409,2.526l-.049,2.133A2.468,2.468,0,0,1,446.276,310.9Z" transform="translate(-242.116 -243.09)" fill="#525189"/>
        <path id="Trazado_101901" data-name="Trazado 101901" d="M446.276,310.9h0a2.467,2.467,0,0,1-2.411-2.524l.051-2.133a2.467,2.467,0,0,1,2.524-2.411h0a2.47,2.47,0,0,1,2.409,2.526l-.049,2.133A2.468,2.468,0,0,1,446.276,310.9Z" transform="translate(-242.116 -243.09)" fill="#525189"/>
        <path id="Trazado_101902" data-name="Trazado 101902" d="M441.023,313.8h0a2.47,2.47,0,0,1-2.411-2.524l.051-2.135a2.467,2.467,0,0,1,2.524-2.409h0a2.468,2.468,0,0,1,2.409,2.524l-.049,2.133A2.469,2.469,0,0,1,441.023,313.8Z" transform="translate(-246.033 -240.928)" fill="#525189"/>
        <path id="Trazado_101903" data-name="Trazado 101903" d="M441.023,313.8h0a2.47,2.47,0,0,1-2.411-2.524l.051-2.135a2.467,2.467,0,0,1,2.524-2.409h0a2.468,2.468,0,0,1,2.409,2.524l-.049,2.133A2.469,2.469,0,0,1,441.023,313.8Z" transform="translate(-246.033 -240.928)" fill="#525189"/>
        <path id="Trazado_101904" data-name="Trazado 101904" d="M435.77,316.7h0a2.467,2.467,0,0,1-2.411-2.524l.051-2.133a2.467,2.467,0,0,1,2.524-2.411h0a2.47,2.47,0,0,1,2.409,2.526l-.049,2.133A2.469,2.469,0,0,1,435.77,316.7Z" transform="translate(-249.95 -238.766)" fill="#525189"/>
        <path id="Trazado_101905" data-name="Trazado 101905" d="M435.77,316.7h0a2.467,2.467,0,0,1-2.411-2.524l.051-2.133a2.467,2.467,0,0,1,2.524-2.411h0a2.47,2.47,0,0,1,2.409,2.526l-.049,2.133A2.469,2.469,0,0,1,435.77,316.7Z" transform="translate(-249.95 -238.766)" fill="#525189"/>
        <path id="Trazado_101906" data-name="Trazado 101906" d="M430.515,319.6h0a2.469,2.469,0,0,1-2.409-2.524l.051-2.135a2.467,2.467,0,0,1,2.524-2.409h0a2.468,2.468,0,0,1,2.409,2.524l-.049,2.133A2.47,2.47,0,0,1,430.515,319.6Z" transform="translate(-253.868 -236.603)" fill="#525189"/>
        <path id="Trazado_101907" data-name="Trazado 101907" d="M430.515,319.6h0a2.469,2.469,0,0,1-2.409-2.524l.051-2.135a2.467,2.467,0,0,1,2.524-2.409h0a2.468,2.468,0,0,1,2.409,2.524l-.049,2.133A2.47,2.47,0,0,1,430.515,319.6Z" transform="translate(-253.868 -236.603)" fill="#525189"/>
        <path id="Trazado_101908" data-name="Trazado 101908" d="M425.262,322.5h0a2.467,2.467,0,0,1-2.409-2.524l.049-2.133a2.47,2.47,0,0,1,2.524-2.411h0a2.47,2.47,0,0,1,2.411,2.526l-.051,2.133A2.467,2.467,0,0,1,425.262,322.5Z" transform="translate(-257.785 -234.441)" fill="#525189"/>
        <path id="Trazado_101909" data-name="Trazado 101909" d="M425.262,322.5h0a2.467,2.467,0,0,1-2.409-2.524l.049-2.133a2.47,2.47,0,0,1,2.524-2.411h0a2.47,2.47,0,0,1,2.411,2.526l-.051,2.133A2.467,2.467,0,0,1,425.262,322.5Z" transform="translate(-257.785 -234.441)" fill="#525189"/>
        <path id="Trazado_101910" data-name="Trazado 101910" d="M420.009,325.4h0a2.469,2.469,0,0,1-2.409-2.524l.049-2.135a2.468,2.468,0,0,1,2.524-2.409h0a2.468,2.468,0,0,1,2.411,2.524l-.051,2.133A2.467,2.467,0,0,1,420.009,325.4Z" transform="translate(-261.702 -232.279)" fill="#525189"/>
        <path id="Trazado_101911" data-name="Trazado 101911" d="M420.009,325.4h0a2.469,2.469,0,0,1-2.409-2.524l.049-2.135a2.468,2.468,0,0,1,2.524-2.409h0a2.468,2.468,0,0,1,2.411,2.524l-.051,2.133A2.467,2.467,0,0,1,420.009,325.4Z" transform="translate(-261.702 -232.279)" fill="#525189"/>
        <path id="Trazado_101912" data-name="Trazado 101912" d="M414.756,328.3h0a2.467,2.467,0,0,1-2.409-2.524l.049-2.133a2.469,2.469,0,0,1,2.524-2.411h0a2.47,2.47,0,0,1,2.411,2.526l-.051,2.133A2.467,2.467,0,0,1,414.756,328.3Z" transform="translate(-265.619 -230.117)" fill="#525189"/>
        <path id="Trazado_101913" data-name="Trazado 101913" d="M414.756,328.3h0a2.467,2.467,0,0,1-2.409-2.524l.049-2.133a2.469,2.469,0,0,1,2.524-2.411h0a2.47,2.47,0,0,1,2.411,2.526l-.051,2.133A2.467,2.467,0,0,1,414.756,328.3Z" transform="translate(-265.619 -230.117)" fill="#525189"/>
        <path id="Trazado_101914" data-name="Trazado 101914" d="M409.5,331.2h0a2.469,2.469,0,0,1-2.409-2.524l.049-2.135a2.468,2.468,0,0,1,2.524-2.409h0a2.469,2.469,0,0,1,2.411,2.524l-.051,2.133A2.467,2.467,0,0,1,409.5,331.2Z" transform="translate(-269.537 -227.954)" fill="#525189"/>
        <path id="Trazado_101915" data-name="Trazado 101915" d="M409.5,331.2h0a2.469,2.469,0,0,1-2.409-2.524l.049-2.135a2.468,2.468,0,0,1,2.524-2.409h0a2.469,2.469,0,0,1,2.411,2.524l-.051,2.133A2.467,2.467,0,0,1,409.5,331.2Z" transform="translate(-269.537 -227.954)" fill="#525189"/>
        <path id="Trazado_101916" data-name="Trazado 101916" d="M404.25,334.1h0a2.467,2.467,0,0,1-2.409-2.524l.049-2.133a2.468,2.468,0,0,1,2.524-2.411h0a2.47,2.47,0,0,1,2.411,2.526l-.051,2.133A2.467,2.467,0,0,1,404.25,334.1Z" transform="translate(-273.454 -225.793)" fill="#525189"/>
        <path id="Trazado_101917" data-name="Trazado 101917" d="M404.25,334.1h0a2.467,2.467,0,0,1-2.409-2.524l.049-2.133a2.468,2.468,0,0,1,2.524-2.411h0a2.47,2.47,0,0,1,2.411,2.526l-.051,2.133A2.467,2.467,0,0,1,404.25,334.1Z" transform="translate(-273.454 -225.793)" fill="#525189"/>
        <path id="Trazado_101918" data-name="Trazado 101918" d="M399,337h0a2.467,2.467,0,0,1-2.409-2.524l.049-2.135a2.468,2.468,0,0,1,2.524-2.409h0a2.466,2.466,0,0,1,2.409,2.524l-.049,2.133A2.469,2.469,0,0,1,399,337Z" transform="translate(-277.371 -223.63)" fill="#525189"/>
        <path id="Trazado_101919" data-name="Trazado 101919" d="M399,337h0a2.467,2.467,0,0,1-2.409-2.524l.049-2.135a2.468,2.468,0,0,1,2.524-2.409h0a2.466,2.466,0,0,1,2.409,2.524l-.049,2.133A2.469,2.469,0,0,1,399,337Z" transform="translate(-277.371 -223.63)" fill="#525189"/>
        <path id="Trazado_101920" data-name="Trazado 101920" d="M393.745,339.895h0a2.467,2.467,0,0,1-2.411-2.524l.051-2.133a2.468,2.468,0,0,1,2.524-2.411h0a2.47,2.47,0,0,1,2.409,2.526l-.049,2.133A2.468,2.468,0,0,1,393.745,339.895Z" transform="translate(-281.289 -221.468)" fill="#525189"/>
        <path id="Trazado_101921" data-name="Trazado 101921" d="M393.745,339.895h0a2.467,2.467,0,0,1-2.411-2.524l.051-2.133a2.468,2.468,0,0,1,2.524-2.411h0a2.47,2.47,0,0,1,2.409,2.526l-.049,2.133A2.468,2.468,0,0,1,393.745,339.895Z" transform="translate(-281.289 -221.468)" fill="#525189"/>
        <path id="Trazado_101922" data-name="Trazado 101922" d="M388.492,342.795h0a2.47,2.47,0,0,1-2.411-2.524l.051-2.135a2.467,2.467,0,0,1,2.524-2.409h0a2.468,2.468,0,0,1,2.409,2.524l-.049,2.133A2.468,2.468,0,0,1,388.492,342.795Z" transform="translate(-285.206 -219.306)" fill="#525189"/>
        <path id="Trazado_101923" data-name="Trazado 101923" d="M388.492,342.795h0a2.47,2.47,0,0,1-2.411-2.524l.051-2.135a2.467,2.467,0,0,1,2.524-2.409h0a2.468,2.468,0,0,1,2.409,2.524l-.049,2.133A2.468,2.468,0,0,1,388.492,342.795Z" transform="translate(-285.206 -219.306)" fill="#525189"/>
        <path id="Trazado_101924" data-name="Trazado 101924" d="M383.239,345.694h0a2.467,2.467,0,0,1-2.411-2.524l.051-2.133a2.468,2.468,0,0,1,2.524-2.411h0a2.47,2.47,0,0,1,2.409,2.526l-.049,2.133A2.468,2.468,0,0,1,383.239,345.694Z" transform="translate(-289.124 -217.144)" fill="#525189"/>
        <path id="Trazado_101925" data-name="Trazado 101925" d="M383.239,345.694h0a2.467,2.467,0,0,1-2.411-2.524l.051-2.133a2.468,2.468,0,0,1,2.524-2.411h0a2.47,2.47,0,0,1,2.409,2.526l-.049,2.133A2.468,2.468,0,0,1,383.239,345.694Z" transform="translate(-289.124 -217.144)" fill="#525189"/>
        <path id="Trazado_101926" data-name="Trazado 101926" d="M377.986,348.594h0a2.47,2.47,0,0,1-2.411-2.524l.051-2.135a2.467,2.467,0,0,1,2.524-2.409h0a2.468,2.468,0,0,1,2.409,2.524l-.049,2.133A2.469,2.469,0,0,1,377.986,348.594Z" transform="translate(-293.041 -214.981)" fill="#525189"/>
        <path id="Trazado_101927" data-name="Trazado 101927" d="M377.986,348.594h0a2.47,2.47,0,0,1-2.411-2.524l.051-2.135a2.467,2.467,0,0,1,2.524-2.409h0a2.468,2.468,0,0,1,2.409,2.524l-.049,2.133A2.469,2.469,0,0,1,377.986,348.594Z" transform="translate(-293.041 -214.981)" fill="#525189"/>
        <path id="Trazado_101928" data-name="Trazado 101928" d="M372.731,351.493h0a2.467,2.467,0,0,1-2.409-2.524l.051-2.133a2.467,2.467,0,0,1,2.524-2.411h0a2.47,2.47,0,0,1,2.409,2.526l-.049,2.133A2.47,2.47,0,0,1,372.731,351.493Z" transform="translate(-296.958 -212.819)" fill="#525189"/>
        <path id="Trazado_101929" data-name="Trazado 101929" d="M372.731,351.493h0a2.467,2.467,0,0,1-2.409-2.524l.051-2.133a2.467,2.467,0,0,1,2.524-2.411h0a2.47,2.47,0,0,1,2.409,2.526l-.049,2.133A2.47,2.47,0,0,1,372.731,351.493Z" transform="translate(-296.958 -212.819)" fill="#525189"/>
        <path id="Trazado_101930" data-name="Trazado 101930" d="M367.478,354.393h0a2.469,2.469,0,0,1-2.409-2.524l.049-2.135a2.47,2.47,0,0,1,2.526-2.409h0a2.468,2.468,0,0,1,2.409,2.524L370,351.982A2.467,2.467,0,0,1,367.478,354.393Z" transform="translate(-300.875 -210.657)" fill="#525189"/>
        <path id="Trazado_101931" data-name="Trazado 101931" d="M367.478,354.393h0a2.469,2.469,0,0,1-2.409-2.524l.049-2.135a2.47,2.47,0,0,1,2.526-2.409h0a2.468,2.468,0,0,1,2.409,2.524L370,351.982A2.467,2.467,0,0,1,367.478,354.393Z" transform="translate(-300.875 -210.657)" fill="#525189"/>
        <path id="Trazado_101932" data-name="Trazado 101932" d="M362.225,357.292h0a2.467,2.467,0,0,1-2.409-2.524l.049-2.133a2.47,2.47,0,0,1,2.524-2.411h0a2.47,2.47,0,0,1,2.411,2.526l-.051,2.133A2.467,2.467,0,0,1,362.225,357.292Z" transform="translate(-304.792 -208.495)" fill="#525189"/>
        <path id="Trazado_101933" data-name="Trazado 101933" d="M362.225,357.292h0a2.467,2.467,0,0,1-2.409-2.524l.049-2.133a2.47,2.47,0,0,1,2.524-2.411h0a2.47,2.47,0,0,1,2.411,2.526l-.051,2.133A2.467,2.467,0,0,1,362.225,357.292Z" transform="translate(-304.792 -208.495)" fill="#525189"/>
        <path id="Trazado_101934" data-name="Trazado 101934" d="M356.972,360.192h0a2.469,2.469,0,0,1-2.409-2.524l.049-2.135a2.468,2.468,0,0,1,2.524-2.409h0a2.469,2.469,0,0,1,2.411,2.524l-.051,2.133A2.467,2.467,0,0,1,356.972,360.192Z" transform="translate(-308.71 -206.332)" fill="#525189"/>
        <path id="Trazado_101935" data-name="Trazado 101935" d="M356.972,360.192h0a2.469,2.469,0,0,1-2.409-2.524l.049-2.135a2.468,2.468,0,0,1,2.524-2.409h0a2.469,2.469,0,0,1,2.411,2.524l-.051,2.133A2.467,2.467,0,0,1,356.972,360.192Z" transform="translate(-308.71 -206.332)" fill="#525189"/>
        <path id="Trazado_101936" data-name="Trazado 101936" d="M351.719,363.091h0a2.467,2.467,0,0,1-2.409-2.524l.049-2.133a2.469,2.469,0,0,1,2.524-2.411h0a2.47,2.47,0,0,1,2.411,2.526l-.051,2.133A2.467,2.467,0,0,1,351.719,363.091Z" transform="translate(-312.627 -204.171)" fill="#525189"/>
        <path id="Trazado_101937" data-name="Trazado 101937" d="M351.719,363.091h0a2.467,2.467,0,0,1-2.409-2.524l.049-2.133a2.469,2.469,0,0,1,2.524-2.411h0a2.47,2.47,0,0,1,2.411,2.526l-.051,2.133A2.467,2.467,0,0,1,351.719,363.091Z" transform="translate(-312.627 -204.171)" fill="#525189"/>
        <path id="Trazado_101938" data-name="Trazado 101938" d="M346.466,365.991h0a2.469,2.469,0,0,1-2.409-2.524l.049-2.135a2.468,2.468,0,0,1,2.524-2.409h0a2.468,2.468,0,0,1,2.411,2.524l-.051,2.133A2.467,2.467,0,0,1,346.466,365.991Z" transform="translate(-316.544 -202.008)" fill="#525189"/>
        <path id="Trazado_101939" data-name="Trazado 101939" d="M346.466,365.991h0a2.469,2.469,0,0,1-2.409-2.524l.049-2.135a2.468,2.468,0,0,1,2.524-2.409h0a2.468,2.468,0,0,1,2.411,2.524l-.051,2.133A2.467,2.467,0,0,1,346.466,365.991Z" transform="translate(-316.544 -202.008)" fill="#525189"/>
        <path id="Trazado_101940" data-name="Trazado 101940" d="M341.213,368.89h0a2.465,2.465,0,0,1-2.409-2.524l.049-2.133a2.469,2.469,0,0,1,2.524-2.411h0a2.467,2.467,0,0,1,2.409,2.526l-.049,2.133A2.468,2.468,0,0,1,341.213,368.89Z" transform="translate(-320.461 -199.846)" fill="#525189"/>
        <path id="Trazado_101941" data-name="Trazado 101941" d="M341.213,368.89h0a2.465,2.465,0,0,1-2.409-2.524l.049-2.133a2.469,2.469,0,0,1,2.524-2.411h0a2.467,2.467,0,0,1,2.409,2.526l-.049,2.133A2.468,2.468,0,0,1,341.213,368.89Z" transform="translate(-320.461 -199.846)" fill="#525189"/>
        <path id="Trazado_101942" data-name="Trazado 101942" d="M335.96,371.79h0a2.467,2.467,0,0,1-2.409-2.524l.049-2.135a2.468,2.468,0,0,1,2.524-2.409h0a2.466,2.466,0,0,1,2.409,2.524l-.049,2.133A2.468,2.468,0,0,1,335.96,371.79Z" transform="translate(-324.379 -197.684)" fill="#525189"/>
        <path id="Trazado_101943" data-name="Trazado 101943" d="M335.96,371.79h0a2.467,2.467,0,0,1-2.409-2.524l.049-2.135a2.468,2.468,0,0,1,2.524-2.409h0a2.466,2.466,0,0,1,2.409,2.524l-.049,2.133A2.468,2.468,0,0,1,335.96,371.79Z" transform="translate(-324.379 -197.684)" fill="#525189"/>
        <path id="Trazado_101944" data-name="Trazado 101944" d="M330.708,374.689h0a2.467,2.467,0,0,1-2.411-2.524l.051-2.133a2.467,2.467,0,0,1,2.524-2.411h0a2.47,2.47,0,0,1,2.409,2.526l-.049,2.133A2.468,2.468,0,0,1,330.708,374.689Z" transform="translate(-328.297 -195.522)" fill="#525189"/>
      </g>
      <path id="Trazado_101945" data-name="Trazado 101945" d="M526.809,271.15l3.055,5.237s43.555-26.081,57.128-30.279c0,0-15.125,1.526-24.649,3.821S526.809,271.15,526.809,271.15Z" transform="translate(-180.263 -246.108)" fill="#5038a1"/>
    </g>
    <g id="Grupo_56032" data-name="Grupo 56032" transform="translate(284.862 385.243)">
      <path id="Trazado_101946" data-name="Trazado 101946" d="M398.394,384.532s-44.125,18.553-68.388-3.745-61.049-51.844-61.049-51.844-23.054-12.316-30.925,11.183l40.066,113.2Z" transform="translate(-238.031 -325.717)" fill="#5038a1"/>
      <path id="Trazado_101947" data-name="Trazado 101947" d="M394.078,384.574s-44.125,18.552-68.388-3.745-61.049-51.844-61.049-51.844-11.387-6.084-20.887-1.543c-4.019,1.922,70.31,102.887,70.31,102.887Z" transform="translate(-233.881 -325.686)" fill="#8c6df2"/>
    </g>
    <g id="Grupo_56033" data-name="Grupo 56033" transform="translate(265.425 332.89)">
      <path id="Trazado_101948" data-name="Trazado 101948" d="M233.192,314.535S201.3,285.68,281.065,299.452s344.169,43.933,344.169,43.933,26.73,22.466-132.079,54.026l-39.474-16.466Z" transform="translate(-226.897 -295.728)" fill="#8c6df2"/>
      <path id="Trazado_101949" data-name="Trazado 101949" d="M262.464,298.536c79.76,13.772,344.169,43.931,344.169,43.931s8.57,7.2-12.824,19.18C577.421,370.825,182.7,284.763,262.464,298.536Z" transform="translate(-208.302 -294.749)" fill="#5038a1"/>
      <path id="Trazado_101950" data-name="Trazado 101950" d="M233.192,312.619s-9.484-8.582-5.169-14.152c3.6-4.642,311.336,86.9,311.336,86.9-13.32,3.252-28.624,6.634-46.2,10.127L453.681,379.03Z" transform="translate(-226.897 -293.812)" opacity="0.2" fill="url(#linear-gradient)"/>
    </g>
    <path id="Trazado_101951" data-name="Trazado 101951" d="M281.54,427.729s44.523,23.583,52.174,18.828,9.759-10.888.112-26.757l-2.077-3.245-55.161,6.763Z" transform="translate(75.583 127.265)" fill="#5038a1"/>
    <g id="Grupo_56034" data-name="Grupo 56034" transform="translate(175.231 479.143)">
      <path id="Trazado_101952" data-name="Trazado 101952" d="M355.994,394.97,209.923,380.362s-27.308-2.907-32.489,1.994c-3.807,3.6-3.018,9.495,5.05,11.585l128.542,37.044S368.368,401.176,355.994,394.97Z" transform="translate(-175.231 -379.506)" fill="#8c6df2"/>
      <path id="Trazado_101953" data-name="Trazado 101953" d="M175.547,382.778c-1.14,3.32.773,7.14,6.941,8.737L311.03,428.559s9.148-4.755,19.348-10.864C330.378,417.7,175.9,381.755,175.547,382.778Z" transform="translate(-175.228 -377.081)" fill="#5038a1"/>
    </g>
    <g id="Grupo_56039" data-name="Grupo 56039" transform="translate(547.356 343.456)">
      <g id="Grupo_56036" data-name="Grupo 56036">
        <g id="Grupo_56035" data-name="Grupo 56035">
          <path id="Trazado_101954" data-name="Trazado 101954" d="M391.074,357.831s-6.45-14.409.672-23.529c5.56-7.119,50.25-30.574,50.25-30.574s15.7-7.952,28.977,8.278-.985,30.536-.985,30.536-61.112,48.119-78.915,15.289" transform="translate(-388.396 -301.78)" fill="#fff"/>
          <path id="Trazado_101955" data-name="Trazado 101955" d="M389.93,353.463l79.9-45.825c13.28,16.232-.985,30.536-.985,30.536s-61.112,48.119-78.915,15.289" transform="translate(-387.252 -297.412)" fill="#ccc" opacity="0.16"/>
          <path id="Trazado_101956" data-name="Trazado 101956" d="M447.464,342.542s14.264-14.3.985-30.536-28.977-8.278-28.977-8.278S410.914,334.76,447.464,342.542Z" transform="translate(-365.872 -301.78)" fill="#525eb5"/>
          <path id="Trazado_101957" data-name="Trazado 101957" d="M419.1,307.89s11.125-7.85,22.466,4.324,7.191,19.253,4.193,24.379C445.761,336.593,423.527,336.759,419.1,307.89Z" transform="translate(-365.498 -299.081)" fill="#201656"/>
          <path id="Trazado_101958" data-name="Trazado 101958" d="M425.535,302a20.7,20.7,0,0,0-5.122,1.566c-.017.063-2.654,2.065-2.938,4.878-.878,8.676,1.847,28.13,27.376,34.652a4.183,4.183,0,0,0,3.554-.716,23.088,23.088,0,0,0,5-7.924c-.1.049-1.379,3.758-4.886,4-4.769.33-13.524-2.467-20.175-11.436-4.907-6.616-7.508-14.151-7.224-18.833A6.562,6.562,0,0,1,425.535,302Z" transform="translate(-366.813 -301.617)" fill="#b5b5e5"/>
        </g>
        <path id="Trazado_101959" data-name="Trazado 101959" d="M391.074,345.612s-6.45-14.409.672-23.529a30.357,30.357,0,0,1,4.122-3.631c-5.646,35.665,29.447,36.334,29.447,36.334-17.873,5.745-28.9.679-34.241-9.174" transform="translate(-388.396 -289.348)" fill="#525eb5"/>
      </g>
      <g id="Grupo_56038" data-name="Grupo 56038" transform="translate(175.826 87.689)">
        <g id="Grupo_56037" data-name="Grupo 56037">
          <path id="Trazado_101960" data-name="Trazado 101960" d="M491.453,400.962s-5.632-12.583.587-20.549c4.857-6.218,43.886-26.7,43.886-26.7s13.709-6.943,25.308,7.233-.859,26.666-.859,26.666S507,429.632,491.453,400.962" transform="translate(-489.115 -352.011)" fill="#fff"/>
          <path id="Trazado_101961" data-name="Trazado 101961" d="M490.454,397.147l69.78-40.019c11.6,14.173-.859,26.666-.859,26.666S506,425.817,490.454,397.147" transform="translate(-488.116 -348.195)" fill="#ccc" opacity="0.16"/>
          <path id="Trazado_101962" data-name="Trazado 101962" d="M540.7,387.61s12.456-12.492.859-26.666-25.308-7.233-25.308-7.233S508.78,380.813,540.7,387.61Z" transform="translate(-469.444 -352.011)" fill="#525eb5"/>
          <path id="Trazado_101963" data-name="Trazado 101963" d="M515.931,357.347s9.717-6.855,19.62,3.776,6.279,16.816,3.663,21.292C539.214,382.415,519.8,382.559,515.931,357.347Z" transform="translate(-469.118 -349.654)" fill="#201656"/>
          <path id="Trazado_101964" data-name="Trazado 101964" d="M521.55,352.2a18.144,18.144,0,0,0-4.474,1.367c-.014.056-2.317,1.805-2.564,4.261-.768,7.576,1.613,24.566,23.908,30.264a3.656,3.656,0,0,0,3.106-.627,20.18,20.18,0,0,0,4.368-6.918c-.085.042-1.2,3.28-4.266,3.491-4.165.288-11.812-2.154-17.621-9.987-4.284-5.778-6.557-12.36-6.307-16.448A5.729,5.729,0,0,1,521.55,352.2Z" transform="translate(-470.266 -351.869)" fill="#b5b5e5"/>
        </g>
        <path id="Trazado_101965" data-name="Trazado 101965" d="M491.453,390.292s-5.632-12.585.587-20.549a26.631,26.631,0,0,1,3.6-3.172c-4.93,31.147,25.718,31.732,25.718,31.732-15.608,5.017-25.238.592-29.9-8.011" transform="translate(-489.115 -341.154)" fill="#525eb5"/>
      </g>
    </g>
  </g>
</svg>
