<svg xmlns="http://www.w3.org/2000/svg" width="260.495" height="246.244" viewBox="0 0 260.495 246.244">
  <g id="Grupo_84054" data-name="Grupo 84054" transform="translate(-212.5 -425.584)">
    <g id="Right" transform="translate(212.5 425.584)">
      <rect id="BG" width="260.495" height="246.244" fill="#fff" opacity="0.949"/>
    </g>
    <g id="aeropuerto" transform="translate(259.672 476.219)">
      <path id="Trazado_101726" data-name="Trazado 101726" d="M106.418,20.359,71.693,43.072l.629-1.731V36.1L53.964,46.586v5.665l-6.9,3.908a27.037,27.037,0,0,1-32.5-4.38L12,49.209V46.586l13.14-7.711L45.728,26.811,62.488,17,84.676,3.993a14.426,14.426,0,0,1,21.742,12.458Z" transform="translate(17.85 1.623)" fill="#e6e9ed"/>
      <path id="Trazado_101727" data-name="Trazado 101727" d="M33.149,25.736l.1.157L20.114,33.6,7,12.623,14.868,10Z" transform="translate(9.736 14.605)" fill="#8c6df2"/>
      <path id="Trazado_101728" data-name="Trazado 101728" d="M56,15.353v.026L39.237,25.188,16,8.245,23.868,3Z" transform="translate(24.341 3.245)" fill="#8c6df2"/>
      <path id="Trazado_101729" data-name="Trazado 101729" d="M46.359,15v5.245l-.629,1.731L35.868,49.1,28,51.718V25.491Z" transform="translate(43.814 22.718)" fill="#8c6df2"/>
      <path id="Trazado_101730" data-name="Trazado 101730" d="M40,30v2.623l7.868,23.6H79.341l7.868-23.6V30Z" transform="translate(63.287 47.059)" fill="#fcd770"/>
      <path id="Trazado_101731" data-name="Trazado 101731" d="M65.982,40V60.982H45V40H65.982Z" transform="translate(71.4 63.287)" fill="#aab2bd"/>
      <path id="Trazado_101732" data-name="Trazado 101732" d="M38.688,48,32,84.718h78.682V48Z" transform="translate(50.305 76.268)" fill="#e6e9ed"/>
      <path id="Trazado_101733" data-name="Trazado 101733" d="M96.418,38.623v5.245A2.63,2.63,0,0,1,93.8,46.491H4.623A2.63,2.63,0,0,1,2,43.868V38.623A2.63,2.63,0,0,1,4.623,36H93.8A2.63,2.63,0,0,1,96.418,38.623Z" transform="translate(1.623 56.796)" fill="#aab2bd"/>
      <g id="Grupo_55998" data-name="Grupo 55998" transform="translate(8.868 87.55)">
        <path id="Trazado_101734" data-name="Trazado 101734" d="M69.568,40H4L9.245,68.85,14.491,97.7H77.436l5.245-28.85,1.442-7.868L87.927,40Z" transform="translate(-4 -24.264)" fill="#ffdc72"/>
        <path id="Trazado_101735" data-name="Trazado 101735" d="M54,54H64.491V74.982H54Z" transform="translate(77.137 -1.545)" fill="#8c6df2"/>
        <path id="Trazado_101736" data-name="Trazado 101736" d="M46,54H56.491V74.982H46Z" transform="translate(64.155 -1.545)" fill="#8c6df2"/>
        <path id="Trazado_101737" data-name="Trazado 101737" d="M38,54H48.491V74.982H38Z" transform="translate(51.173 -1.545)" fill="#8c6df2"/>
        <path id="Trazado_101738" data-name="Trazado 101738" d="M47,34H57.491V49.736H47Z" transform="translate(65.777 -34)" fill="#8c6df2"/>
      </g>
      <path id="Trazado_101739" data-name="Trazado 101739" d="M0,0H5.245V5.245H0Z" transform="matrix(0.857, -0.515, 0.515, 0.857, 102.647, 11.897)"/>
      <path id="Trazado_101740" data-name="Trazado 101740" d="M0,0H5.245V5.245H0Z" transform="matrix(0.857, -0.515, 0.515, 0.857, 93.655, 17.295)"/>
      <path id="Trazado_101741" data-name="Trazado 101741" d="M0,0H5.245V5.245H0Z" transform="matrix(0.857, -0.515, 0.515, 0.857, 84.665, 22.696)"/>
      <path id="Trazado_101742" data-name="Trazado 101742" d="M19.959,51.918l3.333,3.333a29.673,29.673,0,0,0,35.653,4.815l2.977-1.694v19.7L74.444,73.9l10-27.486L119.623,23.4v-5.34A17.062,17.062,0,0,0,93.933,3.342L72.844,15.706,40.616,3.311,28.488,11.394,51.526,28.2,36.068,37.262,17.919,21.646,5.479,25.793l14.48,23.169ZM70.384,69.726,67.168,70.8V49.73l13.114-7.493Zm26.2-61.857a11.815,11.815,0,0,1,17.793,10.192v2.5L85.527,39.436V33.2l-23.6,13.489v5.649l-5.571,3.171A24.428,24.428,0,0,1,27,51.543l-1.8-1.8ZM37.657,11.588,41.266,9.18,67.055,19.1,56.465,25.3Zm-20.9,15.975L31.287,40.068l-7.831,4.59-10-16Z" transform="translate(7.268 0)"/>
      <path id="Trazado_101743" data-name="Trazado 101743" d="M140,76.209V60.473h4.514l8.6-25.8V29H100.664v5.67l8.6,25.8h4.514V76.209H92.124l2.861-15.736h.433a5.251,5.251,0,0,0,5.245-5.245V49.982a5.251,5.251,0,0,0-5.245-5.245H6.245A5.251,5.251,0,0,0,1,49.982v5.245a5.251,5.251,0,0,0,5.245,5.245h.433l10.491,57.7h146.44V76.209ZM129.514,55.227h-5.245V44.736h5.245ZM106.051,34.245h41.68l-6.995,20.982h-5.977V39.491H119.023V55.227h-5.977Zm12.972,26.227h15.736V76.209H119.023ZM85.36,84.077h-8.3v-23.6H89.654Zm-45.019-23.6v23.6H29.85v-23.6Zm31.473,0v23.6H61.323v-23.6Zm-15.736,23.6H45.586v-23.6H56.077ZM40.341,89.323v23.6H29.85v-23.6Zm5.245,0H56.077v23.6H45.586Zm15.736,0H71.814v23.6H61.323Zm15.736,0h7.349l-4.291,23.6H77.059ZM6.245,49.982H95.418l0,5.245H6.245ZM24.6,60.473v23.6H16.3l-4.291-23.6Zm-7.349,28.85H24.6v23.6H21.546Zm88.654,23.6h-5.245V97.191h5.245Zm20.982,0h-5.245V97.191h5.245Zm20.982,0h-5.245V97.191h5.245Zm10.491,0h-5.245V91.946H137.382v20.982h-5.245V91.946H116.4v20.982h-5.245V91.946H95.418v20.982H85.447L91.17,81.455h67.194Z" transform="translate(0 45.436)"/>
    </g>
  </g>
</svg>
