<svg xmlns="http://www.w3.org/2000/svg" width="260.495" height="246.244" viewBox="0 0 260.495 246.244">
  <g id="Grupo_84055" data-name="Grupo 84055" transform="translate(-212.5 -425.584)">
    <g id="Right" transform="translate(212.5 425.584)">
      <rect id="BG" width="260.495" height="246.244" fill="#fff" opacity="0.949"/>
    </g>
    <g id="sombrero-de-piloto" transform="translate(263.512 437.238)">
      <path id="Trazado_101808" data-name="Trazado 101808" d="M61.515,259.224H181.921v31.568H61.515Z" transform="translate(-42.481 -146.783)" fill="#5038a1"/>
      <path id="Trazado_101809" data-name="Trazado 101809" d="M427.027,259.224h7.308v31.568h-7.308Z" transform="translate(-294.895 -146.783)" fill="#2b4d66"/>
      <path id="Trazado_101810" data-name="Trazado 101810" d="M63.5,58.915c-15.775,7.426-31.856,15.5-46.735,24.212C.458,92.682,7.237,117.66,26.14,117.66H142.787c18.9,0,25.682-24.978,9.371-34.532-14.879-8.716-30.96-16.786-46.735-24.212a49.219,49.219,0,0,0-41.919,0Z" transform="translate(-5.228 -5.218)" fill="#8c6df2"/>
      <path id="Trazado_101811" data-name="Trazado 101811" d="M311.451,83.131c-14.879-8.716-30.96-16.786-46.735-24.212a49.21,49.21,0,0,0-26.479-4.374,49.178,49.178,0,0,1,15.44,4.374c15.775,7.426,31.856,15.5,46.735,24.212,16.311,9.554,9.532,34.532-9.371,34.532H302.08c18.9,0,25.682-24.978,9.371-34.532Z" transform="translate(-164.521 -5.222)" fill="#5038a1"/>
      <path id="Trazado_101812" data-name="Trazado 101812" d="M61.515,295.907H181.921v8.867H61.515Z" transform="translate(-42.481 -172.115)" fill="#ffe07d"/>
      <path id="Trazado_101813" data-name="Trazado 101813" d="M427.027,295.907h7.308v8.867h-7.308Z" transform="translate(-294.895 -172.115)" fill="#ffd064"/>
      <path id="Trazado_101814" data-name="Trazado 101814" d="M115.973,391.177h11.49a64.508,64.508,0,0,0,54.458-29.93H61.515a64.507,64.507,0,0,0,54.458,29.93Z" transform="translate(-42.481 -217.237)" fill="#8c6df2"/>
      <path id="Trazado_101815" data-name="Trazado 101815" d="M302.487,361.247a64.507,64.507,0,0,1-54.458,29.93h8.236a64.508,64.508,0,0,0,54.458-29.93Z" transform="translate(-171.283 -217.237)" fill="#5ea5ec"/>
      <g id="Grupo_56009" data-name="Grupo 56009" transform="translate(45.333 81.384)">
        <g id="Grupo_56007" data-name="Grupo 56007">
          <path id="Trazado_101816" data-name="Trazado 101816" d="M179.014,166.969H154.392a7.885,7.885,0,0,1-7.885-7.885v-.233h32.507v8.118Z" transform="translate(-146.507 -158.851)" fill="#ffd064"/>
          <path id="Trazado_101817" data-name="Trazado 101817" d="M203.549,193.206H189.921a7.885,7.885,0,0,1-7.885-7.885v-.233H203.55v8.118Z" transform="translate(-171.043 -176.97)" fill="#eab14d"/>
        </g>
        <g id="Grupo_56008" data-name="Grupo 56008" transform="translate(35.299)">
          <path id="Trazado_101818" data-name="Trazado 101818" d="M260.587,166.969h24.622a7.885,7.885,0,0,0,7.885-7.885v-.233H260.587Z" transform="translate(-260.587 -158.851)" fill="#ffd064"/>
          <path id="Trazado_101819" data-name="Trazado 101819" d="M260.586,193.206h13.628a7.885,7.885,0,0,0,7.885-7.885v-.233H260.586v8.118Z" transform="translate(-260.586 -176.97)" fill="#eab14d"/>
        </g>
      </g>
      <path id="Trazado_101820" data-name="Trazado 101820" d="M229.2,170.624l-7.052-7.052a3.789,3.789,0,0,1,0-5.359l7.052-7.052a3.789,3.789,0,0,1,5.359,0l7.052,7.052a3.789,3.789,0,0,1,0,5.359l-7.052,7.052A3.789,3.789,0,0,1,229.2,170.624Z" transform="translate(-152.644 -71.391)" fill="#ffe07d"/>
      <g id="Grupo_56010" data-name="Grupo 56010" transform="translate(0 46.673)">
        <path id="Trazado_101821" data-name="Trazado 101821" d="M180.484,145.281l-.933-.933a6.117,6.117,0,0,0-8.641,0l-.933.933H141.328a2.321,2.321,0,0,0-2.321,2.321v.233a10.217,10.217,0,0,0,10.206,10.206h1a10.223,10.223,0,0,0,9.99,8.118h9.771l.933.933a6.117,6.117,0,0,0,8.641,0l.933-.933h9.771a10.223,10.223,0,0,0,9.99-8.118h1a10.217,10.217,0,0,0,10.206-10.206V147.6a2.321,2.321,0,0,0-2.321-2.321Zm-36.43,4.641h21.281l-1.477,1.477a6.079,6.079,0,0,0-1.331,2H149.212A5.574,5.574,0,0,1,144.054,149.922Zm16.152,11.6a5.573,5.573,0,0,1-5.158-3.477h7.48a6.069,6.069,0,0,0,1.331,2l1.477,1.478Zm13.986,2.293-7.052-7.052a1.47,1.47,0,0,1,0-2.077l7.052-7.052a1.47,1.47,0,0,1,2.077,0l7.052,7.052a1.47,1.47,0,0,1,0,2.077l-7.052,7.052A1.47,1.47,0,0,1,174.192,163.81Zm16.063-2.293h-5.13l1.477-1.478a6.082,6.082,0,0,0,1.331-2h7.48A5.574,5.574,0,0,1,190.255,161.518Zm10.994-8.118H187.933a6.077,6.077,0,0,0-1.33-2l-1.478-1.477h21.281A5.574,5.574,0,0,1,201.249,153.4Z" transform="translate(-95.995 -112.891)"/>
        <path id="Trazado_101822" data-name="Trazado 101822" d="M250.9,175.5a2.321,2.321,0,0,0-2.321,2.321v1.292a2.321,2.321,0,1,0,4.641,0v-1.292A2.321,2.321,0,0,0,250.9,175.5Z" transform="translate(-171.66 -135.638)"/>
        <path id="Trazado_101823" data-name="Trazado 101823" d="M148.1,75.907c-2.719-1.593-5.581-3.223-8.506-4.846a2.321,2.321,0,1,0-2.252,4.059c2.894,1.605,5.724,3.218,8.412,4.792a16.217,16.217,0,0,1-8.2,30.209H20.912a16.217,16.217,0,0,1-8.2-30.209C25.6,72.366,40.822,64.478,59.264,55.8a46.746,46.746,0,0,1,39.942,0c11.252,5.3,21.071,10.178,30.016,14.921a2.321,2.321,0,1,0,2.175-4.1c-9.011-4.778-18.894-9.691-30.214-15.02a51.374,51.374,0,0,0-43.9,0C38.718,60.339,23.371,68.29,10.368,75.907a20.882,20.882,0,0,0,6.346,38.459V144.01a2.333,2.333,0,0,0,.4,1.3,66.823,66.823,0,0,0,56.378,30.949h11.49a66.848,66.848,0,0,0,17.115-2.232,2.321,2.321,0,0,0-1.189-4.487,62.19,62.19,0,0,1-15.926,2.078H73.492A62.181,62.181,0,0,1,23.436,146.33H135.042a61.917,61.917,0,0,1-25.521,20.24,2.321,2.321,0,1,0,1.832,4.264A66.565,66.565,0,0,0,141.4,145.254a2.341,2.341,0,0,0,.361-1.244V114.365A20.882,20.882,0,0,0,148.1,75.907Zm-10.984,38.855v6.71H42.336a2.321,2.321,0,1,0,0,4.641h94.783v4.225H21.355v-4.225h11.7a2.321,2.321,0,1,0,0-4.641h-11.7v-6.71ZM21.355,141.689v-6.71H137.119v6.71Z" transform="translate(0 -46.673)"/>
      </g>
    </g>
  </g>
</svg>
