<svg xmlns="http://www.w3.org/2000/svg" width="479.508" height="190.563" viewBox="0 0 479.508 190.563">
  <g id="Grupo_83584" data-name="Grupo 83584" transform="translate(-881.844 -9263.438)">
    <path id="Trazado_106579" data-name="Trazado 106579" d="M118.815,633.585S78.6,561.056,125.936,526.442c26.412-19.314,58.059-5.681,84.84-57.522,15.585-30.169,70.126-39.325,97.4,1.862s52.858,48.046,71.676,40.427c21.581-8.737,31.062-35.036,64.843-29.475,39.044,6.428,36.094,58.988,64.864,52.2,55.482-13.085,96.125,61,57.774,99.494Z" transform="translate(778.966 8820.414)" fill="#f5f2ff"/>
    <g id="Grupo_83583" data-name="Grupo 83583" transform="translate(-613.296 8617.85)">
      <g id="Grupo_83554" data-name="Grupo 83554" transform="translate(1553.218 785.137)">
        <g id="Grupo_83550" data-name="Grupo 83550" transform="translate(125.208 0)">
          <rect id="Rectángulo_8216" data-name="Rectángulo 8216" width="1.355" height="45.614" transform="translate(0.576 3.688)" fill="#5038a1"/>
          <path id="Trazado_106471" data-name="Trazado 106471" d="M2103.34,1475.611c0-1.159.561-2.1,1.254-2.1s1.254.94,1.254,2.1-.562,2.1-1.254,2.1S2103.34,1476.77,2103.34,1475.611Z" transform="translate(-2103.34 -1473.512)" fill="#5038a1"/>
          <rect id="Rectángulo_8217" data-name="Rectángulo 8217" width="2.44" height="1.078" transform="translate(0 48.677)" fill="#5038a1"/>
          <rect id="Rectángulo_8218" data-name="Rectángulo 8218" width="2.05" height="0.873" transform="translate(0.238 3.325)" fill="#5038a1"/>
        </g>
        <path id="Trazado_106472" data-name="Trazado 106472" d="M1662.344,1510.493c-7.727,0-16.008-.319-24.839-1.058a276.37,276.37,0,0,1-38.523-5.757l.232-2.641a275.552,275.552,0,0,0,38.391,5.734c20.83,1.742,51.981,2.162,82.1-5.732l.246,2.637C1707.141,1507.033,1687.766,1510.493,1662.344,1510.493Z" transform="translate(-1596.15 -1494.358)" fill="#8c6df2"/>
        <path id="Trazado_106473" data-name="Trazado 106473" d="M2178.816,1510.493c-7.727,0-16.008-.319-24.839-1.058a276.411,276.411,0,0,1-38.523-5.757l.232-2.641a275.564,275.564,0,0,0,38.392,5.734c20.83,1.742,51.981,2.162,82.1-5.732l.247,2.637C2223.613,1507.033,2204.238,1510.493,2178.816,1510.493Z" transform="translate(-1987.306 -1494.358)" fill="#8c6df2"/>
        <path id="Trazado_106474" data-name="Trazado 106474" d="M2695,1510.493c-7.726,0-16.008-.319-24.838-1.058a276.362,276.362,0,0,1-38.523-5.757l.231-2.641a275.556,275.556,0,0,0,38.392,5.734c20.83,1.742,51.981,2.162,82.1-5.732l.246,2.637C2739.8,1507.033,2720.421,1510.493,2695,1510.493Z" transform="translate(-2378.243 -1494.358)" fill="#8c6df2"/>
        <g id="Grupo_83551" data-name="Grupo 83551" transform="translate(0 0)">
          <rect id="Rectángulo_8219" data-name="Rectángulo 8219" width="1.355" height="45.614" transform="translate(0.576 3.688)" fill="#5038a1"/>
          <path id="Trazado_106475" data-name="Trazado 106475" d="M1587.311,1475.611c0-1.159.562-2.1,1.254-2.1s1.254.94,1.254,2.1-.561,2.1-1.254,2.1S1587.311,1476.77,1587.311,1475.611Z" transform="translate(-1587.311 -1473.512)" fill="#5038a1"/>
          <rect id="Rectángulo_8220" data-name="Rectángulo 8220" width="2.44" height="1.078" transform="translate(0 48.677)" fill="#5038a1"/>
          <rect id="Rectángulo_8221" data-name="Rectángulo 8221" width="2.05" height="0.873" transform="translate(0.238 3.325)" fill="#5038a1"/>
        </g>
        <path id="Trazado_106476" data-name="Trazado 106476" d="M1601.3,1500.43l-.322,3.149-2.868-.785.356-3.066Z" transform="translate(-1595.492 -1493.367)" fill="#333"/>
        <path id="Trazado_106477" data-name="Trazado 106477" d="M1596.525,1501.1a.892.892,0,0,0-.422-.479.026.026,0,0,0-.019-.009h-.005a.456.456,0,0,0-.047-.017l-.838-.213-.494-.127a.522.522,0,0,0-.522.183.409.409,0,0,0-.042.05,1.532,1.532,0,0,0-.3.825,1.679,1.679,0,0,0,.341,1.26.617.617,0,0,0,.292.186l.436.111.188.047.708.18a.426.426,0,0,0,.116.02c.365,0,.689-.451.747-1.077A1.95,1.95,0,0,0,1596.525,1501.1Zm-.037.894c-.049.529-.342.892-.658.811l-.71-.185-.181-.047-.443-.111a.568.568,0,0,1-.318-.271,1.4,1.4,0,0,1-.167-.834,1.263,1.263,0,0,1,.167-.54.929.929,0,0,1,.063-.092.415.415,0,0,1,.428-.177l.489.125h0l.126.036.718.183a.607.607,0,0,1,.378.385A1.48,1.48,0,0,1,1596.488,1502Z" transform="translate(-1592.247 -1493.758)" fill="#333"/>
        <path id="Trazado_106478" data-name="Trazado 106478" d="M2090.191,1502.626l-.249-3.167,2.879-.67.2,3.105Z" transform="translate(-1967.985 -1492.656)" fill="#333"/>
        <path id="Trazado_106479" data-name="Trazado 106479" d="M2098.365,1500.667a1.433,1.433,0,0,0-.365-.905.507.507,0,0,0-.492-.161l-.436.111-.9.219a.9.9,0,0,0-.114.044.78.78,0,0,0-.267.249,1.784,1.784,0,0,0-.257,1.146,1.548,1.548,0,0,0,.3.831.541.541,0,0,0,.155.147l0,0a.475.475,0,0,0,.4.086l.84-.21.494-.122a.583.583,0,0,0,.271-.158,1.067,1.067,0,0,0,.226-.341A1.924,1.924,0,0,0,2098.365,1500.667Zm-.281.761a.986.986,0,0,1-.084.149.515.515,0,0,1-.3.233l-.489.122-.845.213a.409.409,0,0,1-.414-.169.046.046,0,0,1-.014-.017,1.169,1.169,0,0,1-.23-.634,1.452,1.452,0,0,1,.116-.731v0a.608.608,0,0,1,.372-.366l.89-.224.443-.108a.437.437,0,0,1,.466.236,1.21,1.21,0,0,1,.191.581A1.489,1.489,0,0,1,2098.084,1501.428Z" transform="translate(-1972.215 -1493.26)" fill="#333"/>
        <g id="Grupo_83552" data-name="Grupo 83552" transform="translate(250.525 0)">
          <rect id="Rectángulo_8222" data-name="Rectángulo 8222" width="1.356" height="45.614" transform="translate(0.576 3.688)" fill="#333"/>
          <path id="Trazado_106480" data-name="Trazado 106480" d="M2619.812,1475.611c0-1.159.561-2.1,1.254-2.1s1.254.94,1.254,2.1-.562,2.1-1.254,2.1S2619.812,1476.77,2619.812,1475.611Z" transform="translate(-2619.812 -1473.512)" fill="#333"/>
          <rect id="Rectángulo_8223" data-name="Rectángulo 8223" width="2.44" height="1.078" transform="translate(0 48.677)" fill="#333"/>
          <rect id="Rectángulo_8224" data-name="Rectángulo 8224" width="2.05" height="0.873" transform="translate(0.238 3.325)" fill="#5038a1"/>
        </g>
        <path id="Trazado_106481" data-name="Trazado 106481" d="M2117.776,1500.43l-.322,3.149-2.868-.785.356-3.066Z" transform="translate(-1986.648 -1493.367)" fill="#333"/>
        <path id="Trazado_106482" data-name="Trazado 106482" d="M2113,1501.1a.9.9,0,0,0-.421-.479.027.027,0,0,0-.02-.009h-.005a.436.436,0,0,0-.047-.017l-.838-.213-.493-.127a.522.522,0,0,0-.522.183.419.419,0,0,0-.042.05,1.53,1.53,0,0,0-.3.825,1.68,1.68,0,0,0,.341,1.26.619.619,0,0,0,.292.186l.436.111.188.047.708.18a.429.429,0,0,0,.116.02c.365,0,.689-.451.747-1.077A1.947,1.947,0,0,0,2113,1501.1Zm-.037.894c-.049.529-.343.892-.659.811l-.71-.185-.181-.047-.442-.111a.567.567,0,0,1-.318-.271,1.4,1.4,0,0,1-.167-.834,1.261,1.261,0,0,1,.167-.54.972.972,0,0,1,.063-.092.415.415,0,0,1,.428-.177l.489.125h0l.126.036.718.183a.606.606,0,0,1,.377.385A1.482,1.482,0,0,1,2112.961,1502Z" transform="translate(-1983.403 -1493.758)" fill="#333"/>
        <path id="Trazado_106483" data-name="Trazado 106483" d="M2606.663,1502.626l-.249-3.167,2.879-.67.2,3.105Z" transform="translate(-2359.141 -1492.656)" fill="#333"/>
        <path id="Trazado_106484" data-name="Trazado 106484" d="M2614.838,1500.667a1.433,1.433,0,0,0-.365-.905.506.506,0,0,0-.492-.161l-.435.111-.9.219a.877.877,0,0,0-.114.044.778.778,0,0,0-.267.249,1.787,1.787,0,0,0-.257,1.146,1.552,1.552,0,0,0,.3.831.548.548,0,0,0,.155.147l0,0a.475.475,0,0,0,.4.086l.84-.21.494-.122a.585.585,0,0,0,.27-.158,1.072,1.072,0,0,0,.227-.341A1.924,1.924,0,0,0,2614.838,1500.667Zm-.281.761a.966.966,0,0,1-.084.149.516.516,0,0,1-.3.233l-.489.122-.845.213a.41.41,0,0,1-.415-.169c0-.006-.01-.008-.014-.017a1.169,1.169,0,0,1-.23-.634,1.452,1.452,0,0,1,.116-.731v0a.609.609,0,0,1,.372-.366l.891-.224.443-.108a.436.436,0,0,1,.466.236,1.2,1.2,0,0,1,.191.581A1.5,1.5,0,0,1,2614.557,1501.428Z" transform="translate(-2363.372 -1493.26)" fill="#333"/>
        <g id="Grupo_83553" data-name="Grupo 83553" transform="translate(375.77 0)">
          <rect id="Rectángulo_8225" data-name="Rectángulo 8225" width="1.355" height="45.614" transform="translate(0.576 3.688)" fill="#5038a1"/>
          <path id="Trazado_106485" data-name="Trazado 106485" d="M3135.994,1475.611c0-1.159.561-2.1,1.254-2.1s1.254.94,1.254,2.1-.562,2.1-1.254,2.1S3135.994,1476.77,3135.994,1475.611Z" transform="translate(-3135.994 -1473.512)" fill="#5038a1"/>
          <rect id="Rectángulo_8226" data-name="Rectángulo 8226" width="2.44" height="1.078" transform="translate(0 48.677)" fill="#5038a1"/>
          <rect id="Rectángulo_8227" data-name="Rectángulo 8227" width="2.05" height="0.873" transform="translate(0.238 3.325)" fill="#5038a1"/>
        </g>
        <path id="Trazado_106486" data-name="Trazado 106486" d="M2633.958,1500.43l-.322,3.149-2.868-.785.356-3.066Z" transform="translate(-2377.585 -1493.367)" fill="#333"/>
        <path id="Trazado_106487" data-name="Trazado 106487" d="M2629.179,1501.1a.893.893,0,0,0-.422-.479.025.025,0,0,0-.019-.009h-.005a.5.5,0,0,0-.048-.017l-.838-.213-.494-.127a.522.522,0,0,0-.522.183.4.4,0,0,0-.042.05,1.53,1.53,0,0,0-.3.825,1.679,1.679,0,0,0,.341,1.26.616.616,0,0,0,.292.186l.436.111.188.047.708.18a.427.427,0,0,0,.116.02c.365,0,.688-.451.747-1.077A1.947,1.947,0,0,0,2629.179,1501.1Zm-.037.894c-.049.529-.343.892-.659.811l-.709-.185-.181-.047-.443-.111a.566.566,0,0,1-.318-.271,1.4,1.4,0,0,1-.167-.834,1.265,1.265,0,0,1,.167-.54.971.971,0,0,1,.063-.092.416.416,0,0,1,.429-.177l.488.125h0l.127.036.718.183a.607.607,0,0,1,.378.385A1.485,1.485,0,0,1,2629.143,1502Z" transform="translate(-2374.34 -1493.758)" fill="#333"/>
        <path id="Trazado_106488" data-name="Trazado 106488" d="M3122.845,1502.626l-.249-3.167,2.878-.67.2,3.105Z" transform="translate(-2750.077 -1492.656)" fill="#333"/>
        <path id="Trazado_106489" data-name="Trazado 106489" d="M3131.02,1500.667a1.429,1.429,0,0,0-.365-.905.506.506,0,0,0-.492-.161l-.436.111-.9.219a.89.89,0,0,0-.114.044.779.779,0,0,0-.267.249,1.785,1.785,0,0,0-.256,1.146,1.546,1.546,0,0,0,.3.831.541.541,0,0,0,.155.147l0,0a.475.475,0,0,0,.4.086l.839-.21.494-.122a.581.581,0,0,0,.27-.158,1.068,1.068,0,0,0,.227-.341A1.927,1.927,0,0,0,3131.02,1500.667Zm-.281.761a.947.947,0,0,1-.084.149.514.514,0,0,1-.3.233l-.488.122-.845.213a.409.409,0,0,1-.414-.169c-.006-.006-.011-.008-.015-.017a1.171,1.171,0,0,1-.23-.634,1.455,1.455,0,0,1,.116-.731v0a.608.608,0,0,1,.372-.366l.891-.224.443-.108a.436.436,0,0,1,.465.236,1.207,1.207,0,0,1,.192.581A1.5,1.5,0,0,1,3130.739,1501.428Z" transform="translate(-2754.308 -1493.26)" fill="#333"/>
      </g>
      <g id="man" transform="translate(1589.963 675.496)">
        <path id="Trazado_106498" data-name="Trazado 106498" d="M1765.9,1112.253a42.328,42.328,0,0,0-15.21-3.95,10.511,10.511,0,0,0-10.75,7.187q-.131.4-.249.821c-2.1,7.569-.956,30.481,6.122,36.458s20.087,3.455,20.087,3.455Z" transform="translate(-1738.75 -1087.253)" fill="#ffb74d"/>
        <path id="Trazado_106499" data-name="Trazado 106499" d="M1864.886,1340.655s-.759,9.471-1.651,20.856c-1.213,15.466-5.829,54-5.829,54s.978,1.536-3.771.536a97.624,97.624,0,0,1-7.03-28.224q-.028-.371-.056-.746c-1.125-15.37-2.874-47.735-2.874-47.735Z" transform="translate(-1818.216 -1262.256)" fill="#8c6df2"/>
        <path id="Trazado_106500" data-name="Trazado 106500" d="M1865.145,1331.262s-1.018,12.744-1.911,24.129L1846.6,1381.7c-.019-.247-.037-.5-.056-.746-1.125-15.37-2.874-47.735-2.874-47.735Z" transform="translate(-1818.216 -1256.136)" fill="#5038a1"/>
        <path id="Trazado_106501" data-name="Trazado 106501" d="M1816.065,1314.073l-28.584,82.24s-2.989-.563-3.659-1.885c0,0-.822-34.78,4.02-43.171,2.736-4.741,4.129-18.033,4.319-22.531.565-13.371,1.984-16.994,1.984-16.994Z" transform="translate(-1772.846 -1241.345)" fill="#8c6df2"/>
        <g id="Grupo_83557" data-name="Grupo 83557" transform="translate(32.845 151.557)">
          <path id="Trazado_106502" data-name="Trazado 106502" d="M1876.008,1654.695h2.327c.779-.123,1.355-.348,2.154-.453a2.158,2.158,0,0,1,1.884.453.307.307,0,0,1,.022.023h9.885c.249-.355.01-1.178-.224-1.783a1.406,1.406,0,0,0-.926-.846,10.664,10.664,0,0,1-5.008-2.287c-1.065-.962-5.142-3.538-5.142-3.538l-.021,0c-.09,0-.516.132-2.37,1.7-.959.808-2.593-1.141-2.593-1.141a2.323,2.323,0,0,0-.536.726,2.455,2.455,0,0,0-.212,1.518,9.842,9.842,0,0,1-.708,3.666c-.231.678-.425,1.16-.425,1.16S1874.006,1654.444,1876.008,1654.695Z" transform="translate(-1874.116 -1646.259)" fill="#23393d"/>
          <path id="Trazado_106503" data-name="Trazado 106503" d="M1876.013,1674.914h2.317c.78-.123,1.361-.381,2.16-.486a2.158,2.158,0,0,1,1.884.453.258.258,0,0,1,.022.023h9.885c.249-.355.01-1.178-.224-1.783-.3-.267-.385,1.159-.551,1.387s-8.065.083-8.521-.249a4.771,4.771,0,0,0-3.732-.456c-1.66.4-4.107-.62-4.712-.891-.23.678-.425,1.16-.425,1.16S1874.011,1674.664,1876.013,1674.914Z" transform="translate(-1874.117 -1666.445)" fill="#233862"/>
        </g>
        <g id="Grupo_83558" data-name="Grupo 83558" transform="translate(9.083 151.557)">
          <path id="Trazado_106504" data-name="Trazado 106504" d="M1778.075,1654.695h2.327c.78-.123,1.355-.348,2.155-.453a2.158,2.158,0,0,1,1.884.453.258.258,0,0,1,.022.023h9.886c.249-.355.01-1.178-.224-1.783a1.406,1.406,0,0,0-.926-.846,10.663,10.663,0,0,1-5.008-2.287c-1.065-.962-5.142-3.538-5.142-3.538l-.021,0c-.089,0-.516.132-2.37,1.7-.959.808-2.592-1.141-2.592-1.141a2.32,2.32,0,0,0-.536.726,2.454,2.454,0,0,0-.212,1.518,9.848,9.848,0,0,1-.708,3.666c-.23.678-.425,1.16-.425,1.16S1776.073,1654.444,1778.075,1654.695Z" transform="translate(-1776.183 -1646.259)" fill="#23393d"/>
          <path id="Trazado_106505" data-name="Trazado 106505" d="M1778.079,1674.914h2.317c.78-.123,1.361-.381,2.16-.486a2.158,2.158,0,0,1,1.884.453.258.258,0,0,1,.022.023h9.886c.249-.355.01-1.178-.224-1.783-.3-.267-.385,1.159-.551,1.387s-8.065.083-8.521-.249a4.769,4.769,0,0,0-3.732-.456c-1.66.4-4.107-.62-4.712-.891-.23.678-.425,1.16-.425,1.16S1776.077,1674.664,1778.079,1674.914Z" transform="translate(-1776.183 -1666.445)" fill="#233862"/>
        </g>
        <path id="Trazado_106506" data-name="Trazado 106506" d="M1844.47,1083.63s9.263,4.559,14.616,2.869a12.841,12.841,0,0,0-3.615-2.947c.131-.779.236-1.491.319-2.125a33.353,33.353,0,0,0,.308-3.6l-5.677-4.576-1.273-1.026a16.143,16.143,0,0,1-.174,3.019c-.01.073-.021.146-.033.218A13.407,13.407,0,0,1,1844.47,1083.63Z" transform="translate(-1818.818 -1059.95)" fill="#f2beb7"/>
        <path id="Trazado_106507" data-name="Trazado 106507" d="M1822.683,1161.055c-.027.59,1.188,1.238,1.715,1.474a45,45,0,0,0,6.894,2.524,30.487,30.487,0,0,0,4.963.9c4.96.509,10.821-.609,12.832-.581a.875.875,0,0,0,.563-.214c.134-.108.241-6.166.134-13.806,0-.294,0-.617-.026-.912v-.107c-.027-2.976-.136-6.113-.27-9.221-.294-6.863-.829-13.484-1.743-17.158-1.072-4.315-5.126-9.719-7.82-11.2-2.279-1.252-9.77-2.564-10.145-2.3-4.4,3.284-6.819,13-6.778,24.033,0,.347,0,.7.009,1.049.02,1.139.061,2.292.127,3.451a147.778,147.778,0,0,1-.293,19.3C1822.765,1159.472,1822.7,1160.409,1822.683,1161.055Z" transform="translate(-1802.317 -1088.882)" fill="#5038a1"/>
        <path id="Trazado_106508" data-name="Trazado 106508" d="M1862.706,1078.579s.015.029.046.084c.358.642,2.805,4.78,6.849,5.966a33.312,33.312,0,0,0,.308-3.6l-5.677-4.576a15.92,15.92,0,0,0-1.447,1.993C1862.734,1078.532,1862.706,1078.579,1862.706,1078.579Z" transform="translate(-1832.63 -1063.153)" fill="#eda8a2"/>
        <path id="Trazado_106509" data-name="Trazado 106509" d="M1866.129,1049.124s-8.842,1.469-9.672-4.052-2.53-9.049,3.08-10.22,7.027.77,7.752,2.545S1868.408,1048.6,1866.129,1049.124Z" transform="translate(-1827.212 -1031.377)" fill="#f2beb7"/>
        <path id="Trazado_106510" data-name="Trazado 106510" d="M1847,1033.914s-1.174-1.186-.5-1.933,1.068.391,1.6.356,1.494-1.6,1.565-3.024,5.206.749,7.27.073,3.872-3.435.646-4.922c-1.9-.874-11.372-5.374-14.969-.808-4.585,5.82,1.538,11.919,2.357,12.844s1.286.652,1.286.652S1847.7,1035.2,1847,1033.914Z" transform="translate(-1816.136 -1021.64)" fill="#4a190c"/>
        <path id="Trazado_106511" data-name="Trazado 106511" d="M1847.086,1025.146a6.1,6.1,0,0,1,.5-2.241,8.247,8.247,0,0,0,.142,1.755C1847.893,1025.253,1847.086,1025.146,1847.086,1025.146Z" transform="translate(-1820.8 -1022.598)" fill="#4a190c"/>
        <path id="Trazado_106512" data-name="Trazado 106512" d="M1843.229,1028.237s1.114.12,1.184,1l-.4.521A1.642,1.642,0,0,0,1843.229,1028.237Z" transform="translate(-1817.878 -1026.636)" fill="#4a190c"/>
        <g id="Grupo_83559" data-name="Grupo 83559" transform="translate(19.881 22.949)">
          <path id="Trazado_106513" data-name="Trazado 106513" d="M1821.307,1144.908l-.274-1.686a14.975,14.975,0,0,0,9.857-5.854,19.077,19.077,0,0,0,3.56-8.733c.813-6.046-.778-9.487-4.865-10.521-3.66-.926-7.89,1.934-7.932,1.963l-.968-1.407c.2-.137,4.9-3.329,9.319-2.212,3.444.871,7.3,3.731,6.138,12.4a20.627,20.627,0,0,1-3.892,9.537A16.631,16.631,0,0,1,1821.307,1144.908Z" transform="translate(-1820.686 -1116.222)" fill="#ffb74d"/>
        </g>
        <path id="Trazado_106514" data-name="Trazado 106514" d="M1889.723,1271.012s1.168-.594,1.805-.88,1.879-1.051,1.975-.51.605,1.593-.573,1.784A9.767,9.767,0,0,1,1889.723,1271.012Z" transform="translate(-1853.091 -1209.309)" fill="#f2beb7"/>
        <g id="Grupo_83560" data-name="Grupo 83560" transform="translate(37.9 55.364)">
          <path id="Rectángulo_8228" data-name="Rectángulo 8228" d="M1.03,0h.311A1.03,1.03,0,0,1,2.37,1.03v0a1.03,1.03,0,0,1-1.03,1.03H1.03A1.03,1.03,0,0,1,0,1.03v0A1.03,1.03,0,0,1,1.03,0Z" transform="translate(7.15 2.65) rotate(-163.455)" fill="#eb594c"/>
          <path id="Trazado_106515" data-name="Trazado 106515" d="M1897.86,1254.134l-2.861,9.632a1.24,1.24,0,0,0,.833,1.537l3.655,1.086a1.24,1.24,0,0,0,1.537-.833l2.861-9.632a1.241,1.241,0,0,0-.833-1.538l-3.655-1.085A1.24,1.24,0,0,0,1897.86,1254.134Z" transform="translate(-1894.949 -1252.416)" fill="#cadeff"/>
          <path id="Trazado_106516" data-name="Trazado 106516" d="M1897.745,1258.5l-2.745,9.242a1.24,1.24,0,0,0,.833,1.537l3.655,1.086a1.24,1.24,0,0,0,1.537-.833l2.688-9.052a8.11,8.11,0,0,0-2.675-.493C1900.167,1260.049,1898.527,1259.03,1897.745,1258.5Z" transform="translate(-1894.949 -1256.395)" fill="#95bec9"/>
          <rect id="Rectángulo_8229" data-name="Rectángulo 8229" width="6.289" height="6.3" transform="translate(6.772 10.8) rotate(-163.46)" fill="#eb594c"/>
        </g>
        <path id="Trazado_106517" data-name="Trazado 106517" d="M1822.549,1190.394c-1.641-.41-3.118.595-5.4.233,0,0-11.311-7.934-13.293-9.916-1.435-1.434,4.322-7.9,7.321-12.929a1.263,1.263,0,0,1-.455-.161c-2.293-1.359-6.9-3.825-10.7-4.215a1.248,1.248,0,0,1-.4-.111,63.262,63.262,0,0,0-5.7,18.954,2.674,2.674,0,0,0,.915,2.314c2.789,2.41,10.435,6.679,19.627,9.324a12.824,12.824,0,0,0,4.013,1.75c1.971.369,2.785-.724,5.647.921,1.319.759,1.734-.857,1.572-1.694C1825.466,1193.734,1824.379,1190.852,1822.549,1190.394Z" transform="translate(-1780.516 -1128.924)" fill="#f2beb7"/>
        <path id="Trazado_106518" data-name="Trazado 106518" d="M1817.671,1125.256a31.471,31.471,0,0,0-6.887,11.028s4.386,3.822,12.6,4.587c0,0,3.371-6.2.907-9.344A42.353,42.353,0,0,0,1817.671,1125.256Z" transform="translate(-1793.306 -1100.115)" fill="#5038a1"/>
      </g>
      <g id="Grupo_83569" data-name="Grupo 83569" transform="translate(1801.96 681.062)">
        <g id="Grupo_83562" data-name="Grupo 83562" transform="translate(70.779 44.617)">
          <path id="Trazado_106519" data-name="Trazado 106519" d="M2913.771,1228.464s-.253,11.99.334,15.488-.77,19.77-.77,19.77l-2.808-.352s-7.027-26.578-6.31-29.99S2913.771,1228.464,2913.771,1228.464Z" transform="translate(-2904.167 -1228.464)" fill="#f2beb7"/>
          <g id="Grupo_83561" data-name="Grupo 83561" transform="translate(6.071 34.906)">
            <path id="Trazado_106520" data-name="Trazado 106520" d="M2932.285,1372.674s1.084,3.64.825,4.335a10.723,10.723,0,0,1-2.778,3.033c-1.138.884-.136-2.33.081-3.372s-1.46-1.117-1.2-2.733l.262-1.616Z" transform="translate(-2929.188 -1372.322)" fill="#f2beb7"/>
            <path id="Trazado_106521" data-name="Trazado 106521" d="M2929.221,1378.982s.007,3.012-.025,3.607.593.053.68-.471a2.588,2.588,0,0,1,.891-1.471C2931.033,1380.573,2929.221,1378.982,2929.221,1378.982Z" transform="translate(-2929.194 -1377.366)" fill="#f2beb7"/>
          </g>
        </g>
        <path id="Trazado_106522" data-name="Trazado 106522" d="M2857.582,1382.284c1.009,10.163,4.659,25.778,4.659,25.778l2.835-2.044s4.992-35.042,5.807-37.891a183.807,183.807,0,0,0,6.309-39.259l-16.57-4.89a22.631,22.631,0,0,0-2.6,12.8C2859.763,1359.832,2856.373,1370.11,2857.582,1382.284Z" transform="translate(-2797.905 -1256.185)" fill="#2b9799"/>
        <path id="Trazado_106523" data-name="Trazado 106523" d="M2783.389,1374.854a4.332,4.332,0,0,1-.916,2.23c-.2.249-.765.906-.977.672s.594-2,.116-3.084C2781.442,1374.282,2783.389,1374.854,2783.389,1374.854Z" transform="translate(-2740.455 -1294.476)" fill="#f2beb7"/>
        <path id="Trazado_106524" data-name="Trazado 106524" d="M2882.354,1657.857a1.137,1.137,0,0,0-.748-.683,8.618,8.618,0,0,1-4.045-1.848c-.86-.777-4.154-2.858-4.154-2.858l-.018,0c-.072,0-.416.107-1.914,1.372-.775.652-2.095-.922-2.095-.922a1.885,1.885,0,0,0-.433.587,1.987,1.987,0,0,0-.171,1.226,7.957,7.957,0,0,1-.572,2.962c-.186.548-.343.937-.343.937s-.09.452,1.528.654h1.88c.63-.1,1.095-.282,1.741-.366a1.742,1.742,0,0,1,1.522.366l.018.019h7.986C2882.736,1659.01,2882.543,1658.346,2882.354,1657.857Z" transform="translate(-2805.89 -1504.968)" fill="#333"/>
        <path id="Trazado_106525" data-name="Trazado 106525" d="M2819.279,1379.151c1.01,10.163,4.44,26.112,4.44,26.112l2.506.808s5.542-38.228,6.356-41.078c5.663-19.8,6.539-43.316,6.539-43.316l-16.8-.833a22.63,22.63,0,0,0-2.6,12.8C2821.46,1356.7,2818.07,1366.978,2819.279,1379.151Z" transform="translate(-2768.895 -1253.813)" fill="#63aab4"/>
        <path id="Trazado_106526" data-name="Trazado 106526" d="M2843.333,1657.857a1.136,1.136,0,0,0-.748-.683,8.617,8.617,0,0,1-4.045-1.848c-.86-.777-4.154-2.858-4.154-2.858l-.018,0c-.072,0-.417.107-1.915,1.372-.775.652-2.026-.963-2.026-.963a1.935,1.935,0,0,0-.673,1.854,7.953,7.953,0,0,1-.572,2.962c-.186.548-.343.937-.343.937s-.09.452,1.528.654h1.88c.63-.1,1.094-.282,1.74-.366a1.742,1.742,0,0,1,1.522.366.182.182,0,0,1,.017.019h7.986C2843.715,1659.01,2843.522,1658.346,2843.333,1657.857Z" transform="translate(-2776.337 -1504.968)" fill="#333"/>
        <g id="Grupo_83568" data-name="Grupo 83568" transform="translate(0 81.51)">
          <path id="Trazado_106527" data-name="Trazado 106527" d="M2644.909,1658.831a2.824,2.824,0,0,1-1.545,3.746,2.97,2.97,0,0,1-3.856-1.5,2.824,2.824,0,0,1,1.545-3.747A2.97,2.97,0,0,1,2644.909,1658.831Z" transform="translate(-2632.766 -1589.988)" fill="#333"/>
          <path id="Trazado_106528" data-name="Trazado 106528" d="M2731.766,1658.819a2.824,2.824,0,0,1-1.545,3.747,2.97,2.97,0,0,1-3.857-1.5,2.824,2.824,0,0,1,1.545-3.746A2.971,2.971,0,0,1,2731.766,1658.819Z" transform="translate(-2698.547 -1589.98)" fill="#333"/>
          <path id="Trazado_106529" data-name="Trazado 106529" d="M2637.473,1654.258l4.178,1.457a3.874,3.874,0,0,0,1.318.216l23.7-.236,2.588-4.168Z" transform="translate(-2631.405 -1585.769)" fill="#23393d"/>
          <g id="Grupo_83563" data-name="Grupo 83563" transform="translate(18.584)">
            <path id="Trazado_106530" data-name="Trazado 106530" d="M2690,1402.964l6.622-15.99.008-.031c.04-.143,1.071-3.577,7.038-4.345l.027,0,4.907-.9c.635-.162,2.467-.435,3.305.253a1.568,1.568,0,0,1,.461,1.46c-.123,1.341-4.53,11.709-7.462,18.351l.939.391c.753-1.706,7.364-16.725,7.541-18.654a2.5,2.5,0,0,0-.821-2.308c-1.371-1.122-3.933-.525-4.2-.457l-4.84.885c-6.425.832-7.738,4.608-7.869,5.042l-6.6,15.936Z" transform="translate(-2689.052 -1380.512)" fill="#23393d"/>
          </g>
          <path id="Trazado_106531" data-name="Trazado 106531" d="M2737.011,1453.532l12.792,2.484s3.73,1.474,2.99,7.824c-.651,5.587-3.506,36.939-3.506,36.939s-.6,6.524-14.94,4.632Z" transform="translate(-2704.773 -1435.815)" fill="#8c6df2"/>
          <path id="Trazado_106532" data-name="Trazado 106532" d="M2651.791,1461.96l-3.44,35.111a7.776,7.776,0,0,1-1.456,3.82,8.235,8.235,0,0,1-6.624,3.361l-11.865.072-.293,0-7.43.045a8.449,8.449,0,0,1-2.153-.264q-.241-.062-.474-.137a8.073,8.073,0,0,1-5.284-5.364,7.68,7.68,0,0,1-.21-3.39l5.388-33.594a8.074,8.074,0,0,1,7.293-6.676l2.1-.195.5-.046h0l.42-.039,7-.651.86-.079,6.76-.627a8.4,8.4,0,0,1,3.042.272c.063.018.125.036.188.056l.391.13A7.927,7.927,0,0,1,2651.791,1461.96Z" transform="translate(-2612.462 -1435.618)" fill="#5038a1"/>
          <g id="Grupo_83567" data-name="Grupo 83567" transform="translate(3.288 17.963)">
            <g id="Grupo_83564" data-name="Grupo 83564" transform="translate(0 1.086)">
              <path id="Trazado_106533" data-name="Trazado 106533" d="M2638.521,1459.018c-.052.031-5.555,3.288-6.278,6.15-.743,2.942-5.711,37.223-5.761,37.569a7.822,7.822,0,0,0,2.688,5.809l-.377-.088q-.241-.062-.474-.137a7.006,7.006,0,0,1-2.28-5.644c.2-1.415,5.022-34.651,5.77-37.613.656-2.6,4.535-5.182,5.792-5.963l.5-.046h0Z" transform="translate(-2626.012 -1459.018)" fill="#23393d"/>
            </g>
            <g id="Grupo_83565" data-name="Grupo 83565" transform="translate(11.582 0.356)">
              <path id="Trazado_106534" data-name="Trazado 106534" d="M2682.537,1456.008a10.4,10.4,0,0,0-4.458,6.87c-.756,4.83-3.709,39.916-3.739,40.269l0,.026-.008.024a3.814,3.814,0,0,0,.789,3.2l-.3,0-.294,0a3.666,3.666,0,0,1-.631-3.31c.092-1.085,2.991-35.484,3.742-40.275a10.777,10.777,0,0,1,4.041-6.726Z" transform="translate(-2673.745 -1456.008)" fill="#23393d"/>
            </g>
            <g id="Grupo_83566" data-name="Grupo 83566" transform="translate(22.574)">
              <path id="Trazado_106535" data-name="Trazado 106535" d="M2727.226,1454.728a9.261,9.261,0,0,0-2.151,1.727,9.787,9.787,0,0,0-2.424,5.117c-.756,4.828-3.1,39.8-3.122,40.148v.028l-.009.025a5.2,5.2,0,0,0,1.106,3.444l-.748,0a5.522,5.522,0,0,1-.794-3.554c.075-1.118,2.374-35.37,3.124-40.161a9.921,9.921,0,0,1,4.44-6.964c.063.018.125.036.188.056Z" transform="translate(-2719.045 -1454.542)" fill="#23393d"/>
            </g>
          </g>
        </g>
        <path id="Trazado_106536" data-name="Trazado 106536" d="M2834.1,1205.936c-1.463,1.71-14.235,1.381-17.112.742q-2.958-.657-4.587-6.23c-.359,2.592-1.169,5.632-2.981,5.82-2.969.308-4.2-.2-4.554-1.33-.059-.183.545-8.019,1.068-15.9.362-5.433.686-10.891.729-13.873.005-.375.005-.709,0-1a45.427,45.427,0,0,0-6.551-.054,40.662,40.662,0,0,1,7.38-13.133c4.757-5.436,16.1-3.822,20.692-2.464,2.9.856,5.632,3.968,4.217,10.555-.831,3.876.354,10.1.828,19.265C2833.691,1197.142,2834.42,1205.57,2834.1,1205.936Z" transform="translate(-2754.586 -1129.864)" fill="#ffdc72"/>
        <path id="Trazado_106537" data-name="Trazado 106537" d="M2923.169,1168.006s3.552,2.9,5.59,15.976c0,0-1.146,1.582-4.544,1.157S2923.169,1168.006,2923.169,1168.006Z" transform="translate(-2847.179 -1138.058)" fill="#ffb74d"/>
        <path id="Trazado_106538" data-name="Trazado 106538" d="M2857.712,1057.726s-8.237-9.355-12.286-3.109c0,0-3.112,1.394-4.1,6.783-1.009,5.5,2.742,9.553,4.593,8.473,1.187-.692,2.159,1.392,2.159,1.392Z" transform="translate(-2785.667 -1050.555)" fill="#4a190c"/>
        <path id="Trazado_106539" data-name="Trazado 106539" d="M2834.281,1047.649s-1.191-4.256-7.449-2.741c0,0,3-.464,3.862.674,0,0-2.419-1.027-3.89-.07s-1.63,4.045-1.38,4.976,1.979,3.676,3.073,3.645a5.037,5.037,0,0,0,2.362-1.026Z" transform="translate(-2773.678 -1044.581)" fill="#4a190c"/>
        <path id="Trazado_106540" data-name="Trazado 106540" d="M2867.148,1132.586c-.169-.93.76-2.564.6-7.748l.4.068,6.78,1.147s.158,5.512.209,7.511C2875.179,1135.23,2867.02,1134.066,2867.148,1132.586Z" transform="translate(-2805.336 -1105.365)" fill="#f2beb7"/>
        <path id="Trazado_106541" data-name="Trazado 106541" d="M2878.114,1126.265s.06,2,.112,4c-3.776,0-6.021-3.259-6.891-5.144Z" transform="translate(-2808.522 -1105.577)" fill="#eda8a2"/>
        <path id="Trazado_106542" data-name="Trazado 106542" d="M2859.965,1078.577a19.838,19.838,0,0,1-2.613-5.727c-.392-1.9.382-8.994,7.514-8.174a9.652,9.652,0,0,1,4.045,1.4c1.572,1,3.86,3.186,1.544,9.424l-.588,2.1Z" transform="translate(-2797.87 -1059.751)" fill="#4a190c"/>
        <path id="Trazado_106543" data-name="Trazado 106543" d="M2875.616,1090.749s-8.923.4-9.084-5.164-1.422-9.254,4.268-9.742,6.859,1.6,7.364,3.444S2877.932,1090.5,2875.616,1090.749Z" transform="translate(-2804.711 -1068.203)" fill="#f2beb7"/>
        <path id="Trazado_106544" data-name="Trazado 106544" d="M2866.106,1071.7s-2.262,6.592-5.986,7.661-5.379.109-5.379.109a10.625,10.625,0,0,0,3.3-6.372S2864.176,1068.645,2866.106,1071.7Z" transform="translate(-2795.955 -1064.308)" fill="#4a190c"/>
        <path id="Trazado_106545" data-name="Trazado 106545" d="M2899.145,1073.832a7.885,7.885,0,0,1,2.35,2.809c.484,1.4.766,4.313,1.613,4.19,0,0,1.718-4.485-.421-6.936C2900.418,1071.3,2899.145,1073.832,2899.145,1073.832Z" transform="translate(-2829.585 -1065.895)" fill="#4a190c"/>
        <path id="Trazado_106546" data-name="Trazado 106546" d="M2881.145,1072.685s-1.551,6.88-6.222,9.2c0,0,4.615-4.329,4.892-8.85S2881.145,1072.685,2881.145,1072.685Z" transform="translate(-2811.24 -1064.537)" fill="#4a190c"/>
        <path id="Trazado_106547" data-name="Trazado 106547" d="M2772.8,1356.465s-2.231,2.6-2.472,3.948-.115,4.957.571,5.087c.733.138,1.166-2.365,1.4-2.857.8-1.658,2.364-.881,2.573-1.476a29.054,29.054,0,0,0,.417-3.452Z" transform="translate(-2731.939 -1280.79)" fill="#f2beb7"/>
        <path id="Trazado_106548" data-name="Trazado 106548" d="M2788.416,1209.464s-6.029,11.752-6.369,16.675-1.177,18.993-1.177,18.993l2.49,1.251s5.167-18.545,5.483-21.351c.352-3.129,10.576-13.506,10.576-13.506Z" transform="translate(-2740.008 -1169.457)" fill="#f2beb7"/>
        <path id="Trazado_106549" data-name="Trazado 106549" d="M2813.718,1190.834h-9l-4.6,8.758s7.334,6.068,14.639,3.6S2813.718,1190.834,2813.718,1190.834Z" transform="translate(-2754.584 -1155.348)" fill="#ffb74d"/>
      </g>
      <path id="Trazado_106550" data-name="Trazado 106550" d="M1941.909,1679.829H1542.683c-.213,0-.387-.283-.387-.629h0c0-.346.174-.629.387-.629h399.226c.213,0,.387.283.387.629h0C1942.3,1679.546,1942.122,1679.829,1941.909,1679.829Z" transform="translate(0 -843.679)" fill="#5038a1"/>
      <g id="Grupo_83577" data-name="Grupo 83577" transform="translate(1680.465 677.16)">
        <path id="Trazado_106551" data-name="Trazado 106551" d="M2288.257,1325.787s.513.594.81.955a3.14,3.14,0,0,1,.467,1.975c-.191.234-1.4.573-1.444-.149S2288.257,1325.787,2288.257,1325.787Z" transform="translate(-2245.297 -1253.654)" fill="#f2beb7"/>
        <path id="Trazado_106552" data-name="Trazado 106552" d="M2465.884,1302.388s1.111,2.5,3.228,3.009c2.588.618,3.72,3.87,3.72,4.617s-3.311-1.679-4.617-1.725-2.005.62-2.891-1.112a39.545,39.545,0,0,0-2.005-3.411Z" transform="translate(-2378.013 -1235.932)" fill="#f2beb7"/>
        <path id="Trazado_106553" data-name="Trazado 106553" d="M2301.637,1158.349a6.871,6.871,0,0,0,3.113-.686c11.2-5.559.8-43.747.8-43.747a4.058,4.058,0,0,0-2.564-2.643,28.514,28.514,0,0,0-4.56-.392c-6.695-.487-7.027,3.425-7.262,4.8C2290.911,1117.068,2285.587,1158.271,2301.637,1158.349Z" transform="translate(-2246.837 -1090.861)" fill="#5038a1"/>
        <path id="Trazado_106554" data-name="Trazado 106554" d="M2324.649,1159.017c11.2-5.559.8-43.747.8-43.747a4.739,4.739,0,0,0-2.564-2.643c-4.326,1.136-5.226,3.19-5.461,4.4C2317.21,1118.323,2312.63,1153.693,2324.649,1159.017Z" transform="translate(-2266.736 -1092.214)" fill="#372479"/>
        <g id="Grupo_83570" data-name="Grupo 83570" transform="translate(34.871 71.074)">
          <path id="Trazado_106555" data-name="Trazado 106555" d="M2383.908,1648.954s-.622,4.977.5,5.537,14.5.373,14.5.373,0-1.68-2.3-2.053-6.346-1.742-7.031-4.791S2383.908,1648.954,2383.908,1648.954Z" transform="translate(-2352.611 -1567.904)" fill="#30545d"/>
          <path id="Trazado_106556" data-name="Trazado 106556" d="M2368.387,1338.112s-.756,9.432-1.645,20.77c-1.208,15.4-2.66,34.32-2.8,37.9-.249,6.224-1.245,16.178-1.245,16.178s-2.363,2.365-7.094,1.368a162.874,162.874,0,0,1-5.419-29.247l-.056-.743c-1.12-15.306-2.861-47.537-2.861-47.537Z" transform="translate(-2324.989 -1333.072)" fill="#dee4f0"/>
          <path id="Trazado_106557" data-name="Trazado 106557" d="M2368.387,1338.112s-.756,9.432-1.645,20.77l-16.561,26.2-.056-.743c-1.12-15.306-2.861-47.537-2.861-47.537Z" transform="translate(-2324.989 -1333.072)" fill="#f3f9ff"/>
          <path id="Trazado_106558" data-name="Trazado 106558" d="M2295.405,1327.58s-13.626,34.159-22.586,50.213-11.76,20.533-11.76,20.533-5.133-2.053-5.6-3.453c0,0,3.426-30.991,9.427-38.546,3.39-4.269,7.373-17.08,7.56-21.56s1.214-13.346,1.214-13.346Z" transform="translate(-2255.459 -1321.42)" fill="#dee4f0"/>
        </g>
        <path id="Trazado_106559" data-name="Trazado 106559" d="M2360.733,1096.551c-5.326,1.679-14.538-2.857-14.538-2.857a13.309,13.309,0,0,0,4.413-7.92s0,0,0,0a16.277,16.277,0,0,0,.24-3.422l4.982,4.016,1.932,1.557s-.005.528-.087,1.5-.234,2.405-.538,4.2A12.74,12.74,0,0,1,2360.733,1096.551Z" transform="translate(-2289.308 -1069.284)" fill="#f2beb7"/>
        <path id="Trazado_106560" data-name="Trazado 106560" d="M2376.621,1186.236a4.333,4.333,0,0,0,1.425-1.729s-9.63-13.192-10.442-14.48-6.881-21.939-6.881-21.939l-15.348-3.109s12.811,26.43,14.933,29.652c3.507,5.324,14.524,12.584,14.524,12.584A5.517,5.517,0,0,0,2376.621,1186.236Z" transform="translate(-2288.687 -1116.716)" fill="#1e1245"/>
        <path id="Trazado_106561" data-name="Trazado 106561" d="M2326.217,1170.468c-.02.313.333.665.744.939a7.138,7.138,0,0,0,.959.529q1.762.793,3.464,1.41a31.883,31.883,0,0,0,8.319,1.977,48.882,48.882,0,0,0,9.219-.254c1.488-.177,2.7-.313,3.445-.313h.1a.853.853,0,0,0,.568-.215c.118-.078.216-4.737.156-11,0-.881-.019-1.781-.019-2.721a7.239,7.239,0,0,0-.039-.919v-.1c-.02-2.936-.118-6.048-.255-9.121v-.059c-.293-6.831-.822-13.408-1.741-17.068-.833-3.38-4.177-7.177-6.648-9.66a9.8,9.8,0,0,0-4.032-2.441c-2.637-.824-6.713-1.927-7.563-1.19a8.76,8.76,0,0,0-1.762,1.918c-.039.019-.039.019-.039.039h-.02a15.334,15.334,0,0,0-1.214,2.114,25.43,25.43,0,0,0-1.566,4.247,58.786,58.786,0,0,0-1.762,15.463c0,1.468.039,2.955.137,4.462.019.431.039.842.059,1.253.176,3.739.156,7.2.059,10.237v.1c-.1,3.074-.274,5.677-.411,7.615C2326.295,1168.882,2326.236,1169.821,2326.217,1170.468Z" transform="translate(-2274.176 -1097.812)" fill="#1e1245"/>
        <path id="Trazado_106562" data-name="Trazado 106562" d="M2326.853,1218.9a146.988,146.988,0,0,0,.292-19.2c-.085-1.508-.13-3-.136-4.476,1.822-4.419,3.31-7.624,3.31-7.624h4.592S2338.277,1210.593,2326.853,1218.9Z" transform="translate(-2274.659 -1148.996)" fill="#23393d"/>
        <path id="Trazado_106563" data-name="Trazado 106563" d="M2371.53,1098.6s-.005.527-.087,1.5a13.174,13.174,0,0,1-7.066-3.647l0,0h0l5.221.594Z" transform="translate(-2303.076 -1079.966)" fill="#eda8a2"/>
        <path id="Trazado_106564" data-name="Trazado 106564" d="M2367.735,1059.373s-8.8,1.461-9.621-4.03-2.517-9,3.064-10.166,6.989.766,7.71,2.532S2370,1058.851,2367.735,1059.373Z" transform="translate(-2297.653 -1040.861)" fill="#f2beb7"/>
        <path id="Trazado_106565" data-name="Trazado 106565" d="M2354.212,1042.452s.9-.151.757-1.394-.144-2.868.867-2.565,1.061,1.112,1.477.64.423-2.464,3.43-2.6,4.23.908,5.628.293,1.472-2.732,1.472-2.732a2.408,2.408,0,0,1-1,1s2.333-3.191-.368-5.38-5.456-.756-7.02-.661c-3.444.208-5.669.415-6.794,2.678S2352,1040.273,2354.212,1042.452Z" transform="translate(-2293.759 -1028.499)" fill="#4a190c"/>
        <g id="Grupo_83576" data-name="Grupo 83576" transform="translate(0 74.172)">
          <path id="Trazado_106566" data-name="Trazado 106566" d="M2148.981,1653.616a3.241,3.241,0,0,1-1.773,4.3,3.409,3.409,0,0,1-4.426-1.723,3.242,3.242,0,0,1,1.773-4.3A3.41,3.41,0,0,1,2148.981,1653.616Z" transform="translate(-2135.043 -1574.605)" fill="#333"/>
          <path id="Trazado_106567" data-name="Trazado 106567" d="M2248.667,1653.6a3.241,3.241,0,0,1-1.773,4.3,3.409,3.409,0,0,1-4.426-1.723,3.241,3.241,0,0,1,1.773-4.3A3.409,3.409,0,0,1,2248.667,1653.6Z" transform="translate(-2210.542 -1574.595)" fill="#333"/>
          <path id="Trazado_106568" data-name="Trazado 106568" d="M2140.447,1648.368l4.794,1.673a4.474,4.474,0,0,0,1.512.248l27.206-.271,2.97-4.783Z" transform="translate(-2133.482 -1569.763)" fill="#23393d"/>
          <g id="Grupo_83571" data-name="Grupo 83571" transform="translate(21.329)">
            <path id="Trazado_106569" data-name="Trazado 106569" d="M2200.732,1359.957l7.6-18.353.01-.035c.046-.165,1.229-4.105,8.077-4.987l.031,0,5.633-1.031c.728-.186,2.831-.5,3.793.29a1.8,1.8,0,0,1,.529,1.676c-.141,1.539-5.2,13.439-8.564,21.062l1.077.449c.865-1.958,8.451-19.195,8.654-21.409a2.868,2.868,0,0,0-.942-2.649c-1.574-1.288-4.514-.6-4.826-.525l-5.555,1.015c-7.374.955-8.881,5.288-9.031,5.786l-7.573,18.29Z" transform="translate(-2199.644 -1334.188)" fill="#23393d"/>
          </g>
          <path id="Trazado_106570" data-name="Trazado 106570" d="M2254.686,1417.993l14.682,2.851s4.281,1.692,3.432,8.98c-.747,6.413-4.023,42.4-4.023,42.4s-.684,7.488-17.147,5.316Z" transform="translate(-2217.688 -1397.659)" fill="#ffb74d"/>
          <path id="Trazado_106571" data-name="Trazado 106571" d="M2156.879,1427.666l-3.948,40.3a8.919,8.919,0,0,1-1.67,4.384,9.45,9.45,0,0,1-7.6,3.858l-13.617.082-.337,0-8.528.051a9.666,9.666,0,0,1-2.471-.3q-.276-.071-.544-.156a9.264,9.264,0,0,1-6.065-6.156,8.812,8.812,0,0,1-.241-3.891l6.184-38.556a9.266,9.266,0,0,1,8.37-7.663l2.405-.224.573-.052h0l.482-.045,8.04-.747.987-.091,7.758-.72a9.635,9.635,0,0,1,3.492.312c.072.02.144.041.215.064l.449.149A9.1,9.1,0,0,1,2156.879,1427.666Z" transform="translate(-2111.741 -1397.434)" fill="#ffdc72"/>
          <g id="Grupo_83575" data-name="Grupo 83575" transform="translate(3.773 20.616)">
            <g id="Grupo_83572" data-name="Grupo 83572" transform="translate(0 1.246)">
              <path id="Trazado_106572" data-name="Trazado 106572" d="M2141.649,1424.289c-.06.036-6.375,3.774-7.206,7.059-.853,3.376-6.555,42.721-6.612,43.119a8.984,8.984,0,0,0,3.085,6.667l-.433-.1c-.184-.047-.365-.1-.544-.157a8.041,8.041,0,0,1-2.617-6.478c.234-1.624,5.764-39.769,6.622-43.168.753-2.978,5.205-5.948,6.648-6.843l.573-.052h0Z" transform="translate(-2127.292 -1424.289)" fill="#23393d"/>
            </g>
            <g id="Grupo_83573" data-name="Grupo 83573" transform="translate(13.293 0.408)">
              <path id="Trazado_106573" data-name="Trazado 106573" d="M2192.167,1420.835a11.942,11.942,0,0,0-5.117,7.884c-.868,5.544-4.258,45.812-4.292,46.217l0,.029-.009.027a4.376,4.376,0,0,0,.9,3.67l-.342,0-.337,0a4.206,4.206,0,0,1-.725-3.8c.105-1.245,3.433-40.724,4.294-46.224a12.372,12.372,0,0,1,4.638-7.719Z" transform="translate(-2182.076 -1420.835)" fill="#23393d"/>
            </g>
            <g id="Grupo_83574" data-name="Grupo 83574" transform="translate(25.908)">
              <path id="Trazado_106574" data-name="Trazado 106574" d="M2243.456,1419.366a10.616,10.616,0,0,0-2.469,1.981,11.238,11.238,0,0,0-2.782,5.873c-.867,5.541-3.555,45.675-3.583,46.078v.032l-.01.028a5.971,5.971,0,0,0,1.27,3.952l-.858.005a6.333,6.333,0,0,1-.911-4.078c.086-1.283,2.724-40.594,3.585-46.093a11.384,11.384,0,0,1,5.1-7.992c.072.021.144.041.215.064Z" transform="translate(-2234.067 -1419.153)" fill="#23393d"/>
            </g>
          </g>
        </g>
        <path id="Trazado_106575" data-name="Trazado 106575" d="M2276.713,1302.627l-1.915,4.686a2.593,2.593,0,0,0-.067,1.741,4.308,4.308,0,0,1-2.192,5.288s-1.716.857-1.988-.473.036-.848-.39-2.717c-.373-1.635.472-2.644,1.025-3.774a4.968,4.968,0,0,0,.42-1.568l.388-2.948Z" transform="translate(-2231.654 -1236.113)" fill="#f2beb7"/>
        <path id="Trazado_106576" data-name="Trazado 106576" d="M2273.419,1183.019a15.062,15.062,0,0,0,3.446.192s4.909-15.163,5.541-16.548,14.58-16.78,14.58-16.78l-8.836-12.084s-12.062,21.743-13.594,25.284c-2.531,5.851-3.41,18.97-3.41,18.97A6.315,6.315,0,0,0,2273.419,1183.019Z" transform="translate(-2232.468 -1111.278)" fill="#1e1245"/>
        <path id="Trazado_106577" data-name="Trazado 106577" d="M2328.3,1166.834v.1a15.615,15.615,0,0,0,6.479-3.269,24.537,24.537,0,0,0,7.223-11.177c2.271-6.674,2.447-13.838,1.292-17.362a5.993,5.993,0,0,0-.528-1.174,8.629,8.629,0,0,0-1.605-2,11.236,11.236,0,0,0-6.166-2.779,13.6,13.6,0,0,0-1.39-.118c-.548-.02-.9,0-1,0h-.02c-1.138.32-2.014,1.116-1.214,2.114a8.817,8.817,0,0,1,1-.039,9.915,9.915,0,0,1,3.582.49,7.208,7.208,0,0,1,3.778,2.779c2.427,3.405,1.9,8.28,1.9,8.28a40.7,40.7,0,0,1-1.1,6.87,25.873,25.873,0,0,1-4.854,10.218,15.2,15.2,0,0,1-7.329,5.288,4.338,4.338,0,0,0-.129.924A2.591,2.591,0,0,0,2328.3,1166.834Z" transform="translate(-2275.692 -1104.651)" fill="#372479"/>
        <path id="Trazado_106578" data-name="Trazado 106578" d="M2472.287,1323.39a4.137,4.137,0,0,0,1.479,1.393c.77.3,1.988,1.3,2.1,1.032s-.07-.734-.525-1.061-.594-.735-.478-.979S2472.287,1323.39,2472.287,1323.39Z" transform="translate(-2384.805 -1251.838)" fill="#f2beb7"/>
      </g>
    </g>
  </g>
</svg>
