<svg xmlns="http://www.w3.org/2000/svg" xmlns:xlink="http://www.w3.org/1999/xlink" width="576.566" height="227.75" viewBox="0 0 576.566 227.75">
  <defs>
    <clipPath id="clip-path">
      <rect id="Rectángulo_8215" data-name="Rectángulo 8215" width="45.023" height="42.193" fill="none"/>
    </clipPath>
  </defs>
  <g id="Grupo_83548" data-name="Grupo 83548" transform="translate(-92.504 -443.023)">
    <g id="Grupo_83547" data-name="Grupo 83547" transform="translate(92.504 443.023)">
      <path id="Trazado_106359" data-name="Trazado 106359" d="M121.884,670.289s-47.959-86.5,8.493-127.78c31.5-23.034,69.241-6.776,101.181-68.6,18.587-35.979,83.633-46.9,116.16,2.221s63.039,57.3,85.481,48.213c25.738-10.42,37.045-41.784,77.333-35.152,46.564,7.666,43.045,70.35,77.357,62.257,66.168-15.605,114.639,72.752,68.9,118.657Z" transform="translate(-100.754 -443.023)" fill="#f5f2ff"/>
      <path id="Trazado_106360" data-name="Trazado 106360" d="M1333.63,834.079l-.006,1.074s.292,3.357-3.842,3.848-7.266-1.309-7.154-3.9a30.426,30.426,0,0,0,.809-5.044,11.708,11.708,0,0,0-.147-2.01l8.011-.16,2.359.386Z" transform="translate(-1070.672 -749.058)" fill="#ffb27d"/>
      <path id="Trazado_106361" data-name="Trazado 106361" d="M1336.242,828.271l-.031,5.807a6.774,6.774,0,0,1-2.888.637c-3.682,0-6.062-2.7-7.305-4.66a11.7,11.7,0,0,0-.147-2.01l8.011-.16Z" transform="translate(-1073.253 -749.058)" fill="#e8945b"/>
      <path id="Trazado_106362" data-name="Trazado 106362" d="M1329.245,777.8s-10.26,2.073-11.453-4.337-3.32-10.458,3.181-12.053,8.232.614,9.15,2.656S1331.883,777.092,1329.245,777.8Z" transform="translate(-1065.789 -695.762)" fill="#ffb27d"/>
      <path id="Trazado_106363" data-name="Trazado 106363" d="M1375.825,865.872s2.445,13.089,5.112,26.762c2.9,14.862,9.953,29.066,10.565,29.622.85.773,4,.687,3.015-.608-1.383-1.809-1.885-14.755-2.567-22.514a30.29,30.29,0,0,0-1.055-4.7c-1.09-4.9-1.451-21.34-4.721-24.065S1375.825,865.872,1375.825,865.872Z" transform="translate(-1112.976 -779.264)" fill="#ffb27d"/>
      <path id="Trazado_106364" data-name="Trazado 106364" d="M1375.825,865.872s1.409,7.544,3.255,17.159c.585,3.051,1.215,6.31,1.857,9.6,2.613,5.122,4.856,8.6,5.548,7.949,1.413-1.334,3.894-1.5,5.465-1.449a38.434,38.434,0,0,0-.573-4.412c-.086-.387-.167-.852-.246-1.381-.914-6.171-1.432-21.086-4.444-23.595C1383.418,867.022,1375.825,865.872,1375.825,865.872Z" transform="translate(-1112.976 -779.264)" fill="#415da5"/>
      <path id="Trazado_106365" data-name="Trazado 106365" d="M1391.716,916.252c.585,3.051,1.214,6.31,1.857,9.6,2.613,5.122,4.856,8.6,5.548,7.949,1.413-1.334,3.894-1.5,5.465-1.449a38.4,38.4,0,0,0-.573-4.412c-.086-.387-.167-.852-.246-1.381l-7.834-18.912Z" transform="translate(-1125.612 -812.485)" fill="#2b478b"/>
      <path id="Trazado_106366" data-name="Trazado 106366" d="M1306.208,1519.88a18.573,18.573,0,0,0-1.271-4.763c-.888-1.776-6.538-.646-6.538-.646s-1.13.969-1.372,5.489Z" transform="translate(-1050.316 -1294.736)" fill="#233862"/>
      <path id="Trazado_106367" data-name="Trazado 106367" d="M1432.8,1505.389c-1.328-.81-.572-6.856-.572-6.856s6.187-4.95,7.037-1.16,5.878,5.491,8.739,5.955a3.071,3.071,0,0,1,2.776,2.061Z" transform="translate(-1157.654 -1280.285)" fill="#233862"/>
      <path id="Trazado_106368" data-name="Trazado 106368" d="M1337.974,1148.215a28.6,28.6,0,0,1,.454,3.342c.575,11.219,11.176,35.987,12.763,36.586,2.454.926,4.587-.161,6.609-.8a1.734,1.734,0,0,0,1.217-1.97c-4.392-20.19-6.006-49.262-6.593-66.474a78.117,78.117,0,0,0-1.785-14.658s-21.629-5.771-21.757,1.529C1328.767,1112.224,1336.045,1137.558,1337.974,1148.215Z" transform="translate(-1075.646 -967.083)" fill="#2b478b"/>
      <path id="Trazado_106369" data-name="Trazado 106369" d="M1337.974,1148.215l14.449-29.322a78.117,78.117,0,0,0-1.785-14.658s-21.629-5.771-21.757,1.529C1328.767,1112.224,1336.045,1137.558,1337.974,1148.215Z" transform="translate(-1075.646 -967.083)" fill="#233862"/>
      <path id="Trazado_106370" data-name="Trazado 106370" d="M1302.583,1110l-11.434,82.872s-5.021,1.211-8.927.242c0,0-3.348-44.075-3.069-54.73s-2.4-28.512.612-30.482S1302.583,1110,1302.583,1110Z" transform="translate(-1035.442 -971.291)" fill="#2b478b"/>
      <path id="Trazado_106371" data-name="Trazado 106371" d="M1281.6,915.849c-.037.96-.256,1.774.7,1.788l18.018.275,10.437-1.253c.62.011,1.459-3.493,1.419-35.822-.01-7.214-11.179-14.977-11.385-14.977l0,0c0,1.039-1.637,2.957-4.159,3.121-2.993.2-6.666-1.293-6.666-3.017a8.016,8.016,0,0,0-.907,1.171c-1.494,2.177-4.5,7.486-6.426,16.727-1.517,7.3-.059,17.059-1.151,29.648C1281.4,914.421,1281.625,915.211,1281.6,915.849Z" transform="translate(-1037.942 -779.255)" fill="#fff"/>
      <path id="Trazado_106372" data-name="Trazado 106372" d="M1277.788,917.738a36.7,36.7,0,0,0,6.875,2,67.756,67.756,0,0,0,13.32,1.338c8.758.056,12.075-2.963,12.075-2.963.62.011-1.041-6.863-1.081-39.193-.01-7.214-11.477-13.061-11.683-13.061l0,0s.287,9.607-2.619,12.432c0,0-4.076-3.148-9.363-12.108-1.494,2.177-4.738,6.105-6.659,15.346-.39,1.881-.158,6.255-.335,8.467-.51,6.376-.4,14.162-1.207,23.509-.08.909.037,1.717.015,2.354C1277.085,916.822,1276.827,917.723,1277.788,917.738Z" transform="translate(-1034.442 -779.255)" fill="#415da5"/>
      <path id="Trazado_106373" data-name="Trazado 106373" d="M1277.788,987.949a36.692,36.692,0,0,0,6.875,2c1.41-2.149,3.186-6.029,3.432-12.142.416-10.338-9.4-23.652-9.4-23.652l-.374,6.055c-.51,6.377-.4,14.162-1.207,23.509-.08.909.037,1.717.015,2.354C1277.085,987.033,1276.827,987.934,1277.788,987.949Z" transform="translate(-1034.442 -849.466)" fill="#2b478b"/>
      <g id="Grupo_83518" data-name="Grupo 83518" transform="translate(265.538 100.782)">
        <path id="Rectángulo_8203" data-name="Rectángulo 8203" d="M1.691,0H4.4A1.691,1.691,0,0,1,6.087,1.691v0A1.691,1.691,0,0,1,4.4,3.382h-2.7A1.691,1.691,0,0,1,0,1.691v0A1.691,1.691,0,0,1,1.691,0Z" transform="translate(0 0.339) rotate(-3.195)" fill="#2b478b"/>
        <rect id="Rectángulo_8204" data-name="Rectángulo 8204" width="1.594" height="2.137" transform="matrix(-0.998, 0.056, -0.056, -0.998, 5.481, 2.769)" fill="#e9f2ff"/>
        <path id="Trazado_106374" data-name="Trazado 106374" d="M1392.707,939.477l1.981-.111a.268.268,0,0,0,.252-.282h0a.268.268,0,0,0-.282-.252l-1.981.111a.268.268,0,0,0-.252.282h0A.268.268,0,0,0,1392.707,939.477Z" transform="translate(-1391.714 -938.063)" fill="#e9f2ff"/>
        <path id="Trazado_106375" data-name="Trazado 106375" d="M1392.78,944.33l2.312-.129a.1.1,0,0,0,.1-.107h0a.1.1,0,0,0-.107-.1l-2.312.129a.1.1,0,0,0-.1.107h0A.1.1,0,0,0,1392.78,944.33Z" transform="translate(-1391.91 -942.17)" fill="#e9f2ff"/>
        <path id="Trazado_106376" data-name="Trazado 106376" d="M1392.87,945.942l2.311-.129a.1.1,0,0,0,.1-.107h0a.1.1,0,0,0-.107-.1l-2.312.129a.1.1,0,0,0-.1.107h0A.1.1,0,0,0,1392.87,945.942Z" transform="translate(-1391.982 -943.452)" fill="#e9f2ff"/>
      </g>
      <path id="Trazado_106377" data-name="Trazado 106377" d="M1374.091,926.129l-.276-.038.541-3.907a.684.684,0,0,0-.2-.586l1.7-12.275a.358.358,0,0,0-.71-.1l-1.7,12.275a.683.683,0,0,0-.355.509l-.54,3.907-.247-.034.048-.346-.869-.12-.048.346-.921-.127a.581.581,0,0,0-.655.5L1368.3,937.4a.581.581,0,0,0,.5.655l3.581.5a.581.581,0,0,0,.655-.5l1.559-11.267A.58.58,0,0,0,1374.091,926.129Z" transform="translate(-1106.985 -813.491)" fill="#233862"/>
      <path id="Trazado_106378" data-name="Trazado 106378" d="M1244.471,904.1s2.346.851,8.207.249a89.336,89.336,0,0,0,16.109-3.244l-1.867-3.188s-7.633-.337-13.224-1.155c-1.392-.2-3.171-.5-4.16-.768-1.216-.326,5.331-15.551,8.375-24.544.726-2.146,1.282-3.933,1.529-5.072,0,0-.532.086-1.367.251-2.37.467-6.488,2.734-8.538,4.284C1246.763,873.012,1240.226,894.967,1244.471,904.1Z" transform="translate(-1007.416 -779.669)" fill="#ffb27d"/>
      <path id="Trazado_106379" data-name="Trazado 106379" d="M1358.452,1010.966s2.586-2.422,3.585-2.422,4.086.183,4.427.972c.805,1.858-1.2,3.55-2.026,3.872a19.742,19.742,0,0,1-3.753.807C1359.8,1014.275,1357.629,1013.791,1358.452,1010.966Z" transform="translate(-1099.016 -892.714)" fill="#ffb27d"/>
      <path id="Trazado_106380" data-name="Trazado 106380" d="M1239.39,905.471a51.647,51.647,0,0,0,9.288-.268,11.1,11.1,0,0,1,1.018-7.587,33.421,33.421,0,0,1-3.647-.7c-1.216-.326,5.19-14.661,8.234-23.654a39.814,39.814,0,0,0,0-5.81l-.209.032c-2.37.467-7.185,1.567-9.235,3.117C1242.065,872.694,1235.144,896.334,1239.39,905.471Z" transform="translate(-1003.416 -780.519)" fill="#415da5"/>
      <path id="Trazado_106381" data-name="Trazado 106381" d="M1317.285,874.544s-8.153-3.592-8.274-3.875a6.458,6.458,0,0,1,.969-3.108s-3.915.363-4.157-.121a32.875,32.875,0,0,1-.323-4.52,6.244,6.244,0,0,1,3.552-1.776s1.767,4.381,2.422,5.691A40.428,40.428,0,0,0,1317.285,874.544Z" transform="translate(-1057.054 -775.505)" fill="#2b478b"/>
      <path id="Trazado_106382" data-name="Trazado 106382" d="M1364.977,867.5a27.189,27.189,0,0,1-1.937,7.1s4.258-2.967,4.621-3.935-1.029-2.846-1.029-2.846,2.543-.06,2.6-.908a27.252,27.252,0,0,0-.787-4.178s-2.079-1.576-2.684-1.516Z" transform="translate(-1102.809 -775.568)" fill="#2b478b"/>
      <path id="Trazado_106383" data-name="Trazado 106383" d="M1321.123,744.819a21.508,21.508,0,0,1-6.236-1.687c-2.739-1.191-6.195.121-7.316.712a1.671,1.671,0,0,1,.274-.675,1.5,1.5,0,0,0-.578.856c-.052.038-.075.065-.062.073a1.931,1.931,0,0,0-.938.06s.257-.036.348.128a.156.156,0,0,0,.041.046c-4.273,2.064-4.667,8.817-3.292,10.379a34.275,34.275,0,0,1,3.638,6.113,3.629,3.629,0,0,0,.422-2.654c-.3-1.654,1.128-1.654,2.933-2.406s.3-2.857,1.88-4.136,7.369-.526,7.294-1.5C1321.68,749.342,1321.123,745.039,1321.123,744.819Z" transform="translate(-1054.794 -681.279)" fill="#233862"/>
      <path id="Trazado_106384" data-name="Trazado 106384" d="M1454.3,1130.7s3.248,3.778,1.952,6.29a3.452,3.452,0,0,1-4.583,1.007c-1.077-.778,1.109-1.708.513-2.889s-1.272-4.6-.721-5.721S1454.3,1130.7,1454.3,1130.7Z" transform="translate(-1172.958 -988.573)" fill="#ffb27d"/>
      <g id="Grupo_83531" data-name="Grupo 83531" transform="translate(315.68 145.654)">
        <g id="Grupo_83521" data-name="Grupo 83521" transform="translate(175.673 0.627)">
          <g id="Grupo_83519" data-name="Grupo 83519" transform="translate(0 10.781)">
            <path id="Trazado_106385" data-name="Trazado 106385" d="M2520.8,1225.274a42.879,42.879,0,0,1-29.349-11.646l3.705-3.562-1.853,1.781,1.848-1.786a34.27,34.27,0,0,0,7.568,5.421,37.486,37.486,0,0,0,20.328,4.586c17.165-1,24.835-10.118,24.91-10.21l3.973,3.26c-.366.447-9.2,10.95-28.584,12.081Q2522.055,1225.275,2520.8,1225.274Z" transform="translate(-2491.455 -1209.858)" fill="#8c6df2"/>
          </g>
          <g id="Grupo_83520" data-name="Grupo 83520" transform="translate(55.991)">
            <path id="Trazado_106386" data-name="Trazado 106386" d="M2770.853,1158.659v77.426a1.515,1.515,0,0,1-1.573,1.438h-2.928a1.51,1.51,0,0,1-1.531-1.437v-77.426a1.509,1.509,0,0,1,1.531-1.437h2.928A1.515,1.515,0,0,1,2770.853,1158.659Z" transform="translate(-2764.821 -1157.221)" fill="#8c6df2"/>
            <path id="Trazado_106387" data-name="Trazado 106387" d="M2767.88,1158.664v77.426a1.533,1.533,0,0,1-3.059,0v-77.426a1.533,1.533,0,0,1,3.059,0Z" transform="translate(-2764.821 -1157.226)" fill="#6d52c9" opacity="0.5"/>
          </g>
        </g>
        <g id="Grupo_83524" data-name="Grupo 83524" transform="translate(118.499 0.627)">
          <g id="Grupo_83522" data-name="Grupo 83522" transform="translate(0 10.781)">
            <path id="Trazado_106388" data-name="Trazado 106388" d="M2241.665,1225.274a42.879,42.879,0,0,1-29.349-11.646l3.705-3.562-1.853,1.781,1.848-1.786a34.25,34.25,0,0,0,7.568,5.421,37.487,37.487,0,0,0,20.328,4.586c17.166-1,24.835-10.118,24.91-10.21l3.973,3.26c-.367.447-9.2,10.95-28.584,12.081Q2242.916,1225.275,2241.665,1225.274Z" transform="translate(-2212.316 -1209.858)" fill="#8c6df2"/>
          </g>
          <g id="Grupo_83523" data-name="Grupo 83523" transform="translate(55.991)">
            <path id="Trazado_106389" data-name="Trazado 106389" d="M2491.715,1158.659v77.426a1.515,1.515,0,0,1-1.573,1.438h-2.928a1.509,1.509,0,0,1-1.53-1.437v-77.426a1.509,1.509,0,0,1,1.53-1.437h2.928A1.515,1.515,0,0,1,2491.715,1158.659Z" transform="translate(-2485.683 -1157.221)" fill="#8c6df2"/>
            <path id="Trazado_106390" data-name="Trazado 106390" d="M2488.742,1158.664v77.426a1.532,1.532,0,0,1-3.059,0v-77.426a1.532,1.532,0,0,1,3.059,0Z" transform="translate(-2485.683 -1157.226)" fill="#6d52c9" opacity="0.5"/>
          </g>
        </g>
        <g id="Grupo_83527" data-name="Grupo 83527" transform="translate(60.382 0.627)">
          <g id="Grupo_83525" data-name="Grupo 83525" transform="translate(0 10.781)">
            <path id="Trazado_106391" data-name="Trazado 106391" d="M1957.916,1225.274a42.88,42.88,0,0,1-29.349-11.646l3.705-3.562-1.853,1.781,1.849-1.786a34.265,34.265,0,0,0,7.568,5.421,37.486,37.486,0,0,0,20.328,4.586c17.165-1,24.835-10.118,24.91-10.21l3.973,3.26c-.366.447-9.2,10.95-28.584,12.081Q1959.167,1225.275,1957.916,1225.274Z" transform="translate(-1928.567 -1209.858)" fill="#8c6df2"/>
          </g>
          <g id="Grupo_83526" data-name="Grupo 83526" transform="translate(55.991)">
            <path id="Trazado_106392" data-name="Trazado 106392" d="M2207.965,1158.659v77.426a1.515,1.515,0,0,1-1.573,1.438h-2.928a1.509,1.509,0,0,1-1.53-1.437v-77.426a1.509,1.509,0,0,1,1.53-1.437h2.928A1.515,1.515,0,0,1,2207.965,1158.659Z" transform="translate(-2201.934 -1157.221)" fill="#8c6df2"/>
            <path id="Trazado_106393" data-name="Trazado 106393" d="M2204.993,1158.664v77.426a1.532,1.532,0,0,1-3.059,0v-77.426a1.532,1.532,0,0,1,3.059,0Z" transform="translate(-2201.934 -1157.226)" fill="#5038a1" opacity="0.5"/>
          </g>
        </g>
        <g id="Grupo_83530" data-name="Grupo 83530">
          <g id="Grupo_83528" data-name="Grupo 83528" transform="translate(2.227 10.782)">
            <path id="Trazado_106394" data-name="Trazado 106394" d="M1673.983,1222.213a42.877,42.877,0,0,1-29.349-11.646l3.705-3.562-1.853,1.781,1.848-1.785a34.262,34.262,0,0,0,7.568,5.421,37.484,37.484,0,0,0,20.328,4.585c17.165-1,24.835-10.118,24.91-10.21l3.974,3.26c-.366.447-9.2,10.95-28.584,12.081Q1675.234,1222.214,1673.983,1222.213Z" transform="translate(-1644.634 -1206.797)" fill="#8c6df2"/>
          </g>
          <g id="Grupo_83529" data-name="Grupo 83529">
            <path id="Trazado_106395" data-name="Trazado 106395" d="M1639.792,1155.6v77.425a1.515,1.515,0,0,1-1.573,1.438h-2.885a1.515,1.515,0,0,1-1.573-1.438V1155.6a1.515,1.515,0,0,1,1.573-1.438h2.885A1.515,1.515,0,0,1,1639.792,1155.6Z" transform="translate(-1633.761 -1154.158)" fill="#8c6df2"/>
            <path id="Trazado_106396" data-name="Trazado 106396" d="M1637.236,1155.6v77.425a1.515,1.515,0,0,1-1.574,1.438h-.328a1.515,1.515,0,0,1-1.573-1.438V1155.6a1.515,1.515,0,0,1,1.573-1.438h.328A1.515,1.515,0,0,1,1637.236,1155.6Z" transform="translate(-1633.761 -1154.158)" fill="#5038a1"/>
            <path id="Trazado_106397" data-name="Trazado 106397" d="M1924.031,1155.6v77.425a1.515,1.515,0,0,1-1.573,1.438h-2.928a1.509,1.509,0,0,1-1.53-1.437V1155.6a1.509,1.509,0,0,1,1.53-1.437h2.928A1.515,1.515,0,0,1,1924.031,1155.6Z" transform="translate(-1859.782 -1154.158)" fill="#8c6df2"/>
            <path id="Trazado_106398" data-name="Trazado 106398" d="M1921.059,1155.6v77.426a1.532,1.532,0,0,1-3.059,0V1155.6a1.532,1.532,0,0,1,3.059,0Z" transform="translate(-1859.782 -1154.164)" fill="#5038a1"/>
          </g>
        </g>
      </g>
      <g id="Grupo_83541" data-name="Grupo 83541" transform="translate(21.412 98.323)">
        <rect id="Rectángulo_8205" data-name="Rectángulo 8205" width="187.771" height="38.402" transform="translate(2.874 89.776)" fill="#5038a1"/>
        <rect id="Rectángulo_8206" data-name="Rectángulo 8206" width="188.024" height="7.169" transform="translate(0 85.983)" fill="#8c6df2"/>
        <g id="Grupo_83534" data-name="Grupo 83534" transform="translate(237.652 49.869)">
          <path id="Trazado_106399" data-name="Trazado 106399" d="M1387.139,1173.692a4.832,4.832,0,0,0-2.209-4.181,18.783,18.783,0,0,0-11.583-2.92c-9.076.576-11.094,5.619-11.382,9.509s-3.314,9.509-4.034,13.831-1.924,15.318,4.506,16.181,27.977,0,27.977,0,5.021-5.885,0-17.189A35.7,35.7,0,0,1,1387.139,1173.692Z" transform="translate(-1357.343 -1166.548)" fill="#ffdc72"/>
          <g id="Grupo_83533" data-name="Grupo 83533" transform="translate(4.385)">
            <g id="Grupo_83532" data-name="Grupo 83532">
              <path id="Trazado_106400" data-name="Trazado 106400" d="M1408.547,1173.692a4.833,4.833,0,0,0-2.209-4.181,18.784,18.784,0,0,0-11.583-2.92c-9.077.576-11.094,5.619-11.382,9.509s-3.314,9.509-4.034,13.831-1.924,15.318,4.505,16.181,27.913.128,27.913.128,5.085-6.013.064-17.318A35.7,35.7,0,0,1,1408.547,1173.692Z" transform="translate(-1378.751 -1166.548)" fill="#ffb74d"/>
              <path id="Trazado_106401" data-name="Trazado 106401" d="M1397.505,1288.449h12.871s.864,9.413-5.283,9.7S1397.313,1294.5,1397.505,1288.449Z" transform="translate(-1393.652 -1263.481)" fill="#aa413e"/>
              <path id="Trazado_106402" data-name="Trazado 106402" d="M1397.563,1288.449a7.75,7.75,0,0,0,6.243,3.266,9.659,9.659,0,0,0,6.628-3.266Z" transform="translate(-1393.71 -1263.481)" fill="#b64c41"/>
              <path id="Trazado_106403" data-name="Trazado 106403" d="M1473.1,1288.449h12.871s.865,9.413-5.283,9.7S1472.907,1294.5,1473.1,1288.449Z" transform="translate(-1453.763 -1263.481)" fill="#aa413e"/>
              <path id="Trazado_106404" data-name="Trazado 106404" d="M1473.157,1288.449a7.75,7.75,0,0,0,6.243,3.266,9.659,9.659,0,0,0,6.627-3.266Z" transform="translate(-1453.821 -1263.481)" fill="#b64c41"/>
              <path id="Rectángulo_8207" data-name="Rectángulo 8207" d="M5.763,0h6.844A5.763,5.763,0,0,1,18.37,5.763v0a5.763,5.763,0,0,1-5.763,5.763H5.763A5.763,5.763,0,0,1,0,5.763v0A5.763,5.763,0,0,1,5.763,0Z" transform="translate(8.655 6.166)" fill="#ffdc72"/>
              <path id="Trazado_106405" data-name="Trazado 106405" d="M1423.59,1194.36s3.062,4.66,8.655,4.527,9.187-4.527,9.187-4.527Z" transform="translate(-1414.406 -1188.663)" fill="#ffdc72"/>
            </g>
          </g>
        </g>
        <path id="Rectángulo_8208" data-name="Rectángulo 8208" d="M72.274,0h0a0,0,0,0,1,0,0V111.571a0,0,0,0,1,0,0H0a0,0,0,0,1,0,0v-39.3A72.274,72.274,0,0,1,72.274,0Z" transform="translate(53.644 16.607)" fill="#5038a1"/>
        <path id="Trazado_106406" data-name="Trazado 106406" d="M1005.82,1004.342H960.459v83.638h71.193v-57.806A25.832,25.832,0,0,0,1005.82,1004.342Z" transform="translate(-804.097 -987.696)" fill="#8c6df2"/>
        <path id="Trazado_106407" data-name="Trazado 106407" d="M758.892,1003.954v111.611H696.706v-85.781c0-14.267,10.1-25.83,22.562-25.83Z" transform="translate(-594.366 -987.387)" fill="#8c6df2"/>
        <path id="Rectángulo_8209" data-name="Rectángulo 8209" d="M0,0H27.072A20.421,20.421,0,0,1,47.493,20.421V72.845a0,0,0,0,1,0,0H0a0,0,0,0,1,0,0V0A0,0,0,0,1,0,0Z" transform="translate(156.361 27.44)" fill="#739af0"/>
        <path id="Trazado_106408" data-name="Trazado 106408" d="M937.5,1057.041a4.183,4.183,0,0,0-4.183,4.182v68.662h47.493v-72.845Z" transform="translate(-782.518 -1029.601)" fill="#ffdc72"/>
        <path id="Trazado_106409" data-name="Trazado 106409" d="M1157.243,1056.932h-4.1V1129.8h8.027v-68.94A3.927,3.927,0,0,0,1157.243,1056.932Z" transform="translate(-957.315 -1029.514)" fill="#ffb74d" opacity="0.5"/>
        <rect id="Rectángulo_8210" data-name="Rectángulo 8210" width="187.771" height="38.402" transform="translate(123.718 89.776)" fill="#e8e2ff"/>
        <rect id="Rectángulo_8211" data-name="Rectángulo 8211" width="51.701" height="38.402" transform="translate(311.489 89.776)" fill="#e8e2ff"/>
        <path id="Trazado_106410" data-name="Trazado 106410" d="M718.084,1361.387l-21.377,14.129v24.273h21.377Z" transform="translate(-594.366 -1271.611)" fill="#6e51d0"/>
        <path id="Trazado_106411" data-name="Trazado 106411" d="M261.848,1377.867h-5.107l-45.663,30.179v4.847h50.77Z" transform="translate(-208.204 -1284.716)" fill="#6e51d0"/>
        <path id="Trazado_106464" data-name="Trazado 106464" d="M0,0H188.024V7.169H0Z" transform="translate(120.844 85.983)" fill="#5038a1"/>
        <path id="Trazado_106465" data-name="Trazado 106465" d="M0,0H57.759V7.169H0Z" transform="translate(366.627 93.152) rotate(180)" fill="#5038a1"/>
        <g id="Grupo_83535" data-name="Grupo 83535" transform="translate(155.642)">
          <path id="Rectángulo_8214" data-name="Rectángulo 8214" d="M6.964,0h0a6.964,6.964,0,0,1,6.964,6.964v9.558a0,0,0,0,1,0,0H0a0,0,0,0,1,0,0V6.964A6.964,6.964,0,0,1,6.964,0Z" fill="#ffdc72"/>
          <path id="Trazado_106412" data-name="Trazado 106412" d="M966.95,924.6a5.783,5.783,0,0,1,.438,2.212v3.294a7.425,7.425,0,0,1-7.425,7.425h-3.021v3.277H970.87V930.093A5.8,5.8,0,0,0,966.95,924.6Z" transform="translate(-956.942 -924.29)" fill="#ffb74d"/>
          <path id="Trazado_106413" data-name="Trazado 106413" d="M966.157,932.244c-.995,1.351-2.478,1.948-3.313,1.333s-.705-2.209.289-3.56,2.478-1.948,3.313-1.333S967.152,930.893,966.157,932.244Z" transform="translate(-961.197 -927.342)" fill="#ffb74d"/>
        </g>
        <g id="Grupo_83540" data-name="Grupo 83540" transform="translate(150.804 43.79)">
          <g id="Grupo_83539" data-name="Grupo 83539" clip-path="url(#clip-path)">
            <g id="Grupo_83538" data-name="Grupo 83538" transform="translate(-16.745 17.603)">
              <g id="Grupo_83536" data-name="Grupo 83536" transform="translate(0 4.082)">
                <path id="Trazado_106414" data-name="Trazado 106414" d="M866.42,1243.049h-8.93s-1.962.32-2.766,6.266-3.155,16.536-3.155,16.536h11.842Z" transform="translate(-851.569 -1242.986)" fill="#163560"/>
                <path id="Trazado_106415" data-name="Trazado 106415" d="M893.5,1265.6c1.034-.119,48.12,0,48.12,0s1.9-.267.211-8.347a9.158,9.158,0,0,1-.167-1.29c-.15-2.2.242-4.825.105-6.936,0,0,.6-6.764-8.419-6.2s-25.47.615-31.673-.029-7.613,4.179-7.331,7.208a15.225,15.225,0,0,1-.029,2.111C894.013,1256.777,892.628,1265.7,893.5,1265.6Z" transform="translate(-884.684 -1242.74)" fill="#1c468a"/>
              </g>
              <g id="Grupo_83537" data-name="Grupo 83537" transform="translate(21.433)">
                <path id="Trazado_106416" data-name="Trazado 106416" d="M957.556,1229.738c.03-.049,3.119-5.036,8.236-5.342,5.174-.312,10.339,4.768,10.39,4.819l1.11-1.111c-.23-.23-5.707-5.629-11.594-5.276-5.951.357-9.345,5.864-9.486,6.1Z" transform="translate(-956.212 -1222.811)" fill="#1c468a"/>
              </g>
            </g>
          </g>
        </g>
      </g>
      <g id="Grupo_83542" data-name="Grupo 83542" transform="translate(330.28 63.287)">
        <path id="Trazado_106417" data-name="Trazado 106417" d="M1840.738,1508.028s-.417,6.715-1.715,6.812c-.173.013-6.59.013-6.59.013h-8.283a2.84,2.84,0,0,1,2.54-2.438c2.394-.417,6.4-2.1,7.853-5.265C1836.068,1503.82,1840.738,1508.028,1840.738,1508.028Z" transform="translate(-1799.754 -1351.463)" fill="#163560"/>
        <path id="Trazado_106418" data-name="Trazado 106418" d="M1799.556,1196.816a17.07,17.07,0,0,1-4.434.833,16.28,16.28,0,0,1-4.14-.591,113.324,113.324,0,0,0-3.049-14.523c-1.353-5.236-3.284-11.968-6.032-20.333-7.6-23.119-9.909-36.644-10.119-37.925-.012-.067-.016-.1-.016-.1l.025-.011,23.359-10.256s-2.887,31.864.8,44.094a51.5,51.5,0,0,1,1.337,5.86C1799.61,1177.147,1799.556,1196.816,1799.556,1196.816Z" transform="translate(-1758.1 -1039.785)" fill="#ee9849"/>
        <path id="Trazado_106419" data-name="Trazado 106419" d="M1797.345,1163.863l-9.35,18.673c-1.353-5.236-3.284-11.968-6.032-20.333-7.6-23.119-9.909-36.644-10.119-37.925,0-.038,0-.074.009-.112l23.359-10.256s-2.887,31.864.8,44.094A51.5,51.5,0,0,1,1797.345,1163.863Z" transform="translate(-1758.162 -1039.785)" fill="#e58638"/>
        <path id="Trazado_106420" data-name="Trazado 106420" d="M1751.388,1508.028s-.417,6.715-1.716,6.812c-.173.013-14.943.268-14.943.268a3.13,3.13,0,0,1,2.611-2.694c2.394-.417,6.4-2.1,7.852-5.265C1746.718,1503.82,1751.388,1508.028,1751.388,1508.028Z" transform="translate(-1728.649 -1351.463)" fill="#163560"/>
        <path id="Trazado_106421" data-name="Trazado 106421" d="M1751.377,1117.575a332.528,332.528,0,0,0,3.269,46c3.572,25.352,2.361,36.114,2.361,36.114a24.341,24.341,0,0,0,3.445.876,15.636,15.636,0,0,0,5.111-.592s5.113-25.361,3.647-38.051,7-43.543,7-43.543Z" transform="translate(-1741.882 -1042.7)" fill="#ee9849"/>
        <path id="Trazado_106422" data-name="Trazado 106422" d="M1842.452,877.709s12.063,12.249,12.651,17.012-5.822,12.215-5.822,12.215Z" transform="translate(-1814.308 -851.964)" fill="#163560"/>
        <path id="Trazado_106423" data-name="Trazado 106423" d="M1788.994,842.034l-4.559,2.989-6.588-1.228c.091-.532.526-2.736.922-4.733.024-.118.048-.235.07-.351.34-1.7.632-3.158.632-3.158l6.154-2.715,2.294-1.012c-.006.036-.178,1.885-.2,2.155A15.688,15.688,0,0,0,1788.994,842.034Z" transform="translate(-1762.936 -815.478)" fill="#ffb27d"/>
        <path id="Trazado_106424" data-name="Trazado 106424" d="M1774.786,866.189c.128-.054,9-2.4,9.846-2.12s1.35,1.921,1.35,1.921l-12.768,2.887A2.939,2.939,0,0,1,1774.786,866.189Z" transform="translate(-1759.251 -841.099)" fill="#163560"/>
        <path id="Trazado_106425" data-name="Trazado 106425" d="M1773.817,925.808c-1.323,6.036-23.344,6.752-29.021,1.273-.646-.625-.677-3.53-.434-7.448.476-7.654,2.006-19.168,2.065-25.051a46.6,46.6,0,0,1,.94-8.385,68.1,68.1,0,0,1,2.793-10.036s10.756-3.477,12.768-2.886C1772.625,876.124,1775.14,919.772,1773.817,925.808Z" transform="translate(-1736.198 -848.384)" fill="#1c468a"/>
        <path id="Trazado_106426" data-name="Trazado 106426" d="M1744.906,965.629c.476-7.654,2.006-19.168,2.065-25.051a46.6,46.6,0,0,1,.94-8.385l6.47-1.142S1760.707,956.889,1744.906,965.629Z" transform="translate(-1736.742 -894.38)" fill="#163560"/>
        <path id="Trazado_106427" data-name="Trazado 106427" d="M1754.859,1043.876a1.523,1.523,0,0,1-.485,1.762,2.951,2.951,0,0,0-1.315,2.692c.212.838,2.244,2.205,2.948,1.985s1.98-.79,1.983-1.766c0-.468.964-3.879-.753-5.2A1.385,1.385,0,0,0,1754.859,1043.876Z" transform="translate(-1743.191 -983.297)" fill="#ffb27d"/>
        <path id="Trazado_106428" data-name="Trazado 106428" d="M1723.969,881.493s-6.331.889-11.359,8.3-8.335,12.919-7.409,15.589,9.369,11.932,10.824,11.932,3.8-1.058,3.937-3.44c0,0-5.632-8.932-4.461-10.266.5-.57,7.4-6.406,8.435-3.759C1725.64,904.225,1723.969,881.493,1723.969,881.493Z" transform="translate(-1705.045 -854.973)" fill="#1c468a"/>
        <path id="Trazado_106429" data-name="Trazado 106429" d="M1790.837,837.993c-1.351,2.289-6.387,4.268-8.487,5,.024-.118.048-.235.07-.351.34-1.7.632-3.158.632-3.158l6.154-2.715C1790.566,836.746,1791.394,837.051,1790.837,837.993Z" transform="translate(-1766.516 -819.405)" fill="#fca56b"/>
        <path id="Trazado_106430" data-name="Trazado 106430" d="M1769.644,784.859s9.912,3.092,11.743-3.11,4.343-9.98-1.909-12.217-8.185-.235-9.3,1.687S1767.113,783.9,1769.644,784.859Z" transform="translate(-1755.428 -765.158)" fill="#ffb27d"/>
        <path id="Trazado_106431" data-name="Trazado 106431" d="M1775.347,757.474s.632,7.218,2.125,6.9,2.846-.545,2.628,1.63-2.288,4.688,2.312,5.073,11.213-11.478,9.949-13.724C1788.715,750.876,1770.077,749.568,1775.347,757.474Z" transform="translate(-1760.207 -752.011)" fill="#12263f"/>
      </g>
      <g id="Grupo_83546" data-name="Grupo 83546" transform="translate(429.767 66.436)">
        <path id="Trazado_106432" data-name="Trazado 106432" d="M2315.344,768.274c-1.536-.94-3.99.183-3.99.183.848-1.192,3.944-.8,3.944-.8-6.166-1.312-7.454,2.63-7.56,3-4.473-4.036-11.634,4.568-11.634,4.568l10.276,13.621s.937-2.167,2.176-1.49c1.931,1.055,5.665-3.213,4.472-8.828a14.877,14.877,0,0,0-.456-1.67,3.329,3.329,0,0,0,1.282.317c1.124,0,2.821-2.866,3.05-3.829S2316.881,769.214,2315.344,768.274Z" transform="translate(-2274.531 -767.389)" fill="#233862"/>
        <path id="Trazado_106433" data-name="Trazado 106433" d="M2359.9,936.57c-.227.552-1.215,1.042-2.638,1.395a23.906,23.906,0,0,1-12.488-.555c-4.205-1.557-7.256-23.784-8.552-35.176-.452-3.974-.692-6.63-.692-6.63s2.415-3.782,11.765-2.521,10.293,4.412,11.134,10.084S2360.63,934.783,2359.9,936.57Z" transform="translate(-2305.877 -867.133)" fill="#466aa5"/>
        <path id="Trazado_106434" data-name="Trazado 106434" d="M2359.943,948.171a23.906,23.906,0,0,1-12.489-.555c-4.205-1.557-7.256-23.784-8.552-35.176,1.108-3.92,1.987-6.5,1.987-6.5s11.739-1.418,14.023,2.127C2356.956,911.238,2359.441,941.759,2359.943,948.171Z" transform="translate(-2308.562 -877.34)" fill="#2b478b"/>
        <path id="Trazado_106435" data-name="Trazado 106435" d="M2231.916,947.106c-6.933.211-16.912-7.773-16.912-7.773l1.366-2.1c2.521,1.68,11.45,3.255,11.45,3.255-.625-2.02-1.1-3.889-1.46-5.613-2.423-11.715.8-16.776,1.741-17.953a2.966,2.966,0,0,1,.244-.279s.029.082.081.238c.115.336.344,1.013.646,1.946C2231.325,925.777,2237.71,946.932,2231.916,947.106Z" transform="translate(-2210.041 -886.074)" fill="#d9935c"/>
        <path id="Trazado_106436" data-name="Trazado 106436" d="M2298.04,917.948c-3.215-7.211-4.754-9.25-4.807-11.519-.042-1.794.842-3.73,2.56-8.477a17.679,17.679,0,0,0,.856-3.431c1.359-9.151-3.933-19.043-7.221-19.717-.915-.242-2.467-3.547-2.448-8.873l-.412.081-6.925,1.371s.157,2.18.162,4.233c0,1.711-.1,3.333-.486,3.537-.5.045-.793.075-.793.075s-5.774,8.02-6.26,15.478,4.625,10.7-.038,25.6C2267.467,931.531,2299.816,921.932,2298.04,917.948Z" transform="translate(-2255.163 -845.748)" fill="#d9935c"/>
        <path id="Trazado_106437" data-name="Trazado 106437" d="M2310.289,867.7s.158,2.18.163,4.233c3.875-.109,5.924-3.644,6.763-5.6Z" transform="translate(-2285.81 -846.062)" fill="#cb7d45"/>
        <path id="Trazado_106438" data-name="Trazado 106438" d="M2301,807.4a20.36,20.36,0,0,0,2.518-5.953c.348-1.959-.649-9.22-7.947-8.175a9.91,9.91,0,0,0-4.111,1.554c-1.584,1.07-3.871,3.38-1.314,9.716l.664,2.141Z" transform="translate(-2268.878 -787.89)" fill="#233862"/>
        <path id="Trazado_106439" data-name="Trazado 106439" d="M2292.116,822.447s9.169.151,9.175-5.56,1.194-9.538-4.66-9.877-6.994,1.84-7.46,3.746S2289.73,822.26,2292.116,822.447Z" transform="translate(-2268.93 -798.867)" fill="#d9935c"/>
        <path id="Trazado_106440" data-name="Trazado 106440" d="M2305.629,801s2.51,6.7,6.363,7.691,5.524-.041,5.524-.041a36.592,36.592,0,0,1-2.062-7.605S2307.522,797.816,2305.629,801Z" transform="translate(-2282.104 -793.002)" fill="#233862"/>
        <path id="Trazado_106441" data-name="Trazado 106441" d="M2290.642,804.878a8.1,8.1,0,0,0-2.332,2.95c-.457,1.454-.663,4.448-1.536,4.346,0,0-1.891-4.554.234-7.131C2289.263,802.312,2290.642,804.878,2290.642,804.878Z" transform="translate(-2266.495 -796.33)" fill="#233862"/>
        <path id="Trazado_106442" data-name="Trazado 106442" d="M2288.282,1196.5a90.6,90.6,0,0,1-5.779,16.212l-3.024-.21a85.5,85.5,0,0,0,1.4-16.585,69.45,69.45,0,0,0-3.517-22.057c-9.047-25.839-7.585-44.644-7.585-44.644l17.014,1.99.792.093c.071,7.813.273,18.422.449,26.718.156,7.461.293,13.049.293,13.049C2291.594,1178.112,2290.406,1188.056,2288.282,1196.5Z" transform="translate(-2253.524 -1055.107)" fill="#2b478b"/>
        <path id="Trazado_106443" data-name="Trazado 106443" d="M2376.8,959.387l-2.753.825s-9.081-15.066-9.906-18.986c-.269-1.276-.93-3.83-1.7-6.692-1.595-5.926-3.652-13.177-3.652-13.177l-.677-2.935-2.312-10.01a31.372,31.372,0,0,1,7.015,1.535,3.214,3.214,0,0,1,1.739,1.286c1.9,4.182,3.8,14.735,5.135,22.263.744,4.2,1.311,7.453,1.607,8.143C2372.125,943.564,2374.648,954.159,2376.8,959.387Z" transform="translate(-2322.001 -879.528)" fill="#d9935c"/>
        <path id="Trazado_106444" data-name="Trazado 106444" d="M2330.246,1181.126a41.863,41.863,0,0,1-5.286,17.191l-1.444,1.05s-1.367-7.355-2.334-16.107c-.922-8.318-2.186-17.119-3.614-19.806-5.675-10.654-7.382-50.875-7.382-50.875l17.25-.855c1.735,2.916,2.491,7.7,2.671,13.139.454,13.727-2.773,31.626-3.255,34.215a.014.014,0,0,1,0,.006.9.9,0,0,0,.113.578C2330.394,1166.456,2330.89,1174.229,2330.246,1181.126Z" transform="translate(-2285.727 -1041.197)" fill="#466aa5"/>
        <path id="Trazado_106445" data-name="Trazado 106445" d="M2306.965,803.142s1.789,7.017,6.65,9.264c0,0-4.862-4.311-5.274-8.943S2306.965,803.142,2306.965,803.142Z" transform="translate(-2283.167 -794.368)" fill="#233862"/>
        <path id="Trazado_106446" data-name="Trazado 106446" d="M2447.453,1155.051a7.175,7.175,0,0,0,1.708,2.522,4.875,4.875,0,0,1,1.88,2.935,2.594,2.594,0,0,1-2.265,3.164c-1.1,0-2.153-1.5-2.8-5.085-.035-.2-1.08-2.253-1.08-2.253Z" transform="translate(-2392.847 -1075.65)" fill="#d9935c"/>
        <path id="Trazado_106447" data-name="Trazado 106447" d="M2287.965,957.937a4.091,4.091,0,0,1-.107,1.379c-.367,1.155-1.628,1.681-4.675,1.366-1.863-.194-2.693-3.315-3.063-5.978q-1.678,5.715-4.71,6.4c-2.954.657-17.856,2.469-18.832-4.615-1.073-7.792,2.14-21.588,2.316-29.026a36.842,36.842,0,0,1-.54-6.893c.124-5.3,1.679-8.269,2.875-9.465a4.074,4.074,0,0,1,2.037-.656c.7-.118,1.658-.255,3.022-.435a5.154,5.154,0,0,1,.544-.042c-.252.451-3.627,5.562-3.364,6.876.276,1.376,12.246.137,13.072-.619s2.132-6.552,2.132-6.552,4.239.463,6.312,1.971l-.022.027a1.747,1.747,0,0,1,.545.573c2.212,4.211,4.421,14.841,5.975,22.423a11.039,11.039,0,0,1-8.076,1.183C2284.74,944.583,2287.767,953.959,2287.965,957.937Z" transform="translate(-2242.927 -880.531)" fill="#f1a34f"/>
        <path id="Trazado_106448" data-name="Trazado 106448" d="M2197.155,995.377c-.1-.263-1.418-4.15-2.416-4.675s-2.836-1.1-3.256-.893-1.208,3.151,0,4.674a15.311,15.311,0,0,0,4.306,2.994Z" transform="translate(-2190.826 -944.218)" fill="#d9935c"/>
        <path id="Trazado_106449" data-name="Trazado 106449" d="M2274,911.32l-.019.032c-.406.643-6.766,10.807-7.376,17.417a36.844,36.844,0,0,1-.54-6.893c.818-2.5,2.8-8.045,4.913-10.121A14.015,14.015,0,0,1,2274,911.32Z" transform="translate(-2250.638 -881.84)" fill="#2b478b"/>
        <g id="Grupo_83543" data-name="Grupo 83543" transform="translate(0 42.621)">
          <path id="Trazado_106450" data-name="Trazado 106450" d="M2202.11,984.015l-4.2,1.4a.267.267,0,0,1-.337-.168l-2.669-8.016a.266.266,0,0,1,.168-.337l4.2-1.4a.266.266,0,0,1,.336.169l2.669,8.016A.266.266,0,0,1,2202.11,984.015Z" transform="translate(-2194.043 -975.48)" fill="#466aa5"/>
          <path id="Trazado_106451" data-name="Trazado 106451" d="M2197.746,985.75l-3.813,1.27a.472.472,0,0,1-.6-.3L2190.8,979.1a.473.473,0,0,1,.3-.6l3.813-1.269a.472.472,0,0,1,.6.3l2.539,7.625A.472.472,0,0,1,2197.746,985.75Z" transform="translate(-2190.772 -976.851)" fill="#2b478b"/>
        </g>
        <path id="Trazado_106452" data-name="Trazado 106452" d="M2372.938,1450.566a41.861,41.861,0,0,1-5.286,17.192l-1.47,1.339s-1.341-7.644-2.308-16.4A15.473,15.473,0,0,0,2372.938,1450.566Z" transform="translate(-2328.418 -1310.638)" fill="#d9935c"/>
        <path id="Trazado_106453" data-name="Trazado 106453" d="M2326.3,1455.457a90.6,90.6,0,0,1-5.779,16.212l-3.024-.21a85.5,85.5,0,0,0,1.4-16.585C2319.915,1455.391,2322.033,1455.916,2326.3,1455.457Z" transform="translate(-2291.537 -1314.063)" fill="#d9935c"/>
        <g id="Grupo_83544" data-name="Grupo 83544" transform="translate(17.134 153.143)">
          <path id="Trazado_106454" data-name="Trazado 106454" d="M2288.012,1522.084h-1.931c-.646-.1-1.124-.289-1.787-.375a1.791,1.791,0,0,0-1.563.375l-.018.019h-8.2c-.206-.295-.008-.977.186-1.479a1.165,1.165,0,0,1,.768-.7,8.843,8.843,0,0,0,4.154-1.9c.883-.8,4.265-2.935,4.265-2.935l.018,0c.074,0,.428.11,1.966,1.409.795.67,2.15-.947,2.15-.947a1.925,1.925,0,0,1,.445.6,2.042,2.042,0,0,1,.176,1.259,8.163,8.163,0,0,0,.588,3.04c.191.562.352.962.352.962S2289.672,1521.876,2288.012,1522.084Z" transform="translate(-2274.426 -1515.086)" fill="#233862"/>
          <path id="Trazado_106455" data-name="Trazado 106455" d="M2325.19,1516.151a6.115,6.115,0,0,1-2.079,1.048c-.871.114-2.5-2.109-2.5-2.109l.018,0c.075,0,.428.11,1.967,1.409.8.67,2.15-.947,2.15-.947A1.925,1.925,0,0,1,2325.19,1516.151Z" transform="translate(-2311.151 -1515.086)" fill="#466aa5"/>
          <path id="Trazado_106456" data-name="Trazado 106456" d="M2288.012,1542.909h-1.931c-.646-.1-1.124-.289-1.787-.375a1.789,1.789,0,0,0-1.563.375l-.018.02h-8.2c-.206-.295-.008-.977.186-1.479.249-.221.319.962.457,1.15a36.555,36.555,0,0,0,7.068-.206,3.957,3.957,0,0,1,3.1-.378,7.457,7.457,0,0,0,3.909-.739c.191.563.352.962.352.962S2289.672,1542.7,2288.012,1542.909Z" transform="translate(-2274.426 -1535.912)" fill="#466aa5"/>
        </g>
        <g id="Grupo_83545" data-name="Grupo 83545" transform="translate(27.435 153.143)">
          <path id="Trazado_106457" data-name="Trazado 106457" d="M2338.3,1522.084h-1.93c-.646-.1-1.124-.289-1.787-.375a1.79,1.79,0,0,0-1.563.375.223.223,0,0,0-.018.019h-8.2c-.206-.295-.009-.977.185-1.479a1.168,1.168,0,0,1,.768-.7,8.841,8.841,0,0,0,4.154-1.9c.884-.8,4.265-2.935,4.265-2.935l.018,0c.074,0,.428.11,1.966,1.409.8.67,2.151-.947,2.151-.947a1.935,1.935,0,0,1,.444.6,2.037,2.037,0,0,1,.176,1.259,8.158,8.158,0,0,0,.588,3.04c.191.562.352.962.352.962S2339.965,1521.876,2338.3,1522.084Z" transform="translate(-2324.719 -1515.086)" fill="#233862"/>
          <path id="Trazado_106458" data-name="Trazado 106458" d="M2375.484,1516.151a6.121,6.121,0,0,1-2.079,1.048c-.871.114-2.5-2.109-2.5-2.109l.018,0c.074,0,.428.11,1.966,1.409.8.67,2.15-.947,2.15-.947A1.927,1.927,0,0,1,2375.484,1516.151Z" transform="translate(-2361.445 -1515.086)" fill="#466aa5"/>
          <path id="Trazado_106459" data-name="Trazado 106459" d="M2338.3,1542.909h-1.93c-.646-.1-1.124-.289-1.787-.375a1.789,1.789,0,0,0-1.563.375.211.211,0,0,0-.018.02h-8.2c-.206-.295-.009-.977.185-1.479.25-.221.32.962.457,1.15a36.558,36.558,0,0,0,7.068-.206,3.956,3.956,0,0,1,3.095-.378,7.457,7.457,0,0,0,3.909-.739c.191.563.352.962.352.962S2339.965,1542.7,2338.3,1542.909Z" transform="translate(-2324.719 -1535.912)" fill="#466aa5"/>
        </g>
        <path id="Trazado_106460" data-name="Trazado 106460" d="M2365.289,1027.69c-2.047-.684-4.673-2.5-7.828-6.578-8.351-10.793-.709-23.477.315-23.713s2.952,8.206,2.952,8.206C2362.063,1014.337,2365.09,1023.712,2365.289,1027.69Z" transform="translate(-2320.25 -950.284)" fill="#d86713" opacity="0.4"/>
        <path id="Trazado_106461" data-name="Trazado 106461" d="M2354.494,908.514a3.3,3.3,0,0,0-3.489.668,24.294,24.294,0,0,0-7.376,16.462,13.775,13.775,0,0,0,10.294,14.6l-.709-3.834s-8.85-3.2-6.539-12.868a26.017,26.017,0,0,1,9.219-14.474Z" transform="translate(-2312.3 -879.423)" fill="#2b478b"/>
        <path id="Trazado_106462" data-name="Trazado 106462" d="M2192.824,987.527s.788-1.628,2.233-.971.814,3.125-.027,3.991a8.512,8.512,0,0,0-1.076,1.261Z" transform="translate(-2192.404 -941.541)" fill="#d9935c"/>
      </g>
      <path id="Trazado_106463" data-name="Trazado 106463" d="M668.512,1549.785H93.062a.623.623,0,0,1-.558-.669h0a.623.623,0,0,1,.558-.669h575.45a.623.623,0,0,1,.558.669h0A.623.623,0,0,1,668.512,1549.785Z" transform="translate(-92.504 -1322.035)" fill="#5038a1"/>
    </g>
  </g>
</svg>
