<svg id="pasajero-2" xmlns="http://www.w3.org/2000/svg" width="90" height="90" viewBox="0 0 90 90">
  <path id="Trazado_106123" data-name="Trazado 106123" d="M51.548,8A43.548,43.548,0,1,0,67.516,92.063V89.29h5.747A43.544,43.544,0,0,0,51.548,8Zm0,0" transform="translate(-6.548 -6.548)" fill="#d8ccff"/>
  <path id="Trazado_106124" data-name="Trazado 106124" d="M373.807,456v2.9a2.912,2.912,0,0,1-2.9,2.9,2.924,2.924,0,0,1-2.9-2.9V456Zm0,0" transform="translate(-301.226 -373.258)" fill="#5038a1"/>
  <path id="Trazado_106125" data-name="Trazado 106125" d="M309.806,456v2.9a2.912,2.912,0,0,1-2.9,2.9,2.842,2.842,0,0,1-2.047-.856,2.725,2.725,0,0,1-.377-.45,2.91,2.91,0,0,1-.479-1.6V456Zm0,0" transform="translate(-248.839 -373.258)" fill="#5038a1"/>
  <path id="Trazado_106126" data-name="Trazado 106126" d="M305.419,338.129H289.452A1.456,1.456,0,0,1,288,336.677V313.452A1.456,1.456,0,0,1,289.452,312h20.323a1.456,1.456,0,0,1,1.452,1.452v23.226a1.456,1.456,0,0,1-1.452,1.452Zm0,0" transform="translate(-235.742 -255.387)" fill="#8c6df2"/>
  <path id="Trazado_106127" data-name="Trazado 106127" d="M321.419,233.452v2.9a1.456,1.456,0,0,1-1.452,1.452H305.452A1.456,1.456,0,0,1,304,236.355v-2.9A1.456,1.456,0,0,1,305.452,232h14.516A1.456,1.456,0,0,1,321.419,233.452Zm0,0" transform="translate(-248.839 -189.903)" fill="#ffdc72"/>
  <path id="Trazado_106128" data-name="Trazado 106128" d="M129.113,264H118.951v33.387l-.232.377a43.106,43.106,0,0,0,20.555,6.78V264Zm0,0" transform="translate(-97.177 -216.097)" fill="#5038a1"/>
  <path id="Trazado_106129" data-name="Trazado 106129" d="M87.258,135.968H80V126.4a4.351,4.351,0,0,1,3.411-4.253L93.065,120s1.452,2.9,4.355,2.9,4.355-2.9,4.355-2.9l8.652,1.234a5.807,5.807,0,0,1,2.715,1.147l5.255,4.035-.654.842-3.949,5.269-6.213-3.818v17.419H87.258Zm0,0" transform="translate(-65.484 -98.226)" fill="#ffb74d"/>
  <g id="Grupo_83432" data-name="Grupo 83432" transform="translate(14.516 1.452)">
    <path id="Trazado_106130" data-name="Trazado 106130" d="M283.251,166.348a2.923,2.923,0,0,1-2.917,2.917h-.61a2.824,2.824,0,0,1-1.524-.435l-11.962-7.36,3.949-5.269.654-.842,11.279,8.681A2.931,2.931,0,0,1,283.251,166.348Zm0,0" transform="translate(-232.445 -128.621)" fill="#f5f7fa"/>
    <path id="Trazado_106131" data-name="Trazado 106131" d="M87.258,218.161v5.081a3.629,3.629,0,1,1-7.258,0V208h7.258Zm0,0" transform="translate(-80 -171.71)" fill="#f5f7fa"/>
    <path id="Trazado_106132" data-name="Trazado 106132" d="M160.71,96v4.355s-1.452,2.9-4.355,2.9-4.355-2.9-4.355-2.9V96a7.258,7.258,0,0,0,8.71,0Zm0,0" transform="translate(-138.935 -80.032)" fill="#f5f7fa"/>
    <path id="Trazado_106133" data-name="Trazado 106133" d="M150.516,15.258v2.9a7.273,7.273,0,0,1-2.9,5.806,7.258,7.258,0,0,1-8.71,0,7.273,7.273,0,0,1-2.9-5.806v-2.9a7.562,7.562,0,0,1,.32-2.163A7.266,7.266,0,0,1,147.032,9.06l1.364,1.06A7.291,7.291,0,0,1,150.516,15.258Zm0,0" transform="translate(-125.839 -8)" fill="#f5f7fa"/>
  </g>
  <path id="Trazado_106134" data-name="Trazado 106134" d="M90,45A45.034,45.034,0,0,0,35.978.906L35.84.935A8.681,8.681,0,0,0,23.964,5.21,44.989,44.989,0,0,0,55.119,88.833a4.339,4.339,0,0,0,7.3-3.187V84.194h2.9v1.452a4.355,4.355,0,0,0,8.71,0V84.194a2.906,2.906,0,0,0,2.9-2.9v-4.6A44.644,44.644,0,0,0,90,45Zm-2.9,0A41.734,41.734,0,0,1,76.935,72.417V58.065a2.906,2.906,0,0,0-2.9-2.9h-2.9V49.355a2.906,2.906,0,0,0,2.9-2.9v-2.9a2.906,2.906,0,0,0-2.9-2.9H66.5a4.321,4.321,0,0,0,.271-1.466,4.4,4.4,0,0,0-1.705-3.464L48.546,23.005a7.269,7.269,0,0,0-3.4-1.432l-7.406-1.058V18.087a8.68,8.68,0,0,0,2.9-6.474V8.71A8.658,8.658,0,0,0,38.794,3.36,42.114,42.114,0,0,1,87.1,45ZM15.968,39.194h4.355v13.79a2.177,2.177,0,1,1-4.355,0Zm7.258,10.161h7.258V84.516a41.971,41.971,0,0,1-7.258-3.5Zm10.161,0h7.258V86.872a41.859,41.859,0,0,1-7.258-1.417Zm7.258-20.323V46.452H23.226V29.032h-2.9V36.29H15.968V28.172a2.887,2.887,0,0,1,2.273-2.835l8.675-1.928a6.347,6.347,0,0,0,5.02,2.72,6.376,6.376,0,0,0,5.071-2.787l7.731,1.1a4.355,4.355,0,0,1,2.038.86l4.1,3.153-2.937,3.915-4.388-2.7v-.64Zm-8.71-8.71a8.667,8.667,0,0,0,2.9-.508v1.561a3.711,3.711,0,0,1-2.9,1.851,3.714,3.714,0,0,1-2.9-1.851V19.814A8.667,8.667,0,0,0,31.935,20.323Zm21.24,9.906L63.3,38.016a1.467,1.467,0,0,1-.894,2.629h-.612a1.461,1.461,0,0,1-.768-.218L50.42,33.9Zm3.438,16.223v-2.9H71.129v2.9Zm11.613,2.9v5.806h-8.71V49.355ZM26.129,8.71a5.806,5.806,0,1,1,11.613,0v2.9a5.806,5.806,0,1,1-11.613,0ZM2.9,45A42.01,42.01,0,0,1,23.226,8.98v2.633a8.684,8.684,0,0,0,2.9,6.474V20.61L17.611,22.5a5.773,5.773,0,0,0-4.546,5.669V52.984a5.086,5.086,0,0,0,5.081,5.081,5.024,5.024,0,0,0,2.177-.51V79.074A42.057,42.057,0,0,1,2.9,45ZM43.548,87.061V33.081l12.419,7.643a2.9,2.9,0,0,0-2.258,2.825v2.9a2.906,2.906,0,0,0,2.9,2.9v5.806h-2.9a2.906,2.906,0,0,0-2.9,2.9V81.29a2.906,2.906,0,0,0,2.9,2.9v1.452a4.362,4.362,0,0,0,.052.522A42.353,42.353,0,0,1,45,87.1C44.514,87.1,44.032,87.076,43.548,87.061Zm15.968-1.415a1.452,1.452,0,0,1-2.9,0V84.194h2.9Zm11.613,0a1.452,1.452,0,0,1-2.9,0V84.194h2.9Zm0-4.355V62.419h-2.9V81.29h-2.9V62.419h-2.9V81.29h-2.9V62.419h-2.9V81.29h-2.9V58.065H74.032V81.29Zm0,0" transform="translate(0 0)" fill="#232323"/>
</svg>
