<svg xmlns="http://www.w3.org/2000/svg" width="148" height="148" viewBox="0 0 148 148">
  <g id="Grupo_56003" data-name="Grupo 56003" transform="translate(-253 -5808)">
    <rect id="Rectángulo_7895" data-name="Rectángulo 7895" width="148" height="148" rx="10" transform="translate(253 5808)" fill="#ffdc72"/>
    <g id="vuelo-directo" transform="translate(271.656 5823.433)">
      <path id="Trazado_101773" data-name="Trazado 101773" d="M22.729,27h4.548v5.457H22.729A2.729,2.729,0,0,1,20,29.729h0A2.729,2.729,0,0,1,22.729,27Z" transform="translate(13.515 15.972)" fill="#c2c2c2"/>
      <path id="Trazado_101774" data-name="Trazado 101774" d="M27.686,33.776H23.138a3.638,3.638,0,1,1,0-7.276h4.548a.91.91,0,0,1,.91.91v5.457A.91.91,0,0,1,27.686,33.776Zm-4.548-5.457a1.819,1.819,0,0,0,0,3.638h3.638V28.319Z" transform="translate(13.105 15.563)" fill="#212a41"/>
      <circle id="Elipse_4087" data-name="Elipse 4087" cx="2.729" cy="2.729" r="2.729" transform="translate(38.062 42.972)" fill="#e0e0e0"/>
      <path id="Trazado_101775" data-name="Trazado 101775" d="M25.638,33.776a3.638,3.638,0,1,1,3.638-3.638A3.638,3.638,0,0,1,25.638,33.776Zm0-5.457a1.819,1.819,0,1,0,1.819,1.819A1.819,1.819,0,0,0,25.638,28.319Z" transform="translate(15.153 15.563)" fill="#212a41"/>
      <path id="Trazado_101776" data-name="Trazado 101776" d="M38.019,16.457H27.7L24.667,11h7.767a3.638,3.638,0,0,1,3.027,1.62Z" transform="translate(17.337 2.867)" fill="#0079a8"/>
      <path id="Trazado_101777" data-name="Trazado 101777" d="M38.429,17.776H28.108a.91.91,0,0,1-.795-.468l-3.032-5.457a.91.91,0,0,1,.8-1.352h7.767a4.548,4.548,0,0,1,3.784,2.025l2.558,3.838a.91.91,0,0,1-.757,1.413Zm-9.787-1.819H36.73l-1.615-2.423a2.729,2.729,0,0,0-2.27-1.215H26.622Z" transform="translate(16.927 2.457)" fill="#212a41"/>
      <path id="Trazado_101778" data-name="Trazado 101778" d="M81.487,24.372H42.111a7.276,7.276,0,0,1-6.367-3.742L29.774,9.872A3.638,3.638,0,0,0,26.593,8H16V27.137a7.276,7.276,0,0,0,1.752,4.73l9.163,10.7H92.4a3.638,3.638,0,0,0,3.638-3.638h0A14.553,14.553,0,0,0,81.487,24.372Z" transform="translate(10.238 0.41)" fill="#e0e0e0"/>
      <path id="Trazado_101779" data-name="Trazado 101779" d="M92.811,43.882H27.324a.91.91,0,0,1-.689-.318L17.47,32.874a8.2,8.2,0,0,1-1.97-5.326V8.41a.91.91,0,0,1,.91-.91H27a4.547,4.547,0,0,1,3.974,2.339L36.954,20.6a6.367,6.367,0,0,0,5.566,3.274H81.9A15.48,15.48,0,0,1,97.359,39.334a4.548,4.548,0,0,1-4.548,4.548ZM27.742,42.063H92.811a2.729,2.729,0,0,0,2.729-2.729A13.658,13.658,0,0,0,81.9,25.691H42.521a8.186,8.186,0,0,1-7.157-4.21L29.387,10.722A2.729,2.729,0,0,0,27,9.319H17.319V27.548a6.367,6.367,0,0,0,1.533,4.142Z" transform="translate(9.829 0)" fill="#212a41"/>
      <path id="Trazado_101780" data-name="Trazado 101780" d="M66.934,24.372h-32.1a7.276,7.276,0,0,1-6.367-3.742L22.5,9.872A3.638,3.638,0,0,0,19.316,8H16V27.137a7.276,7.276,0,0,0,1.752,4.73l9.163,10.7H77.849a3.638,3.638,0,0,0,3.638-3.638h0A14.553,14.553,0,0,0,66.934,24.372Z" transform="translate(10.238 0.41)" fill="#c2c2c2"/>
      <path id="Trazado_101781" data-name="Trazado 101781" d="M78.258,43.882H27.324a.91.91,0,0,1-.689-.318L17.47,32.874a8.2,8.2,0,0,1-1.97-5.326V8.41a.91.91,0,0,1,.91-.91h3.316A4.547,4.547,0,0,1,23.7,9.839L29.678,20.6a6.367,6.367,0,0,0,5.566,3.274h32.1A15.48,15.48,0,0,1,82.806,39.334a4.548,4.548,0,0,1-4.548,4.548ZM27.742,42.063H78.258a2.729,2.729,0,0,0,2.729-2.729A13.658,13.658,0,0,0,67.344,25.691h-32.1a8.186,8.186,0,0,1-7.157-4.21L22.111,10.722a2.729,2.729,0,0,0-2.385-1.4H17.319V27.548a6.367,6.367,0,0,0,1.533,4.142Z" transform="translate(9.829 0)" fill="#212a41"/>
      <path id="Trazado_101782" data-name="Trazado 101782" d="M27.359,38.342a.9.9,0,0,1-.689-.318L18.591,28.6A4.548,4.548,0,0,1,17.5,25.647V10.731a.91.91,0,1,1,1.819,0V25.647a2.729,2.729,0,0,0,.657,1.775l8.075,9.419a.91.91,0,0,1-.689,1.5Z" transform="translate(11.467 1.901)" fill="#e0e0e0"/>
      <path id="Trazado_101783" data-name="Trazado 101783" d="M62.211,29.457H9.585a3.638,3.638,0,0,1-3.027-1.619L4,24H56.626a3.638,3.638,0,0,1,3.027,1.62Z" transform="translate(0.409 13.515)" fill="#c2c2c2"/>
      <path id="Trazado_101784" data-name="Trazado 101784" d="M62.62,30.776H9.994A4.548,4.548,0,0,1,6.21,28.752L3.653,24.913A.91.91,0,0,1,4.409,23.5H57.035a4.548,4.548,0,0,1,3.784,2.025l2.558,3.838a.91.91,0,0,1-.757,1.413ZM6.108,25.319l1.615,2.423a2.729,2.729,0,0,0,2.27,1.215H60.928l-1.615-2.423a2.729,2.729,0,0,0-2.277-1.215Z" transform="translate(0 13.105)" fill="#212a41"/>
      <path id="Trazado_101785" data-name="Trazado 101785" d="M14.729,27h4.548v5.457H14.729A2.729,2.729,0,0,1,12,29.729h0A2.729,2.729,0,0,1,14.729,27Z" transform="translate(6.962 15.972)" fill="#c2c2c2"/>
      <path id="Trazado_101786" data-name="Trazado 101786" d="M19.686,33.776H15.138a3.638,3.638,0,1,1,0-7.276h4.548a.91.91,0,0,1,.91.91v5.457A.91.91,0,0,1,19.686,33.776Zm-4.548-5.457a1.819,1.819,0,0,0,0,3.638h3.638V28.319Z" transform="translate(6.552 15.563)" fill="#212a41"/>
      <circle id="Elipse_4088" data-name="Elipse 4088" cx="2.729" cy="2.729" r="2.729" transform="translate(23.51 42.972)" fill="#e0e0e0"/>
      <path id="Trazado_101787" data-name="Trazado 101787" d="M17.638,33.776a3.638,3.638,0,1,1,3.638-3.638A3.638,3.638,0,0,1,17.638,33.776Zm0-5.457a1.819,1.819,0,1,0,1.819,1.819A1.819,1.819,0,0,0,17.638,28.319Z" transform="translate(8.6 15.563)" fill="#212a41"/>
      <path id="Trazado_101788" data-name="Trazado 101788" d="M70.723,20H43v7.276H73.8A14.482,14.482,0,0,0,70.723,20Z" transform="translate(32.354 10.239)" fill="#b7c0d7"/>
      <path id="Trazado_101789" data-name="Trazado 101789" d="M28.2,16.457H15.585a3.638,3.638,0,0,1-3.027-1.619L10,11H22.619a3.638,3.638,0,0,1,3.027,1.62Z" transform="translate(5.324 2.867)" fill="#005b8a"/>
      <path id="Trazado_101790" data-name="Trazado 101790" d="M28.613,17.776H15.994a4.548,4.548,0,0,1-3.784-2.025L9.653,11.913a.91.91,0,0,1,.757-1.413H23.028a4.548,4.548,0,0,1,3.784,2.025l2.558,3.838a.91.91,0,0,1-.757,1.413Zm-16.5-5.457,1.615,2.423a2.729,2.729,0,0,0,2.27,1.215H26.908l-1.615-2.423a2.729,2.729,0,0,0-2.27-1.215Z" transform="translate(4.914 2.457)" fill="#212a41"/>
      <path id="Trazado_101791" data-name="Trazado 101791" d="M39.41,24.957a.91.91,0,0,1-.91-.91V20.41a.91.91,0,1,1,1.819,0v3.638A.91.91,0,0,1,39.41,24.957Z" transform="translate(28.668 9.829)" fill="#212a41"/>
      <path id="Trazado_101792" data-name="Trazado 101792" d="M35.41,24.957a.91.91,0,0,1-.91-.91V20.41a.91.91,0,1,1,1.819,0v3.638A.91.91,0,0,1,35.41,24.957Z" transform="translate(25.391 9.829)" fill="#212a41"/>
      <path id="Trazado_101793" data-name="Trazado 101793" d="M31.41,24.957a.91.91,0,0,1-.91-.91V20.41a.91.91,0,1,1,1.819,0v3.638A.91.91,0,0,1,31.41,24.957Z" transform="translate(22.115 9.829)" fill="#212a41"/>
      <path id="Trazado_101794" data-name="Trazado 101794" d="M27.41,24.957a.91.91,0,0,1-.91-.91V20.41a.91.91,0,0,1,1.819,0v3.638A.91.91,0,0,1,27.41,24.957Z" transform="translate(18.839 9.829)" fill="#212a41"/>
      <path id="Trazado_101795" data-name="Trazado 101795" d="M60.458,28.6a.91.91,0,0,1-.9-.758,10.043,10.043,0,0,0-4.34-6.669.91.91,0,0,1,1.006-1.517,11.884,11.884,0,0,1,5.13,7.884.91.91,0,0,1-.746,1.048.9.9,0,0,1-.153.013Z" transform="translate(42.029 9.829)" fill="#99a2b9"/>
      <path id="Trazado_101796" data-name="Trazado 101796" d="M74.208,28.6H43.41a.91.91,0,0,1-.91-.91V20.41a.91.91,0,0,1,.91-.91H71.132a.91.91,0,0,1,.71.34,15.422,15.422,0,0,1,3.274,7.733.91.91,0,0,1-.91,1.022ZM44.319,26.776h28.82A13.583,13.583,0,0,0,70.7,21.319H44.319Z" transform="translate(31.944 9.829)" fill="#212a41"/>
      <path id="Trazado_101797" data-name="Trazado 101797" d="M56.17,20H43v7.276H59.246A14.482,14.482,0,0,0,56.17,20Z" transform="translate(32.354 10.239)" fill="#99a2b9"/>
      <path id="Trazado_101798" data-name="Trazado 101798" d="M59.656,28.6H43.41a.91.91,0,0,1-.91-.91V20.41a.91.91,0,0,1,.91-.91H56.58a.91.91,0,0,1,.71.34,15.422,15.422,0,0,1,3.274,7.733.91.91,0,0,1-.91,1.022ZM44.319,26.776H58.586a13.583,13.583,0,0,0-2.443-5.457H44.319Z" transform="translate(31.944 9.829)" fill="#212a41"/>
      <path id="Trazado_101799" data-name="Trazado 101799" d="M23.962,57.319H9.41a.91.91,0,0,1,0-1.819H23.962a.91.91,0,1,1,0,1.819Z" transform="translate(4.095 39.316)" fill="#212a41"/>
      <path id="Trazado_101800" data-name="Trazado 101800" d="M61.962,57.319H47.41a.91.91,0,1,1,0-1.819H61.962a.91.91,0,0,1,0,1.819Z" transform="translate(35.22 39.316)" fill="#212a41"/>
      <circle id="Elipse_4089" data-name="Elipse 4089" cx="2.668" cy="2.668" r="2.668" transform="translate(37.808 74.592)" fill="#f9ac2f"/>
      <path id="Trazado_101801" data-name="Trazado 101801" d="M25.638,51.276a3.638,3.638,0,1,1,3.638-3.638A3.638,3.638,0,0,1,25.638,51.276Zm0-5.457a1.819,1.819,0,1,0,1.819,1.819A1.819,1.819,0,0,0,25.638,45.819Z" transform="translate(15.153 29.897)" fill="#212a41"/>
      <ellipse id="Elipse_4090" data-name="Elipse 4090" cx="3.05" cy="2.668" rx="3.05" ry="2.668" transform="translate(52.294 74.592)" fill="#f9ac2f"/>
      <path id="Trazado_101802" data-name="Trazado 101802" d="M33.638,51.276a3.638,3.638,0,1,1,3.638-3.638A3.638,3.638,0,0,1,33.638,51.276Zm0-5.457a1.819,1.819,0,1,0,1.819,1.819A1.819,1.819,0,0,0,33.638,45.819Z" transform="translate(21.705 29.897)" fill="#212a41"/>
      <circle id="Elipse_4091" data-name="Elipse 4091" cx="2.668" cy="2.668" r="2.668" transform="translate(67.542 74.592)" fill="#f9ac2f"/>
      <path id="Trazado_101803" data-name="Trazado 101803" d="M41.638,51.276a3.638,3.638,0,1,1,3.638-3.638A3.638,3.638,0,0,1,41.638,51.276Zm0-5.457a1.819,1.819,0,1,0,1.819,1.819A1.819,1.819,0,0,0,41.638,45.819Z" transform="translate(28.258 29.897)" fill="#212a41"/>
      <path id="Trazado_101804" data-name="Trazado 101804" d="M17.915,40A10.914,10.914,0,0,0,9.183,57.463l8.732,11.642,8.732-11.642A10.914,10.914,0,0,0,17.915,40Zm0,14.553a3.638,3.638,0,1,1,3.638-3.638A3.638,3.638,0,0,1,17.915,54.553Z" transform="translate(2.867 26.62)" fill="#d32e5e"/>
      <path id="Trazado_101805" data-name="Trazado 101805" d="M18.324,70.424a.91.91,0,0,1-.728-.364L8.865,58.418a11.824,11.824,0,1,1,18.918,0L19.052,70.061A.91.91,0,0,1,18.324,70.424Zm0-29.105a10,10,0,0,0-8,16.008l8,10.673,8-10.673a10,10,0,0,0-8-16.008Zm0,14.553a4.548,4.548,0,1,1,4.548-4.548,4.548,4.548,0,0,1-4.548,4.548Zm0-7.276a2.729,2.729,0,1,0,2.729,2.729A2.729,2.729,0,0,0,18.324,48.6Z" transform="translate(2.457 26.211)" fill="#212a41"/>
      <path id="Trazado_101806" data-name="Trazado 101806" d="M55.915,40a10.914,10.914,0,0,0-8.732,17.463l8.732,11.642,8.732-11.642A10.915,10.915,0,0,0,55.915,40Zm0,14.553a3.638,3.638,0,1,1,3.638-3.638A3.638,3.638,0,0,1,55.915,54.553Z" transform="translate(33.992 26.62)" fill="#d32e5e"/>
      <path id="Trazado_101807" data-name="Trazado 101807" d="M56.324,70.424a.91.91,0,0,1-.728-.364L46.865,58.418a11.824,11.824,0,1,1,18.918,0L57.052,70.061A.91.91,0,0,1,56.324,70.424Zm0-29.105a10,10,0,0,0-8,16.008l8,10.673,8-10.673a10,10,0,0,0-8-16.008Zm0,14.553a4.548,4.548,0,1,1,4.548-4.548A4.548,4.548,0,0,1,56.324,55.872Zm0-7.276a2.729,2.729,0,1,0,2.729,2.729A2.729,2.729,0,0,0,56.324,48.6Z" transform="translate(33.582 26.211)" fill="#212a41"/>
    </g>
  </g>
</svg>
