<svg xmlns="http://www.w3.org/2000/svg" width="148" height="148" viewBox="0 0 148 148">
  <g id="Grupo_56004" data-name="Grupo 56004" transform="translate(-253 -6102)">
    <rect id="Rectángulo_7894" data-name="Rectángulo 7894" width="148" height="148" rx="10" transform="translate(253 6102)" fill="#5038a1"/>
    <g id="pasaporte" transform="translate(231.417 6123.969)">
      <path id="Trazado_101744" data-name="Trazado 101744" d="M173.1,18.5V95.319a7.5,7.5,0,0,1-7.5,7.5H109.85V11h55.755A7.5,7.5,0,0,1,173.1,18.5Z" transform="translate(-41.652 -4.876)" fill="#ffdc72"/>
      <path id="Trazado_101745" data-name="Trazado 101745" d="M73.071,11v91.814h-.986a7.5,7.5,0,0,1-7.5-7.5V18.5a7.5,7.5,0,0,1,7.5-7.5Z" transform="translate(-4.872 -4.876)" fill="#8c6df2"/>
      <path id="Trazado_101746" data-name="Trazado 101746" d="M345.369,148.759h-9.328a29.263,29.263,0,0,0-1.761-10.244,21.432,21.432,0,0,0,5.436-4.375A21.655,21.655,0,0,1,345.369,148.759Z" transform="translate(-224.029 -104.942)" fill="#4093f6"/>
      <path id="Trazado_101747" data-name="Trazado 101747" d="M336.041,212.16h9.328a21.651,21.651,0,0,1-5.653,14.619,21.433,21.433,0,0,0-5.436-4.375A29.262,29.262,0,0,0,336.041,212.16Z" transform="translate(-224.029 -168.343)" fill="#4eadf9"/>
      <path id="Trazado_101748" data-name="Trazado 101748" d="M280.5,96.24a21.673,21.673,0,0,1,15.513,7.1,21.433,21.433,0,0,1-5.436,4.375A20.164,20.164,0,0,0,280.5,96.24Z" transform="translate(-180.326 -74.144)" fill="#4eadf9"/>
      <path id="Trazado_101749" data-name="Trazado 101749" d="M296.013,271.205a21.673,21.673,0,0,1-15.513,7.1,20.164,20.164,0,0,0,10.077-11.477A21.434,21.434,0,0,1,296.013,271.205Z" transform="translate(-180.326 -212.769)" fill="#4093f6"/>
      <path id="Trazado_101750" data-name="Trazado 101750" d="M289.9,167.734H277.5v-7.463a21.511,21.511,0,0,0,10.639-2.781A29.263,29.263,0,0,1,289.9,167.734Z" transform="translate(-177.888 -123.917)" fill="#4eadf9"/>
      <path id="Trazado_101751" data-name="Trazado 101751" d="M277.5,212.16h12.4a29.263,29.263,0,0,1-1.761,10.244,21.511,21.511,0,0,0-10.639-2.781Z" transform="translate(-177.888 -168.343)" fill="#4093f6"/>
      <path id="Trazado_101752" data-name="Trazado 101752" d="M278.062,96.208a20.164,20.164,0,0,1,10.077,11.477,21.511,21.511,0,0,1-10.639,2.781V96.2c.187,0,.375,0,.56.007Z" transform="translate(-177.888 -74.111)" fill="#4093f6"/>
      <path id="Trazado_101753" data-name="Trazado 101753" d="M288.139,254.77a20.164,20.164,0,0,1-10.077,11.477h0c-.185.006-.373.008-.56.008V251.99A21.511,21.511,0,0,1,288.139,254.77Z" transform="translate(-177.888 -200.71)" fill="#4eadf9"/>
      <path id="Trazado_101754" data-name="Trazado 101754" d="M231.294,264.28v1.975c-.189,0-.377,0-.564-.007a20.186,20.186,0,0,1-10.09-11.509,21.878,21.878,0,0,1,10.654-2.749Z" transform="translate(-131.683 -200.71)" fill="#4093f6"/>
      <path id="Trazado_101755" data-name="Trazado 101755" d="M223.708,212.16v7.463a21.878,21.878,0,0,0-10.654,2.749,29.346,29.346,0,0,1-1.748-10.212Z" transform="translate(-124.097 -168.343)" fill="#4eadf9"/>
      <path id="Trazado_101756" data-name="Trazado 101756" d="M223.708,160.409v7.463h-12.4a29.346,29.346,0,0,1,1.748-10.212A21.883,21.883,0,0,0,223.708,160.409Z" transform="translate(-124.097 -124.055)" fill="#4093f6"/>
      <path id="Trazado_101757" data-name="Trazado 101757" d="M231.294,98.175v12.29a21.883,21.883,0,0,1-10.654-2.749,20.186,20.186,0,0,1,10.09-11.509c.187-.006.375-.007.564-.007Z" transform="translate(-131.683 -74.111)" fill="#4eadf9"/>
      <path id="Trazado_101758" data-name="Trazado 101758" d="M206.977,96.24a20.186,20.186,0,0,0-10.09,11.509,21.3,21.3,0,0,1-5.477-4.345A21.669,21.669,0,0,1,206.977,96.24Z" transform="translate(-107.93 -74.144)" fill="#4093f6"/>
      <path id="Trazado_101759" data-name="Trazado 101759" d="M196.887,266.66a20.186,20.186,0,0,0,10.09,11.509,21.666,21.666,0,0,1-15.567-7.163A21.332,21.332,0,0,1,196.887,266.66Z" transform="translate(-107.93 -212.631)" fill="#4eadf9"/>
      <path id="Trazado_101760" data-name="Trazado 101760" d="M172.606,138.815a29.346,29.346,0,0,0-1.748,10.212H161.53a21.648,21.648,0,0,1,5.6-14.557,21.3,21.3,0,0,0,5.477,4.345Z" transform="translate(-83.648 -105.21)" fill="#4eadf9"/>
      <path id="Trazado_101761" data-name="Trazado 101761" d="M170.857,212.16a29.346,29.346,0,0,0,1.748,10.212,21.333,21.333,0,0,0-5.477,4.345,21.639,21.639,0,0,1-5.6-14.557Z" transform="translate(-83.648 -168.343)" fill="#4093f6"/>
      <path id="Trazado_101762" data-name="Trazado 101762" d="M110,11h5.621v91.814H110Z" transform="translate(-41.774 -4.876)" fill="#5038a1"/>
      <g id="Grupo_56002" data-name="Grupo 56002" transform="translate(58.594 5)">
        <path id="Trazado_101763" data-name="Trazado 101763" d="M123.953,5H67.213a8.629,8.629,0,0,0-8.619,8.619V90.443a8.629,8.629,0,0,0,8.619,8.619h56.74a8.629,8.629,0,0,0,8.619-8.619V13.619A8.629,8.629,0,0,0,123.953,5Zm6.371,85.443a6.378,6.378,0,0,1-6.371,6.371H69.322V26.773a1.124,1.124,0,1,0-2.248,0V96.81a6.377,6.377,0,0,1-6.231-6.367V13.619a6.377,6.377,0,0,1,6.231-6.367V17.4a1.124,1.124,0,1,0,2.248,0V7.249h54.631a6.378,6.378,0,0,1,6.371,6.371Z" transform="translate(-58.594 -5)" fill="#284268"/>
        <path id="Trazado_101764" data-name="Trazado 101764" d="M135.124,31A1.124,1.124,0,0,0,134,32.124V32.5a1.124,1.124,0,1,0,2.248,0v-.375A1.124,1.124,0,0,0,135.124,31Z" transform="translate(-119.871 -26.128)" fill="#284268"/>
        <path id="Trazado_101765" data-name="Trazado 101765" d="M135.124,59A1.124,1.124,0,0,0,134,60.124V77.363a1.124,1.124,0,1,0,2.248,0V60.124A1.124,1.124,0,0,0,135.124,59Z" transform="translate(-119.871 -48.882)" fill="#284268"/>
        <path id="Trazado_101766" data-name="Trazado 101766" d="M163.167,424.511h-.5a1.124,1.124,0,1,0,0,2.249h.5a1.124,1.124,0,0,0,0-2.249Z" transform="translate(-142.255 -345.905)" fill="#284268"/>
        <path id="Trazado_101767" data-name="Trazado 101767" d="M195.573,424.511h-3.758a1.124,1.124,0,0,0,0,2.249h3.758a1.124,1.124,0,1,0,0-2.249Z" transform="translate(-165.938 -345.905)" fill="#284268"/>
        <path id="Trazado_101768" data-name="Trazado 101768" d="M265.734,424.511h-26.94a1.124,1.124,0,0,0,0,2.249h26.94a1.124,1.124,0,1,0,0-2.249Z" transform="translate(-204.115 -345.905)" fill="#284268"/>
        <path id="Trazado_101769" data-name="Trazado 101769" d="M163.167,388.308h-.5a1.124,1.124,0,1,0,0,2.249h.5a1.124,1.124,0,0,0,0-2.249Z" transform="translate(-142.255 -316.485)" fill="#284268"/>
        <path id="Trazado_101770" data-name="Trazado 101770" d="M195.573,388.308h-3.758a1.124,1.124,0,0,0,0,2.249h3.758a1.124,1.124,0,1,0,0-2.249Z" transform="translate(-165.938 -316.485)" fill="#284268"/>
        <path id="Trazado_101771" data-name="Trazado 101771" d="M265.734,388.308h-26.94a1.124,1.124,0,0,0,0,2.249h26.94a1.124,1.124,0,0,0,0-2.249Z" transform="translate(-204.115 -316.485)" fill="#284268"/>
        <path id="Trazado_101772" data-name="Trazado 101772" d="M178.385,90.2a22.853,22.853,0,1,0,22.852,22.853A22.853,22.853,0,0,0,178.385,90.2Zm-5.406,2.97a22.033,22.033,0,0,0-5.807,8.029,20.182,20.182,0,0,1-3.361-2.7,20.614,20.614,0,0,1,9.167-5.332Zm-10.668,7.008a22.454,22.454,0,0,0,4.047,3.163,30.383,30.383,0,0,0-1.478,8.588h-7.069a20.5,20.5,0,0,1,4.5-11.751Zm-4.5,14h7.068a30.389,30.389,0,0,0,1.478,8.588,22.453,22.453,0,0,0-4.046,3.163,20.5,20.5,0,0,1-4.5-11.751Zm6,13.428a20.164,20.164,0,0,1,3.361-2.7,22.03,22.03,0,0,0,5.806,8.03,20.615,20.615,0,0,1-9.168-5.332Zm13.449,5.605a19.087,19.087,0,0,1-8.116-9.417,20.828,20.828,0,0,1,8.116-2.123Zm0-13.791a23.085,23.085,0,0,0-8.892,2.251,28.286,28.286,0,0,1-1.239-7.493h10.131Zm0-7.491H167.129a28.287,28.287,0,0,1,1.239-7.494,23.086,23.086,0,0,0,8.892,2.251Zm0-7.493a20.828,20.828,0,0,1-8.116-2.123,19.089,19.089,0,0,1,8.116-9.417ZM192.9,98.447a20.256,20.256,0,0,1-3.327,2.7,22.019,22.019,0,0,0-5.785-7.982,20.612,20.612,0,0,1,9.112,5.277Zm-13.394-5.552a19.087,19.087,0,0,1,8.1,9.384,20.542,20.542,0,0,1-8.1,2.156Zm0,13.791a22.8,22.8,0,0,0,8.88-2.285,28.263,28.263,0,0,1,1.25,7.527h-10.13Zm0,7.491h10.13a28.259,28.259,0,0,1-1.25,7.527,22.791,22.791,0,0,0-8.88-2.285Zm0,19.033V121.67a20.544,20.544,0,0,1,8.1,2.156,19.09,19.09,0,0,1-8.1,9.384Zm4.282-.274a22.02,22.02,0,0,0,5.785-7.982,20.255,20.255,0,0,1,3.327,2.7,20.615,20.615,0,0,1-9.113,5.277Zm10.62-6.949a22.523,22.523,0,0,0-4.015-3.174,30.365,30.365,0,0,0,1.494-8.636h7.068a20.5,20.5,0,0,1-4.548,11.81Zm-2.521-14.059a30.365,30.365,0,0,0-1.494-8.636,22.521,22.521,0,0,0,4.014-3.175,20.5,20.5,0,0,1,4.548,11.81Z" transform="translate(-137.367 -74.236)" fill="#284268"/>
      </g>
    </g>
  </g>
</svg>
