<svg id="estructura-jerarquica" xmlns="http://www.w3.org/2000/svg" width="88.684" height="108.11" viewBox="0 0 88.684 108.11">
  <g id="Grupo_56011" data-name="Grupo 56011" transform="translate(2.112 93.33)">
    <path id="Trazado_101824" data-name="Trazado 101824" d="M26.892,442v12.669H10V442Zm0,0" transform="translate(-10 -442)" fill="#ffd86e"/>
    <path id="Trazado_101825" data-name="Trazado 101825" d="M186.892,442v12.669H170V442Zm0,0" transform="translate(-136.216 -442)" fill="#ffd86e"/>
    <path id="Trazado_101826" data-name="Trazado 101826" d="M346.892,442v12.669H330V442Zm0,0" transform="translate(-262.431 -442)" fill="#ffd86e"/>
  </g>
  <path id="Trazado_101827" data-name="Trazado 101827" d="M163.784,324.446v4.223H130V316h33.784Zm0,0" transform="translate(-102.55 -249.276)" fill="#8c6df2"/>
  <path id="Trazado_101828" data-name="Trazado 101828" d="M163.784,193v12.669H130V193Zm0,0" transform="translate(-102.55 -152.247)" fill="#ffdc72"/>
  <path id="Trazado_101829" data-name="Trazado 101829" d="M117.569,14.223V31.115a4.222,4.222,0,0,1-4.223,4.223H54.223A4.222,4.222,0,0,1,50,31.115V14.223A4.222,4.222,0,0,1,54.223,10h59.123A4.222,4.222,0,0,1,117.569,14.223Zm0,0" transform="translate(-39.442 -7.888)" fill="#8c6df2"/>
  <path id="Trazado_101830" data-name="Trazado 101830" d="M302.112,60a2.112,2.112,0,1,0,2.112,2.112A2.112,2.112,0,0,0,302.112,60Zm0,0" transform="translate(-236.654 -47.331)"/>
  <path id="Trazado_101831" data-name="Trazado 101831" d="M135.9,60H102.112a2.112,2.112,0,0,0,0,4.223H135.9a2.112,2.112,0,0,0,0-4.223Zm0,0" transform="translate(-78.885 -47.331)"/>
  <path id="Trazado_101832" data-name="Trazado 101832" d="M86.573,91.218H80.238V75.17a2.111,2.111,0,0,0-2.112-2.112H63.346V66.724a2.111,2.111,0,0,0-2.112-2.112H46.454v-9.08H61.234a2.111,2.111,0,0,0,2.112-2.112V40.753a2.111,2.111,0,0,0-2.112-2.112H46.454v-9.08H73.9a6.342,6.342,0,0,0,6.335-6.335V6.335A6.342,6.342,0,0,0,73.9,0H14.781A6.342,6.342,0,0,0,8.446,6.335V23.227a6.342,6.342,0,0,0,6.335,6.335h27.45v9.08H27.45a2.111,2.111,0,0,0-2.112,2.112V53.422a2.111,2.111,0,0,0,2.112,2.112H42.231v9.08H27.45a2.111,2.111,0,0,0-2.112,2.112v6.335H10.558A2.111,2.111,0,0,0,8.446,75.17V91.218H2.112A2.111,2.111,0,0,0,0,93.33V106a2.111,2.111,0,0,0,2.112,2.112H19A2.111,2.111,0,0,0,21.115,106V93.33A2.111,2.111,0,0,0,19,91.218H12.669V77.282H25.338v2.112a2.111,2.111,0,0,0,2.112,2.112H42.231v9.713H35.9a2.111,2.111,0,0,0-2.112,2.112V106A2.111,2.111,0,0,0,35.9,108.11H52.788A2.111,2.111,0,0,0,54.9,106V93.33a2.111,2.111,0,0,0-2.112-2.112H46.454V81.505H61.234a2.111,2.111,0,0,0,2.112-2.112V77.282H76.015V91.218H69.68a2.111,2.111,0,0,0-2.112,2.112V106a2.111,2.111,0,0,0,2.112,2.112H86.573A2.111,2.111,0,0,0,88.684,106V93.33A2.111,2.111,0,0,0,86.573,91.218Zm-69.68,4.223v8.446H4.223V95.441Zm-2.112-70.1a2.113,2.113,0,0,1-2.112-2.112V6.335a2.113,2.113,0,0,1,2.112-2.112H73.9a2.113,2.113,0,0,1,2.112,2.112V23.227A2.113,2.113,0,0,1,73.9,25.338ZM29.561,51.31V42.864H59.123V51.31ZM50.677,95.441v8.446H38.008V95.441Zm8.446-18.159H29.561V68.836H59.123Zm25.338,26.605H71.792V95.441H84.461Zm0,0"/>
</svg>
