<svg xmlns="http://www.w3.org/2000/svg" width="81" height="81" viewBox="0 0 81 81">
  <g id="Grupo_83438" data-name="Grupo 83438" transform="translate(-325 -788)">
    <g id="Elipse_4093" data-name="Elipse 4093" transform="translate(325 788)" fill="#fff" stroke="#5038a1" stroke-width="3">
      <circle cx="40.5" cy="40.5" r="40.5" stroke="none"/>
      <circle cx="40.5" cy="40.5" r="39" fill="none"/>
    </g>
    <g id="flete-aereo" transform="translate(335.334 802)">
      <path id="Trazado_106136" data-name="Trazado 106136" d="M407.967,216.557a2.168,2.168,0,0,1,0,3.067l-5.519,5.519-.858-5.273,3.312-3.312A2.167,2.167,0,0,1,407.967,216.557Zm0,0" transform="translate(-358.058 -192.07)" fill="#fafaff"/>
      <path id="Trazado_106137" data-name="Trazado 106137" d="M220.1,46.858a2.168,2.168,0,0,1,0,3.065l-3.312,3.312-5.273-.858,5.519-5.519A2.168,2.168,0,0,1,220.1,46.858Zm0,0" transform="translate(-188.592 -40.766)" fill="#fafaff"/>
      <g id="Grupo_83434" data-name="Grupo 83434" transform="translate(1.083 8.569)">
        <path id="Trazado_106138" data-name="Trazado 106138" d="M46.861,79.908,33.493,93.276,14.6,79.593a2.574,2.574,0,0,1,1.923-4.624Zm0,0" transform="translate(-13.151 -74.935)" fill="#ffdc72"/>
        <path id="Trazado_106139" data-name="Trazado 106139" d="M22.1,308.321l.109.058a72.36,72.36,0,0,0-3.585,6.832l-.107-.05-7.479-5.177a2.42,2.42,0,0,1,2.06-4.311Zm0,0" transform="translate(-9.999 -280.574)" fill="#8c6df2"/>
        <path id="Trazado_106140" data-name="Trazado 106140" d="M127.566,399.5a2.42,2.42,0,0,1-4.311,2.06l-5.177-7.479-.05-.107a73.265,73.265,0,0,0,6.655-3.478l.236,0Zm0,0" transform="translate(-106.317 -356.293)" fill="#8c6df2"/>
        <path id="Trazado_106141" data-name="Trazado 106141" d="M286.675,221.86a2.574,2.574,0,0,1-4.624,1.923l-13.683-18.9,13.368-13.368Zm0,0" transform="translate(-240.36 -178.882)" fill="#ffdc72"/>
      </g>
      <path id="Trazado_106142" data-name="Trazado 106142" d="M114.442,11.407c-1.786-1.785-5.73-.842-9.463,2.038-1.474,1.141.134-.374-26.866,26.625a28.122,28.122,0,0,0-3.885,5.221A87.5,87.5,0,0,0,68.34,57.51a87.982,87.982,0,0,0,12.041-5.782,28.608,28.608,0,0,0,5.4-3.992C112.648,20.867,111.227,22.391,112.4,20.87,115.285,17.137,116.228,13.194,114.442,11.407Zm0,0" transform="translate(-60.933 -8.917)" fill="#fafaff"/>
      <path id="Trazado_106143" data-name="Trazado 106143" d="M238.6,254.526a1.084,1.084,0,1,0,1.533,0A1.083,1.083,0,0,0,238.6,254.526Zm0,0" transform="translate(-212.457 -226.206)"/>
      <path id="Trazado_106144" data-name="Trazado 106144" d="M43.384,3.672c-1.86,1.44-2.367,2.182-8.964,8.711l-3.955-.644,1.815-1.815a3.252,3.252,0,0,0-4.6-4.6l-5.126,5.126L4.626,7.533A3.658,3.658,0,0,0,1.894,14.1L19.76,27.042l-3.345,3.345a27.2,27.2,0,0,0-3.592,4.691l-8.332-2.45a3.5,3.5,0,0,0-2.982,6.242L8.339,43.6c-1.189,2.624-1.912,4.521-1.945,4.609a1.084,1.084,0,0,0,1.4,1.4c.088-.033,1.985-.756,4.609-1.945l4.729,6.83a3.5,3.5,0,0,0,6.242-2.983l-2.45-8.331a27.219,27.219,0,0,0,4.691-3.592l3.345-3.345L41.9,54.106a3.658,3.658,0,0,0,6.573-2.733L45.549,33.447l5.126-5.126a3.252,3.252,0,0,0-4.6-4.6l-1.815,1.815-.644-3.955c6.536-6.6,7.266-7.1,8.707-8.959l.006-.007c3.343-4.333,4.126-8.709,1.946-10.89S47.718.326,43.384,3.672ZM29.213,6.858a1.084,1.084,0,1,1,1.534,1.532L27.827,11.31l-2.637-.429ZM3.166,12.348A1.49,1.49,0,0,1,4.279,9.672l28.252,4.6L21.312,25.49Zm-.608,22.7a1.336,1.336,0,0,1,1.322-.337L11.672,37c-.8,1.4-1.6,2.937-2.4,4.606L2.743,37.089A1.336,1.336,0,0,1,2.558,35.046Zm18.4,18.4a1.337,1.337,0,0,1-2.043-.185l-4.518-6.526c1.67-.8,3.212-1.607,4.606-2.4l2.291,7.792A1.336,1.336,0,0,1,20.955,53.442ZM47.61,25.254a1.084,1.084,0,0,1,1.532,1.534L45.12,30.809l-.429-2.637ZM46.328,51.72a1.49,1.49,0,0,1-2.676,1.114L30.51,34.688,41.729,23.47ZM24.08,38.052a27.3,27.3,0,0,1-5.189,3.829,80.322,80.322,0,0,1-9.509,4.737,79.292,79.292,0,0,1,4.842-9.683,26.837,26.837,0,0,1,3.724-5.015C44.428,5.5,42.859,6.867,44.466,5.582A5.629,5.629,0,0,1,48.91,7.09a5.63,5.63,0,0,1,1.508,4.444C49.13,13.145,50.477,11.592,24.08,38.052ZM52.273,8.686a7.154,7.154,0,0,0-4.958-4.959c1.569-.8,4.211-1.687,5.428-.47C53.7,4.219,53.465,6.335,52.273,8.686Zm0,0" transform="translate(0 0)"/>
      <path id="Trazado_106145" data-name="Trazado 106145" d="M269.961,197.958l-3.066,3.065a1.084,1.084,0,0,0,1.533,1.533l3.065-3.066a1.084,1.084,0,0,0-1.533-1.533Zm0,0" transform="translate(-237.682 -175.77)"/>
      <path id="Trazado_106146" data-name="Trazado 106146" d="M326.524,141.388l-3.067,3.067a1.084,1.084,0,1,0,1.533,1.533l3.067-3.067a1.084,1.084,0,0,0-1.533-1.533Zm0,0" transform="translate(-288.112 -125.332)"/>
    </g>
  </g>
</svg>
