<svg xmlns="http://www.w3.org/2000/svg" width="180" height="131" viewBox="0 0 180 131">
  <g id="Grupo_83460" data-name="Grupo 83460" transform="translate(-554 -5045)">
    <g id="Grupo_83456" data-name="Grupo 83456" transform="translate(-4.911 -21)">
      <g id="avion" transform="translate(611.31 5071)">
        <path id="Trazado_106171" data-name="Trazado 106171" d="M96.909,184.007H22.225A14.225,14.225,0,0,1,8,169.782V152H98.687l12.447,12.447v5.335A14.225,14.225,0,0,1,96.909,184.007Z" transform="translate(-6.222 -105.771)" fill="#ffdc72"/>
        <path id="Trazado_106172" data-name="Trazado 106172" d="M31.116,71.116H8V48h8.891Z" transform="translate(-6.222 -24.887)" fill="#8c6df2"/>
        <g id="Grupo_83453" data-name="Grupo 83453" transform="translate(33.785 17.778)">
          <path id="Trazado_106173" data-name="Trazado 106173" d="M166.225,294.233H152V248h35.564Z" transform="translate(-152 -198.211)" fill="#5038a1"/>
          <path id="Trazado_106174" data-name="Trazado 106174" d="M166.225,24H152V52.451h32.007Z" transform="translate(-152 -24)" fill="#5038a1"/>
        </g>
        <g id="Grupo_83454" data-name="Grupo 83454" transform="translate(19.56 53.342)">
          <path id="Trazado_106175" data-name="Trazado 106175" d="M88,184h14.225v7.113H88Z" transform="translate(-88 -184)" fill="#f4f4e6"/>
          <path id="Trazado_106176" data-name="Trazado 106176" d="M184,184h14.225v7.113H184Z" transform="translate(-162.662 -184)" fill="#f4f4e6"/>
          <path id="Trazado_106177" data-name="Trazado 106177" d="M280,184h14.225v7.113H280Z" transform="translate(-237.324 -184)" fill="#f4f4e6"/>
          <path id="Trazado_106178" data-name="Trazado 106178" d="M392,191.113h17.782v-1.778L404.447,184H392Z" transform="translate(-324.429 -184)" fill="#f4f4e6"/>
        </g>
        <g id="Grupo_83455" data-name="Grupo 83455" transform="translate(14.225 17.778)">
          <path id="Trazado_106181" data-name="Trazado 106181" d="M64,400H78.225v3.556H64Z" transform="translate(-64 -316.426)" fill="#aabece"/>
          <path id="Trazado_106182" data-name="Trazado 106182" d="M96,432h7.113v3.556H96Z" transform="translate(-88.887 -341.313)" fill="#aabece"/>
        </g>
        <path id="Trazado_106183" data-name="Trazado 106183" d="M96,176H81.778A1.778,1.778,0,0,0,80,177.778v7.113a1.778,1.778,0,0,0,1.778,1.778H96a1.778,1.778,0,0,0,1.778-1.778v-7.113A1.778,1.778,0,0,0,96,176Zm-1.778,7.113H83.556v-3.556H94.225Z" transform="translate(-62.218 -124.436)"/>
        <path id="Trazado_106184" data-name="Trazado 106184" d="M192,176H177.778A1.778,1.778,0,0,0,176,177.778v7.113a1.778,1.778,0,0,0,1.778,1.778H192a1.778,1.778,0,0,0,1.778-1.778v-7.113A1.778,1.778,0,0,0,192,176Zm-1.778,7.113H179.556v-3.556h10.669Z" transform="translate(-136.88 -124.436)"/>
        <path id="Trazado_106185" data-name="Trazado 106185" d="M288,176H273.778A1.778,1.778,0,0,0,272,177.778v7.113a1.778,1.778,0,0,0,1.778,1.778H288a1.778,1.778,0,0,0,1.778-1.778v-7.113A1.778,1.778,0,0,0,288,176Zm-1.778,7.113H275.556v-3.556h10.669Z" transform="translate(-211.542 -124.436)"/>
        <path id="Trazado_106186" data-name="Trazado 106186" d="M106.17,57.419,93.722,44.972a1.778,1.778,0,0,0-1.257-.521H66.778L49.519,16.836A1.778,1.778,0,0,0,48.011,16H33.785a1.778,1.778,0,0,0-1.778,1.778V44.451H25.888l-13.7-22.27a1.778,1.778,0,0,0-1.515-.846H1.778A1.778,1.778,0,0,0,0,23.113v40.9a16.021,16.021,0,0,0,16,16h16V113.8a1.778,1.778,0,0,0,1.778,1.778H48.011a1.778,1.778,0,0,0,1.615-1.033l15.938-34.53H90.687a16.021,16.021,0,0,0,16-16V58.676A1.778,1.778,0,0,0,106.17,57.419ZM102.4,58.676H88.909V55.12h9.933ZM35.564,19.556h11.46L62.592,44.451H35.564ZM3.556,24.891H9.675l12.036,19.56H3.556Zm43.316,87.131H35.564V69.345H66.57ZM90.687,76.458H67.2l3.759-8.146a1.778,1.778,0,0,0-1.615-2.523H33.785a1.778,1.778,0,0,0-1.778,1.778v8.891H16A12.461,12.461,0,0,1,3.556,64.011v-16H91.729l3.556,3.556H87.131a1.778,1.778,0,0,0-1.778,1.778v7.113a1.778,1.778,0,0,0,1.778,1.778h16v1.778A12.461,12.461,0,0,1,90.687,76.458Z"/>
        <path id="Trazado_106189" data-name="Trazado 106189" d="M64,400H78.225v3.556H64Z" transform="translate(-49.775 -298.648)"/>
        <path id="Trazado_106190" data-name="Trazado 106190" d="M96,432h7.113v3.556H96Z" transform="translate(-74.662 -323.535)"/>
      </g>
      <g id="proteger" transform="translate(462.519 5071.761)">
        <path id="Trazado_106162" data-name="Trazado 106162" d="M166.551,19.654a12.7,12.7,0,0,1-7.777-10.62,1.254,1.254,0,0,0-1.26-1.139l-13.18.077h-.267l-13.18.077a1.264,1.264,0,0,0-1.248,1.173,12.7,12.7,0,0,1-7.662,10.7,1.812,1.812,0,0,0-1.087,1.857c.605,5.785,4.129,25.485,23.338,34.346a.6.6,0,0,0,.256.056.607.607,0,0,0,.255-.058c19.1-9.085,22.4-28.823,22.933-34.617A1.821,1.821,0,0,0,166.551,19.654Zm0,0" transform="translate(-6.191 -6.113)" fill="#ffdc72"/>
        <path id="Trazado_106163" data-name="Trazado 106163" d="M258.7,19.654a12.7,12.7,0,0,1-7.777-10.62,1.255,1.255,0,0,0-1.26-1.139l-7.255.043a12.7,12.7,0,0,0,7.815,11.712,1.831,1.831,0,0,1,1.13,1.854c-.5,5.371-3.367,22.729-19.008,32.47a39.535,39.535,0,0,0,4.031,2.15.608.608,0,0,0,.256.055.6.6,0,0,0,.255-.058c19.1-9.085,22.4-28.823,22.933-34.617A1.822,1.822,0,0,0,258.7,19.654Zm0,0" transform="translate(-98.338 -6.113)" fill="#ffb74d"/>
        <path id="Trazado_106164" data-name="Trazado 106164" d="M168.8,74.032C155.655,66.9,151.843,53.666,150.75,47.173a.7.7,0,0,1,.316-.707,16.988,16.988,0,0,0,7.356-9.661.7.7,0,0,1,.667-.5l19.651-.115a.7.7,0,0,1,.672.491,16.991,16.991,0,0,0,7.469,9.574.694.694,0,0,1,.325.7c-1.016,6.505-4.671,19.782-17.732,27.068A.7.7,0,0,1,168.8,74.032Zm0,0" transform="translate(-30.877 -29.506)" fill="#fff"/>
        <path id="Trazado_106165" data-name="Trazado 106165" d="M254.21,46.257a16.994,16.994,0,0,1-7.469-9.574.7.7,0,0,0-.672-.491l-7.924.046a16.989,16.989,0,0,0,7.6,10.02.692.692,0,0,1,.324.7c-.908,5.814-3.926,17.039-13.884,24.561a33.243,33.243,0,0,0,3.945,2.512.7.7,0,0,0,.675,0c13.06-7.287,16.716-20.563,17.732-27.069A.693.693,0,0,0,254.21,46.257Zm0,0" transform="translate(-98.206 -29.506)" fill="#f2f2f2"/>
        <path id="Trazado_106167" data-name="Trazado 106167" d="M219.406,105.743a1.313,1.313,0,0,0,1.979-.225l8.651-13.055a1.3,1.3,0,1,0-2.167-1.436l-7.8,11.765-4.332-4.113a1.3,1.3,0,1,0-1.79,1.885Zm0,0" transform="translate(-82.798 -74.358)" fill="#5038a1"/>
        <path id="Trazado_106168" data-name="Trazado 106168" d="M137.494,51.21a1.926,1.926,0,0,0,.8.174h.011a1.9,1.9,0,0,0,.806-.184c19.764-9.4,23.113-29.679,23.669-35.671a3.107,3.107,0,0,0-1.916-3.17,11.359,11.359,0,0,1-6.98-9.533A2.567,2.567,0,0,0,151.333.5h-.016L124.691.656a2.546,2.546,0,0,0-2.536,2.373,11.361,11.361,0,0,1-6.878,9.6,3.1,3.1,0,0,0-1.868,3.187C114.034,21.8,117.621,42.043,137.494,51.21ZM116.3,15.02a13.948,13.948,0,0,0,8.445-11.765l26.55-.156a13.95,13.95,0,0,0,8.569,11.66.523.523,0,0,1,.325.53c-.521,5.615-3.64,24.549-21.9,33.421-18.367-8.657-21.705-27.554-22.293-33.163A.512.512,0,0,1,116.3,15.02Zm0,0"/>
        <path id="Trazado_106169" data-name="Trazado 106169" d="M144.227,45.619a1.371,1.371,0,0,0,1.6.913,1.3,1.3,0,0,0,.913-1.595c-.331-1.22-.609-2.457-.828-3.682a18.279,18.279,0,0,0,7.437-9.746l18.77-.11a18.278,18.278,0,0,0,7.551,9.658c-.2,1.229-.468,2.469-.785,3.694a1.3,1.3,0,1,0,2.517.652c.372-1.438.676-2.9.9-4.338a1.987,1.987,0,0,0-.937-2.016,15.686,15.686,0,0,1-6.9-8.842,2.01,2.01,0,0,0-1.91-1.41h-.012l-19.652.115a2.01,2.01,0,0,0-1.906,1.433,15.687,15.687,0,0,1-6.794,8.923,1.987,1.987,0,0,0-.913,2.027C143.519,42.732,143.838,44.186,144.227,45.619Zm0,0" transform="translate(-24.683 -23.393)"/>
        <path id="Trazado_106170" data-name="Trazado 106170" d="M192.378,147.633a1.3,1.3,0,0,0-1.7.705A32.738,32.738,0,0,1,176.544,164.8a32.751,32.751,0,0,1-14.34-16.317,1.3,1.3,0,0,0-2.392,1.018,35.258,35.258,0,0,0,15.782,17.743,1.99,1.99,0,0,0,1.928-.011,35.247,35.247,0,0,0,15.562-17.9A1.3,1.3,0,0,0,192.378,147.633Zm0,0" transform="translate(-38.29 -121.553)"/>
      </g>
    </g>
    <rect id="Rectángulo_8161" data-name="Rectángulo 8161" width="180" height="131" transform="translate(554 5045)" fill="none"/>
  </g>
</svg>
