<svg xmlns="http://www.w3.org/2000/svg" width="180" height="131" viewBox="0 0 180 131">
  <g id="Grupo_83461" data-name="Grupo 83461" transform="translate(-868 -5045)">
    <g id="Grupo_83457" data-name="Grupo 83457" transform="translate(16 -21)">
      <g id="manual" transform="translate(926.629 5089.877)">
        <path id="Trazado_106148" data-name="Trazado 106148" d="M66.955,7.164v81.5a2.008,2.008,0,0,1-2.007,2.007H6.379a2.008,2.008,0,0,1-2.007-2.007V7.164A2.006,2.006,0,0,1,6.379,5.156H64.947A2.006,2.006,0,0,1,66.955,7.164Zm0,0" transform="translate(-3.197 -4.121)" fill="#8c6df2"/>
        <path id="Trazado_106149" data-name="Trazado 106149" d="M91.316,7.164v81.5a2.008,2.008,0,0,1-2.007,2.007H36.859a2.008,2.008,0,0,1-2.007-2.007V7.164a2.006,2.006,0,0,1,2.007-2.007h52.45A2.006,2.006,0,0,1,91.316,7.164Zm0,0" transform="translate(-27.559 -4.121)" fill="#ffdc72"/>
        <path id="Trazado_106150" data-name="Trazado 106150" d="M45.978,431.148H39.152v13.5a.478.478,0,0,0,.8.352l6.024-5.536L52,445a.478.478,0,0,0,.8-.352v-13.5Zm0,0" transform="translate(-30.996 -344.599)" fill="#5038a1"/>
        <path id="Trazado_106151" data-name="Trazado 106151" d="M86.037,116H81.772a18.7,18.7,0,0,0-1.513-3.645l3.019-3.019a1.888,1.888,0,0,0,0-2.666l-4.2-4.2-.734-.735a1.888,1.888,0,0,0-2.666,0l-3.015,3.015a18.678,18.678,0,0,0-3.649-1.509V98.98A1.887,1.887,0,0,0,67.122,97.1H60.149a1.884,1.884,0,0,0-1.887,1.883v4.268l-.048.012a18.675,18.675,0,0,0-3.6,1.5l-2.284-2.28-.735-.735a1.882,1.882,0,0,0-2.661,0L44,106.673a1.888,1.888,0,0,0,0,2.666l3.019,3.019a18.5,18.5,0,0,0-1.6,3.975H41.239a1.883,1.883,0,0,0-1.887,1.879v6.978a1.888,1.888,0,0,0,1.887,1.891h4.368a17.951,17.951,0,0,0,1.409,3.32L44,133.416a1.887,1.887,0,0,0,0,2.665l4.939,4.939a1.882,1.882,0,0,0,2.661,0L54.616,138a18.588,18.588,0,0,0,2.871,1.264c.237.085.474.161.719.233a.2.2,0,0,0,.056.016v4.267a1.888,1.888,0,0,0,1.887,1.887h6.973a1.89,1.89,0,0,0,1.887-1.887v-4.267A18.973,18.973,0,0,0,72.663,138l1.256,1.26,1.755,1.759a1.888,1.888,0,0,0,2.666,0l.734-.731,4.2-4.208a1.887,1.887,0,0,0,0-2.665l-3.019-3.011a18.837,18.837,0,0,0,1.513-3.649h4.264a1.891,1.891,0,0,0,1.887-1.891v-6.973A1.887,1.887,0,0,0,86.037,116ZM73.39,127.421a11.633,11.633,0,0,1-3.746,3.742,11.459,11.459,0,0,1-13.51-1.076,11.563,11.563,0,0,1-2.458-2.971,11.468,11.468,0,1,1,19.713.305Zm0,0" transform="translate(-31.155 -77.606)" fill="#d8d6d7"/>
        <path id="Trazado_106152" data-name="Trazado 106152" d="M102.487,116H98.223a18.7,18.7,0,0,0-1.513-3.645l3.019-3.019a1.888,1.888,0,0,0,0-2.666l-4.2-4.2-.734-.735a1.888,1.888,0,0,0-2.666,0l-3.015,3.015a18.678,18.678,0,0,0-3.649-1.509V98.98A1.887,1.887,0,0,0,83.573,97.1H79.434a2.619,2.619,0,0,0-.59,1.662v2.971a.748.748,0,0,1-.526.71,18.658,18.658,0,0,0-2.726,1.14.617.617,0,0,1-.711-.1l-.216-.217a18.675,18.675,0,0,0-3.6,1.5l-2.284-2.28-4.2,4.2a1.888,1.888,0,0,0,0,2.666l2.633,2.63a.753.753,0,0,1,.129.875,18.807,18.807,0,0,0-1.188,2.951.757.757,0,0,1-.719.538H61.82a1.885,1.885,0,0,0-1.887,1.879v6.236a2.632,2.632,0,0,0,2.633,2.633h3.079a.737.737,0,0,1,.7.494,17.618,17.618,0,0,0,1,2.356.745.745,0,0,1-.14.859l-2.629,2.626a1.887,1.887,0,0,0,0,2.665l4.2,4.2L71.066,138a18.589,18.589,0,0,0,2.871,1.264c.237.085.474.161.719.233l.152-.156a.716.716,0,0,1,.852-.145,19.064,19.064,0,0,0,2.661,1.1.754.754,0,0,1,.522.711v2.023a2.633,2.633,0,0,0,2.634,2.634h2.1a1.89,1.89,0,0,0,1.887-1.887v-4.267A18.973,18.973,0,0,0,89.113,138l1.256,1.26,1.755,1.759a1.888,1.888,0,0,0,2.666,0l.734-.731,4.2-4.208a1.887,1.887,0,0,0,0-2.665l-3.019-3.011a18.835,18.835,0,0,0,1.513-3.649h4.264a1.891,1.891,0,0,0,1.887-1.891v-6.973A1.887,1.887,0,0,0,102.487,116ZM89.84,127.421a11.633,11.633,0,0,1-3.746,3.742,11.459,11.459,0,0,1-13.51-1.076,11.563,11.563,0,0,1-2.458-2.971,11.468,11.468,0,1,1,19.713.305Zm0,0" transform="translate(-47.606 -77.606)" fill="#fff"/>
        <g id="Grupo_83439" data-name="Grupo 83439" transform="translate(0.371)">
          <path id="Trazado_106153" data-name="Trazado 106153" d="M61.75,0H3.181A2.814,2.814,0,0,0,.371,2.81v81.5a2.814,2.814,0,0,0,2.81,2.81H7.352v12.7a1.283,1.283,0,0,0,2.149.943l5.48-5.037c5.712,5.249,5.838,5.716,6.863,5.267a1.282,1.282,0,0,0,.765-1.174V87.124H61.749a2.814,2.814,0,0,0,2.81-2.81V2.81A2.813,2.813,0,0,0,61.75,0ZM21,99.079l-5.478-5.036a.8.8,0,0,0-1.087,0L8.959,99.079V87.123H21V99.079ZM62.955,84.312a1.206,1.206,0,0,1-1.2,1.2H3.182a1.206,1.206,0,0,1-1.2-1.2V2.81a1.206,1.206,0,0,1,1.2-1.2H61.75a1.206,1.206,0,0,1,1.2,1.2Zm0,0" transform="translate(-0.371)" fill="#491352"/>
          <path id="Trazado_106154" data-name="Trazado 106154" d="M103.372,158.759a12.275,12.275,0,0,0-2.63,15.417c6.232,10.844,22.915,6.412,22.915-6.116A12.287,12.287,0,0,0,103.372,158.759Zm8.012,19.968c-9.937,0-14.386-12.348-6.964-18.751a10.668,10.668,0,1,1,6.964,18.751Zm0,0" transform="translate(-79.288 -124.498)" fill="#491352"/>
          <path id="Trazado_106155" data-name="Trazado 106155" d="M82.716,110.869H79.038a19.364,19.364,0,0,0-1.118-2.7l2.6-2.6a2.689,2.689,0,0,0,0-3.8l-4.939-4.934a2.7,2.7,0,0,0-3.8,0l-2.6,2.6a19.493,19.493,0,0,0-2.7-1.117V94.64a2.693,2.693,0,0,0-2.69-2.69H56.81a2.693,2.693,0,0,0-2.69,2.69v3.677a19.543,19.543,0,0,0-2.7,1.117l-2.6-2.6a2.686,2.686,0,0,0-3.8,0l-4.937,4.935a2.69,2.69,0,0,0,0,3.8l2.6,2.6a19.561,19.561,0,0,0-1.219,3.021H37.89a2.692,2.692,0,0,0-2.69,2.687v6.983a2.693,2.693,0,0,0,2.69,2.69h3.788a18.673,18.673,0,0,0,1.005,2.371l-2.6,2.6a2.7,2.7,0,0,0,0,3.8l4.937,4.94a2.69,2.69,0,0,0,3.8,0l2.6-2.6a19.91,19.91,0,0,0,2.7,1.117v3.679a2.693,2.693,0,0,0,2.69,2.69h6.98a2.693,2.693,0,0,0,2.69-2.69v-3.679a19.909,19.909,0,0,0,2.7-1.117l2.6,2.6a2.7,2.7,0,0,0,3.8,0l4.94-4.94a2.7,2.7,0,0,0,0-3.8l-2.6-2.6a19.487,19.487,0,0,0,1.118-2.7h3.678a2.693,2.693,0,0,0,2.69-2.69v-6.98A2.694,2.694,0,0,0,82.716,110.869Zm1.084,9.67a1.086,1.086,0,0,1-1.084,1.084c-4.354,0-4.81-.191-5.037.575-1.576,5.306-3.119,2.648,1.706,7.464a1.087,1.087,0,0,1,0,1.534l-4.939,4.939a1.089,1.089,0,0,1-1.532,0l-3.015-3.02a.8.8,0,0,0-.952-.138,18.329,18.329,0,0,1-3.5,1.45.8.8,0,0,0-.573.769v4.268a1.086,1.086,0,0,1-1.084,1.084H56.81a1.086,1.086,0,0,1-1.084-1.084V135.2a.8.8,0,0,0-.572-.769,18.3,18.3,0,0,1-3.495-1.45.8.8,0,0,0-.952.137l-3.021,3.021a1.083,1.083,0,0,1-1.529,0l-4.937-4.94a1.087,1.087,0,0,1,0-1.533l3.017-3.021a.8.8,0,0,0,.136-.954,17.043,17.043,0,0,1-1.346-3.173.8.8,0,0,0-.768-.566H37.89a1.086,1.086,0,0,1-1.084-1.084v-6.983A1.084,1.084,0,0,1,37.89,112.8h4.176a.8.8,0,0,0,.774-.589,17.982,17.982,0,0,1,1.534-3.8.8.8,0,0,0-.137-.952l-3.018-3.022a1.082,1.082,0,0,1,0-1.531l4.938-4.935a1.1,1.1,0,0,1,1.529,0l3.021,3.017a.8.8,0,0,0,.951.137,17.9,17.9,0,0,1,3.492-1.446.8.8,0,0,0,.576-.77V94.639a1.086,1.086,0,0,1,1.084-1.084h6.98a1.085,1.085,0,0,1,1.084,1.084v4.268a.8.8,0,0,0,.576.77,17.743,17.743,0,0,1,3.494,1.446.8.8,0,0,0,.952-.137l3.017-3.016a1.086,1.086,0,0,1,1.534,0l4.939,4.934a1.083,1.083,0,0,1,0,1.532l-3.02,3.021a.8.8,0,0,0-.136.954,17.831,17.831,0,0,1,1.449,3.492.8.8,0,0,0,.769.574h4.268A1.086,1.086,0,0,1,83.8,113.56Zm0,0" transform="translate(-28.208 -73.491)" fill="#491352"/>
        </g>
      </g>
      <g id="proteger" transform="translate(778.608 5071.761)">
        <path id="Trazado_106162" data-name="Trazado 106162" d="M166.551,19.654a12.7,12.7,0,0,1-7.777-10.62,1.254,1.254,0,0,0-1.26-1.139l-13.18.077h-.267l-13.18.077a1.264,1.264,0,0,0-1.248,1.173,12.7,12.7,0,0,1-7.662,10.7,1.812,1.812,0,0,0-1.087,1.857c.605,5.785,4.129,25.485,23.338,34.346a.6.6,0,0,0,.256.056.607.607,0,0,0,.255-.058c19.1-9.085,22.4-28.823,22.933-34.617A1.821,1.821,0,0,0,166.551,19.654Zm0,0" transform="translate(-6.191 -6.113)" fill="#ffdc72"/>
        <path id="Trazado_106163" data-name="Trazado 106163" d="M258.7,19.654a12.7,12.7,0,0,1-7.777-10.62,1.255,1.255,0,0,0-1.26-1.139l-7.255.043a12.7,12.7,0,0,0,7.815,11.712,1.831,1.831,0,0,1,1.13,1.854c-.5,5.371-3.367,22.729-19.008,32.47a39.535,39.535,0,0,0,4.031,2.15.608.608,0,0,0,.256.055.6.6,0,0,0,.255-.058c19.1-9.085,22.4-28.823,22.933-34.617A1.822,1.822,0,0,0,258.7,19.654Zm0,0" transform="translate(-98.338 -6.113)" fill="#ffb74d"/>
        <path id="Trazado_106164" data-name="Trazado 106164" d="M168.8,74.032C155.655,66.9,151.843,53.666,150.75,47.173a.7.7,0,0,1,.316-.707,16.988,16.988,0,0,0,7.356-9.661.7.7,0,0,1,.667-.5l19.651-.115a.7.7,0,0,1,.672.491,16.991,16.991,0,0,0,7.469,9.574.694.694,0,0,1,.325.7c-1.016,6.505-4.671,19.782-17.732,27.068A.7.7,0,0,1,168.8,74.032Zm0,0" transform="translate(-30.877 -29.506)" fill="#fff"/>
        <path id="Trazado_106165" data-name="Trazado 106165" d="M254.21,46.257a16.994,16.994,0,0,1-7.469-9.574.7.7,0,0,0-.672-.491l-7.924.046a16.989,16.989,0,0,0,7.6,10.02.692.692,0,0,1,.324.7c-.908,5.814-3.926,17.039-13.884,24.561a33.243,33.243,0,0,0,3.945,2.512.7.7,0,0,0,.675,0c13.06-7.287,16.716-20.563,17.732-27.069A.693.693,0,0,0,254.21,46.257Zm0,0" transform="translate(-98.206 -29.506)" fill="#f2f2f2"/>
        <path id="Trazado_106167" data-name="Trazado 106167" d="M219.406,105.743a1.313,1.313,0,0,0,1.979-.225l8.651-13.055a1.3,1.3,0,1,0-2.167-1.436l-7.8,11.765-4.332-4.113a1.3,1.3,0,1,0-1.79,1.885Zm0,0" transform="translate(-82.798 -74.358)" fill="#5038a1"/>
        <path id="Trazado_106168" data-name="Trazado 106168" d="M137.494,51.21a1.926,1.926,0,0,0,.8.174h.011a1.9,1.9,0,0,0,.806-.184c19.764-9.4,23.113-29.679,23.669-35.671a3.107,3.107,0,0,0-1.916-3.17,11.359,11.359,0,0,1-6.98-9.533A2.567,2.567,0,0,0,151.333.5h-.016L124.691.656a2.546,2.546,0,0,0-2.536,2.373,11.361,11.361,0,0,1-6.878,9.6,3.1,3.1,0,0,0-1.868,3.187C114.034,21.8,117.621,42.043,137.494,51.21ZM116.3,15.02a13.948,13.948,0,0,0,8.445-11.765l26.55-.156a13.95,13.95,0,0,0,8.569,11.66.523.523,0,0,1,.325.53c-.521,5.615-3.64,24.549-21.9,33.421-18.367-8.657-21.705-27.554-22.293-33.163A.512.512,0,0,1,116.3,15.02Zm0,0"/>
        <path id="Trazado_106169" data-name="Trazado 106169" d="M144.227,45.619a1.371,1.371,0,0,0,1.6.913,1.3,1.3,0,0,0,.913-1.595c-.331-1.22-.609-2.457-.828-3.682a18.279,18.279,0,0,0,7.437-9.746l18.77-.11a18.278,18.278,0,0,0,7.551,9.658c-.2,1.229-.468,2.469-.785,3.694a1.3,1.3,0,1,0,2.517.652c.372-1.438.676-2.9.9-4.338a1.987,1.987,0,0,0-.937-2.016,15.686,15.686,0,0,1-6.9-8.842,2.01,2.01,0,0,0-1.91-1.41h-.012l-19.652.115a2.01,2.01,0,0,0-1.906,1.433,15.687,15.687,0,0,1-6.794,8.923,1.987,1.987,0,0,0-.913,2.027C143.519,42.732,143.838,44.186,144.227,45.619Zm0,0" transform="translate(-24.683 -23.393)"/>
        <path id="Trazado_106170" data-name="Trazado 106170" d="M192.378,147.633a1.3,1.3,0,0,0-1.7.705A32.738,32.738,0,0,1,176.544,164.8a32.751,32.751,0,0,1-14.34-16.317,1.3,1.3,0,0,0-2.392,1.018,35.258,35.258,0,0,0,15.782,17.743,1.99,1.99,0,0,0,1.928-.011,35.247,35.247,0,0,0,15.562-17.9A1.3,1.3,0,0,0,192.378,147.633Zm0,0" transform="translate(-38.29 -121.553)"/>
      </g>
    </g>
    <rect id="Rectángulo_8162" data-name="Rectángulo 8162" width="180" height="131" transform="translate(868 5045)" fill="none"/>
  </g>
</svg>
