<svg xmlns="http://www.w3.org/2000/svg" width="1010.026" height="341.525" viewBox="0 0 1010.026 341.525">
  <g id="Grupo_83512" data-name="Grupo 83512" transform="translate(-300.48 -589.082)">
    <g id="Grupo_83474" data-name="Grupo 83474" transform="translate(926.648 867.091)">
      <g id="Grupo_83471" data-name="Grupo 83471" transform="translate(1.864 0)">
        <path id="Trazado_106192" data-name="Trazado 106192" d="M1992.448,1372.4H1945.2l.18-55.256h24.963l.09.223Zm-46.531-.711H1991.4l-21.534-53.833h-23.772Z" transform="translate(-1945.202 -1317.147)" fill="#2b478b"/>
      </g>
      <g id="Grupo_83472" data-name="Grupo 83472" transform="translate(14.68)">
        <path id="Trazado_106193" data-name="Trazado 106193" d="M2038.1,1372.4h-59.339v-.712h58.288l-21.533-53.833h-36.755v-.711H2016l.09.224Z" transform="translate(-1978.763 -1317.146)" fill="#2b478b"/>
      </g>
      <rect id="Rectángulo_8164" data-name="Rectángulo 8164" width="25.954" height="2.614" transform="translate(26.766 0.356)" fill="#2b478b"/>
      <rect id="Rectángulo_8165" data-name="Rectángulo 8165" width="25.954" height="2.614" transform="translate(31.391 12.006)" fill="#2b478b"/>
      <rect id="Rectángulo_8166" data-name="Rectángulo 8166" width="25.954" height="2.614" transform="translate(36.015 23.656)" fill="#2b478b"/>
      <rect id="Rectángulo_8167" data-name="Rectángulo 8167" width="25.918" height="2.614" transform="translate(41.158 35.306)" fill="#2b478b"/>
      <rect id="Rectángulo_8168" data-name="Rectángulo 8168" width="25.566" height="2.614" transform="translate(46.11 46.956)" fill="#2b478b"/>
      <path id="Trazado_106194" data-name="Trazado 106194" d="M2061.074,1470.173a2.342,2.342,0,1,1,2.342,2.342A2.342,2.342,0,0,1,2061.074,1470.173Z" transform="translate(-2014.964 -1410.292)" fill="#2b478b"/>
      <g id="Grupo_83473" data-name="Grupo 83473" transform="translate(1.884 0.215)">
        <rect id="Rectángulo_8169" data-name="Rectángulo 8169" width="59.813" height="0.712" transform="matrix(0.411, -0.912, 0.912, 0.411, 0, 54.533)" fill="#2b478b"/>
      </g>
      <rect id="Rectángulo_8170" data-name="Rectángulo 8170" width="0.976" height="3.268" transform="translate(47.963 54.596)" fill="#2b478b"/>
      <path id="Trazado_106195" data-name="Trazado 106195" d="M1940.32,1470.489a2.342,2.342,0,1,1,2.342,2.342A2.342,2.342,0,0,1,1940.32,1470.489Z" transform="translate(-1940.32 -1410.488)" fill="#2b478b"/>
      <rect id="Rectángulo_8171" data-name="Rectángulo 8171" width="0.977" height="3.268" transform="translate(1.854 54.717)" fill="#2b478b"/>
      <path id="Trazado_106196" data-name="Trazado 106196" d="M2126.731,1470.173a2.342,2.342,0,1,1,2.342,2.342A2.342,2.342,0,0,1,2126.731,1470.173Z" transform="translate(-2055.55 -1410.292)" fill="#2b478b"/>
      <rect id="Rectángulo_8172" data-name="Rectángulo 8172" width="0.976" height="2.63" transform="translate(73.034 55.234)" fill="#2b478b"/>
    </g>
    <rect id="Rectángulo_8173" data-name="Rectángulo 8173" width="3.526" height="19.398" transform="translate(800.125 893.383)" fill="#2c3a64"/>
    <rect id="Rectángulo_8174" data-name="Rectángulo 8174" width="3.526" height="19.398" transform="translate(808.058 893.383)" fill="#2c3a64"/>
    <g id="Grupo_83475" data-name="Grupo 83475" transform="translate(811.125 889.524)">
      <path id="Trazado_106197" data-name="Trazado 106197" d="M1638.7,1399.758l-.917-1.214c.076-.058,7.6-5.819,5.846-10.763-1.946-5.5-3.527-11.437-3.543-11.5l1.47-.39c.015.058,1.582,5.938,3.507,11.38C1647.181,1393.266,1639.045,1399.5,1638.7,1399.758Z" transform="translate(-1637.781 -1375.895)" fill="#2c3a64"/>
    </g>
    <g id="Grupo_83476" data-name="Grupo 83476" transform="translate(465.227 892.124)">
      <path id="Trazado_106198" data-name="Trazado 106198" d="M732.832,1405.935l-.905-1.088c.068-.057,6.764-5.706,5.193-10.59-1.725-5.368-3.127-11.163-3.141-11.222l1.376-.331c.014.057,1.4,5.8,3.113,11.119C740.33,1399.617,733.139,1405.68,732.832,1405.935Z" transform="translate(-731.927 -1382.704)" fill="#233862"/>
    </g>
    <path id="Trazado_106199" data-name="Trazado 106199" d="M1617.515,1358.246h-30.361l-.132-18.446,30.442-.643Z" transform="translate(-795.28 -463.661)" fill="#699ff0"/>
    <path id="Trazado_106200" data-name="Trazado 106200" d="M2555.677,589.082l-29.709,158.286-1.419-.037-153.67-3.907s68.955-21.37,75.457-30.513c6.125-8.616,70.144-110,90.543-122.132a7.211,7.211,0,0,1,3.241-1.182Z" transform="translate(-1279.823)" fill="#5038a1"/>
    <path id="Trazado_106201" data-name="Trazado 106201" d="M2524.549,750.078l-153.67-3.907s68.955-21.37,75.457-30.513c6.125-8.616,70.144-110,90.543-122.132-16.288,29.284-53.814,99.507-50.117,118.525C2490.285,730.164,2513.212,744.167,2524.549,750.078Z" transform="translate(-1279.823 -2.746)" fill="#8c6df2"/>
    <path id="Trazado_106202" data-name="Trazado 106202" d="M1308.347,1031.29c-.182.2-.375.4-.567.591a16.444,16.444,0,0,1-1.222,1.1h-.005v.005c-.212.172-.433.339-.66.507s-.458.325-.695.483h0v.005c-.236.153-.478.3-.729.449s-.507.286-.768.423h-.005v.005c-.256.133-.527.261-.8.384h-.005v.005l-.236.1h-.005v.005c-.084.034-.167.074-.251.113-.005,0-.005,0-.005,0v.005c-.089.034-.177.074-.266.113h-.005v.005c-.094.039-.187.084-.281.123h-.005v0c-.1.039-.2.084-.3.128h-.005v.005l-.31.133h0V1036c-.109.044-.212.094-.325.143l-.34.147h-.005v.005c-.118.049-.232.1-.355.152s-.246.1-.369.163c-.252.109-.507.217-.779.335h0v.005c-.133.054-.271.113-.4.172h0v.005c-.139.059-.281.118-.424.177-.1.045-.2.089-.306.133-1.113.478-2.35,1.01-3.715,1.586q-.377.155-.768.325c-3.562,1.508-7.9,3.311-12.874,5.35-.512.207-1.034.423-1.566.64l-2.666,1.089-.591.237c-.276.113-.557.226-.837.345l-.847.339c-.286.118-.572.232-.858.35s-.576.232-.867.35l-.877.355-.887.355c-.3.118-.6.241-.892.359a0,0,0,0,0-.005.005c-.3.118-.6.236-.9.359-.217.089-.434.172-.65.266-.089.03-.173.064-.261.1h-.005c-.306.123-.611.241-.916.365q-2.321.931-4.74,1.892l-2.823,1.123q-1.227.481-2.473.976c-.621.247-1.246.493-1.882.744-2.453.961-4.976,1.951-7.552,2.951-.522.2-1.04.4-1.562.611q-1.345.517-2.709,1.044-1.234.481-2.483.961l-2.784,1.069c-30.925,11.864-68.5,25.441-103.525,36.044q-1.84.554-3.676,1.1c-.611.182-1.222.365-1.828.542-1.222.364-2.433.719-3.645,1.069q-5.447,1.589-10.775,3.055c-1.183.325-2.355.646-3.527.961l-1.754.473c-1.163.311-2.326.615-3.478.916s-2.3.6-3.439.882-2.271.572-3.4.852-2.246.552-3.355.818-2.217.527-3.311.784-2.187.5-3.266.744c-.537.123-1.079.242-1.611.359q-3.214.71-6.326,1.335c-.517.108-1.03.212-1.547.31q-1.537.3-3.049.586-3.016.569-5.918,1.044-2.173.362-4.271.666-1.4.207-2.764.384-2.047.273-4.015.488-2.624.288-5.089.473c-.823.064-1.636.113-2.429.158-.4.025-.793.044-1.187.06-.784.034-1.552.064-2.306.079-.271,0-.552.01-.842.019-.069,0-.138,0-.207.005-.182,0-.364.005-.551.01-.71.015-1.463.034-2.256.049l-.646.015-.813.015-1.281.029-.7.015-.714.015-1.473.029c-.5.01-1.015.02-1.537.034l-.793.015c-.656.015-1.331.024-2.02.039-.316.01-.636.015-.961.02l-2.089.044c-.3.005-.606.015-.911.02-.877.015-1.774.035-2.69.054q-3.828.075-8.124.163c-.354.005-.709.015-1.069.019l-2.178.045c-1.1.019-2.222.044-3.365.069-.463.005-.926.015-1.39.025q-1.618.029-3.281.064c-.4.01-.8.015-1.2.024l-2.311.044c-.837.015-1.68.029-2.532.049-.448.01-.9.015-1.35.025-.423.01-.847.015-1.276.024-.675.015-1.355.025-2.04.04q-5.919.11-12.322.236c-.615.01-1.236.019-1.862.034q-1.419.022-2.867.054-3.348.06-6.809.128c-.178,0-.36.005-.537.01q-2.993.052-6.07.114c-.094,0-.192,0-.291,0-12.214.222-25.378.463-39.281.714-.7,0-1.409.02-2.118.034q-4.228.074-8.533.153-2.7.044-5.425.094c-.1,0-.2,0-.3.005q-3.1.052-6.252.108c-.256.005-.517.005-.778.015q-5.535.089-11.194.192-1.448.022-2.9.049l-.882.015q-4.951.082-9.981.168l-4.394.073c-.971.015-1.946.029-2.922.049q-2.963.044-5.952.1l-8.967.147c-.271.005-.542.005-.808.015-1.236.015-2.473.039-3.715.059-.084,0-.172,0-.261.005l-11.129.177c-.1,0-.207.005-.31.005q-3.865.066-7.75.128c-1.66.025-3.326.055-5,.079-1.035.02-2.069.034-3.109.054q-6.481.1-13.016.2h-.113q-10.826.162-21.776.33l-3,.045h-.212q-4.8.073-9.6.143c-.99.015-1.976.029-2.966.039q-4.131.066-8.272.123-8.41.111-16.83.232l-10.627.147q-3.34.038-6.671.089l-15.859.207c-.251,0-.5.005-.754.009q-4.966.06-9.912.123-7.051.089-14.046.168c-1.872.024-3.739.044-5.6.069-.572,0-1.133.01-1.7.019q-5.653.067-11.243.128c-.547.005-1.1.01-1.645.02q-3.835.037-7.641.079c-10.76.113-21.333.221-31.654.315q-1.87.015-3.725.034c-.759.005-1.513.01-2.266.02-1.01.005-2.015.015-3.02.024q-3.015.023-5.991.049c-38.5.315-72.852.434-99.4.282q-4.057-.023-7.868-.055c-6.3-.054-12.085-.128-17.283-.221-14.726-.256-24.781-.685-28.816-1.3-21.781-3.33-58.6-14.036-81.749-26.609-13.957-7.587-22.939-15.854-20.643-23.589,2.927-9.849,10.7-16.367,18.84-21.4,7.055-4.37,14.386-7.616,19.061-10.952.271-.2.537-.384.788-.582a16.8,16.8,0,0,0,2.237-2.02c.1-.118.207-.221.325-.364a123.3,123.3,0,0,1,8.918-9.06,118.361,118.361,0,0,1,10.39-8.44.541.541,0,0,0,.064-.044c17.953-12.958,48.647-27.792,97.455-28.94,0,0,95.578-1.591,214.869-3.222h.01c11.888-.163,24.008-.325,36.3-.492h0l12.336-.163h.005q9.289-.118,18.672-.241h.01q15.637-.2,31.447-.394,3.162-.037,6.336-.079,6.319-.074,12.647-.153l25.338-.3q6.311-.074,12.617-.143c58.431-.65,115.556-1.177,164.3-1.429h0l5.7-.029c21.259-.1,40.818-.143,58.076-.123,8.257.015,15.987.045,23.121.084,25.831.162,43.877.547,50.967,1.227,18.421,1.764,38.951,3.094,57.672,4.064,1.543.084,3.074.163,4.587.236.079,0,.158,0,.232.01q3.481.178,6.848.33c.07.005.139.005.207.01q3.894.185,7.6.345c3.611.152,7.079.3,10.356.423q2.128.081,4.143.158c16.145.6,26.87.842,26.87.842s.089.276.247.793c.01.044.024.089.039.138q.059.207.133.458c.093.335.2.729.32,1.172.153.587.325,1.266.508,2.025,0,0,0,.009.005.009q.066.281.133.577v.005c.148.63.3,1.31.454,2.035.108.507.212,1.035.315,1.577.054.3.113.6.167.912q.1.5.177,1.02c.084.493.163,1,.241,1.507.03.207.059.414.089.626.049.365.1.734.148,1.1.025.192.05.384.07.576.044.375.088.749.128,1.128.02.192.039.384.059.581.034.385.069.774.1,1.163C1314.544,1015.874,1313.742,1025.353,1308.347,1031.29Z" transform="translate(-37.313 -243.111)" fill="#ffdc72"/>
    <path id="Trazado_106203" data-name="Trazado 106203" d="M2706.96,1056.149c-5.011,2.278-20.042,8.643-40.708,16.86-9.946-29.039-34.009-39.257-34.009-39.257l83.774-17.569C2718.432,1026.541,2721.828,1049.4,2706.96,1056.149Z" transform="translate(-1441.385 -264.014)" fill="#5038a1"/>
    <g id="Grupo_83477" data-name="Grupo 83477" transform="translate(484.311 778.892)">
      <path id="Trazado_106204" data-name="Trazado 106204" d="M1623.985,1103.551h0c-2.789.026-5.083-2.51-5.1-5.636l-.031-6.018c-.016-3.126,2.253-5.705,5.041-5.731h0c2.788-.026,5.083,2.51,5.1,5.636l.031,6.018C1629.042,1100.946,1626.773,1103.525,1623.985,1103.551Z" transform="translate(-1299.268 -1086.166)" fill="#5038a1"/>
      <path id="Trazado_106205" data-name="Trazado 106205" d="M1555.495,1104.19h0c-2.788.026-5.083-2.51-5.1-5.636l-.031-6.018c-.016-3.126,2.253-5.705,5.041-5.731h0c2.788-.026,5.083,2.51,5.1,5.636l.031,6.018C1560.552,1101.585,1558.284,1104.164,1555.495,1104.19Z" transform="translate(-1256.93 -1086.56)" fill="#5038a1"/>
      <path id="Trazado_106206" data-name="Trazado 106206" d="M1487,1104.827h0c-2.789.026-5.083-2.51-5.1-5.636l-.031-6.018c-.016-3.126,2.252-5.7,5.041-5.731h0c2.788-.026,5.083,2.511,5.1,5.637l.031,6.018C1492.062,1102.222,1489.793,1104.8,1487,1104.827Z" transform="translate(-1214.593 -1086.954)" fill="#5038a1"/>
      <path id="Trazado_106207" data-name="Trazado 106207" d="M1418.514,1105.467h0c-2.788.026-5.083-2.51-5.1-5.636l-.031-6.018c-.016-3.126,2.252-5.705,5.04-5.731h0c2.789-.026,5.083,2.51,5.1,5.637l.031,6.018C1423.572,1102.862,1421.3,1105.441,1418.514,1105.467Z" transform="translate(-1172.256 -1087.35)" fill="#5038a1"/>
      <path id="Trazado_106208" data-name="Trazado 106208" d="M1350.025,1106.105h0c-2.789.026-5.083-2.51-5.1-5.636l-.031-6.018c-.016-3.126,2.252-5.7,5.04-5.731h0c2.789-.026,5.083,2.511,5.1,5.636l.031,6.018C1355.081,1103.5,1352.813,1106.079,1350.025,1106.105Z" transform="translate(-1129.919 -1087.744)" fill="#5038a1"/>
      <path id="Trazado_106209" data-name="Trazado 106209" d="M1281.534,1106.744h0c-2.789.026-5.083-2.51-5.1-5.636l-.031-6.018c-.016-3.126,2.252-5.7,5.041-5.731h0c2.788-.026,5.083,2.511,5.1,5.637l.031,6.018C1286.591,1104.138,1284.322,1106.717,1281.534,1106.744Z" transform="translate(-1087.581 -1088.138)" fill="#5038a1"/>
      <path id="Trazado_106210" data-name="Trazado 106210" d="M1213.044,1107.382h0c-2.788.026-5.083-2.51-5.1-5.636l-.031-6.018c-.016-3.126,2.252-5.705,5.041-5.731h0c2.788-.026,5.083,2.51,5.1,5.637l.031,6.018C1218.1,1104.777,1215.832,1107.356,1213.044,1107.382Z" transform="translate(-1045.243 -1088.533)" fill="#5038a1"/>
      <path id="Trazado_106211" data-name="Trazado 106211" d="M1144.553,1108.021h0c-2.788.026-5.083-2.51-5.1-5.636l-.031-6.018c-.016-3.126,2.252-5.7,5.041-5.731h0c2.788-.026,5.083,2.511,5.1,5.636l.031,6.018C1149.61,1105.416,1147.342,1108,1144.553,1108.021Z" transform="translate(-1002.905 -1088.929)" fill="#5038a1"/>
      <path id="Trazado_106212" data-name="Trazado 106212" d="M1076.063,1108.66h0c-2.789.026-5.083-2.511-5.1-5.637l-.031-6.018c-.016-3.126,2.252-5.7,5.041-5.731h0c2.788-.026,5.083,2.511,5.1,5.636l.031,6.018C1081.119,1106.054,1078.851,1108.633,1076.063,1108.66Z" transform="translate(-960.568 -1089.323)" fill="#5038a1"/>
      <path id="Trazado_106213" data-name="Trazado 106213" d="M1008.94,1109.285h0c-2.789.026-5.083-2.511-5.1-5.636l-.031-6.018c-.016-3.126,2.252-5.7,5.04-5.731h0c2.788-.026,5.083,2.511,5.1,5.637l.031,6.018C1014,1106.68,1011.728,1109.259,1008.94,1109.285Z" transform="translate(-919.076 -1089.71)" fill="#5038a1"/>
      <path id="Trazado_106214" data-name="Trazado 106214" d="M940.449,1109.924h0c-2.789.026-5.083-2.51-5.1-5.636l-.031-6.018c-.016-3.126,2.252-5.705,5.04-5.731h0c2.789-.026,5.083,2.51,5.1,5.636l.031,6.018C945.506,1107.319,943.237,1109.9,940.449,1109.924Z" transform="translate(-876.738 -1090.105)" fill="#5038a1"/>
      <path id="Trazado_106215" data-name="Trazado 106215" d="M871.959,1110.563h0c-2.789.026-5.083-2.51-5.1-5.636l-.031-6.018c-.016-3.126,2.252-5.7,5.04-5.731h0c2.789-.026,5.083,2.51,5.1,5.636l.031,6.018C877.015,1107.958,874.747,1110.537,871.959,1110.563Z" transform="translate(-834.401 -1090.5)" fill="#5038a1"/>
      <path id="Trazado_106216" data-name="Trazado 106216" d="M787.035,1110.563h0c-2.788.026-5.083-2.51-5.1-5.636l-.031-6.018c-.016-3.126,2.252-5.7,5.041-5.731h0c2.788-.026,5.083,2.51,5.1,5.636l.031,6.018C792.092,1107.958,789.824,1110.537,787.035,1110.563Z" transform="translate(-781.905 -1090.5)" fill="#5038a1"/>
    </g>
    <g id="Grupo_83478" data-name="Grupo 83478" transform="translate(1037.232 779.255)">
      <path id="Trazado_106217" data-name="Trazado 106217" d="M2372.031,1104.5h0c-2.788.026-5.083-2.511-5.1-5.636l-.031-6.018c-.016-3.126,2.253-5.705,5.041-5.731h0c2.789-.026,5.083,2.51,5.1,5.637l.031,6.018C2377.088,1101.9,2374.82,1104.476,2372.031,1104.5Z" transform="translate(-2314.595 -1087.116)" fill="#5038a1"/>
      <path id="Trazado_106218" data-name="Trazado 106218" d="M2303.541,1105.141h0c-2.789.026-5.083-2.51-5.1-5.637l-.031-6.017c-.016-3.126,2.252-5.705,5.041-5.731h0c2.789-.026,5.083,2.51,5.1,5.637l.031,6.018C2308.6,1102.536,2306.329,1105.115,2303.541,1105.141Z" transform="translate(-2272.258 -1087.511)" fill="#5038a1"/>
      <path id="Trazado_106219" data-name="Trazado 106219" d="M2235.05,1105.78h0c-2.788.026-5.083-2.51-5.1-5.636l-.031-6.018c-.016-3.125,2.252-5.7,5.041-5.731h0c2.789-.026,5.083,2.51,5.1,5.636l.031,6.018C2240.107,1103.175,2237.839,1105.754,2235.05,1105.78Z" transform="translate(-2229.92 -1087.906)" fill="#5038a1"/>
    </g>
    <g id="Grupo_83479" data-name="Grupo 83479" transform="translate(474.424 773.814)">
      <path id="Trazado_106220" data-name="Trazado 106220" d="M766.216,1124.7a10.162,10.162,0,0,1-7.191-2.925,9.428,9.428,0,0,1-2.859-6.7l-.155-32.343a9.97,9.97,0,0,1,10.05-9.8l8.086-.073a10.124,10.124,0,0,1,7.288,2.924,9.426,9.426,0,0,1,2.859,6.7l.155,32.343a9.971,9.971,0,0,1-10.051,9.8l-8.085.073Zm8.028-51.046h-.09l-8.085.073a9.178,9.178,0,0,0-9.266,9l.155,32.342a8.636,8.636,0,0,0,2.622,6.136,9.39,9.39,0,0,0,6.725,2.7l8.085-.073a9.177,9.177,0,0,0,9.266-9l-.155-32.343a8.639,8.639,0,0,0-2.623-6.136A9.373,9.373,0,0,0,774.244,1073.659Z" transform="translate(-756.012 -1072.866)" fill="#699ff0"/>
    </g>
    <path id="Trazado_106221" data-name="Trazado 106221" d="M489.674,1075.508l-16.085,18.377-10.489,1.694a17.048,17.048,0,0,0,2.236-2.018c.106-.118.207-.224.324-.363a123.913,123.913,0,0,1,8.918-9.063,119.087,119.087,0,0,1,10.394-8.437l.061-.044Z" transform="translate(-100.524 -300.686)" fill="#2b478b"/>
    <path id="Trazado_106222" data-name="Trazado 106222" d="M517.6,1076.132l-15.655,18.5,20,2.282,4.348-19.818Z" transform="translate(-124.536 -301.071)" fill="#2b478b"/>
    <path id="Trazado_106223" data-name="Trazado 106223" d="M566.124,1079.75l-2.827,18.5,14.133-5.525-.272-12.672Z" transform="translate(-162.461 -303.308)" fill="#2b478b"/>
    <rect id="Rectángulo_8175" data-name="Rectángulo 8175" width="35.672" height="18.257" transform="translate(444.572 879.318)" fill="#699ff0"/>
    <rect id="Rectángulo_8176" data-name="Rectángulo 8176" width="3.127" height="17.296" transform="translate(455.517 897.515)" fill="#233862"/>
    <rect id="Rectángulo_8177" data-name="Rectángulo 8177" width="3.127" height="17.296" transform="translate(462.553 897.515)" fill="#233862"/>
    <path id="Trazado_106224" data-name="Trazado 106224" d="M691.245,1438.214a10.644,10.644,0,1,1,10.631,10.118A10.383,10.383,0,0,1,691.245,1438.214Z" transform="translate(-241.552 -518.639)" fill="#233862"/>
    <ellipse id="Elipse_4094" data-name="Elipse 4094" cx="6.424" cy="6.114" rx="6.424" ry="6.114" transform="translate(453.899 913.641)" fill="#cae0ff"/>
    <g id="Grupo_83480" data-name="Grupo 83480" transform="translate(790.732 902.702)">
      <path id="Trazado_106225" data-name="Trazado 106225" d="M1584.374,1424.359c0-7.706,6.632-13.953,14.813-13.953s14.813,6.247,14.813,13.953-6.632,13.953-14.813,13.953S1584.374,1432.065,1584.374,1424.359Z" transform="translate(-1584.374 -1410.406)" fill="#2b478b"/>
      <path id="Trazado_106226" data-name="Trazado 106226" d="M1599.723,1433.947a8.968,8.968,0,1,1,8.952,8.432A8.7,8.7,0,0,1,1599.723,1433.947Z" transform="translate(-1593.862 -1419.746)" fill="#cae0ff"/>
    </g>
    <path id="Trazado_106227" data-name="Trazado 106227" d="M1474.044,1301.75c7.331-3.709,8.061-17.161,1.211-22.245s-16.018-9.969-25.786-9.743c-20.084.465-8.1,40.3-1.4,40.5C1452.008,1310.385,1464.284,1306.688,1474.044,1301.75Z" transform="translate(-703.386 -420.759)" fill="#8c6df2"/>
    <path id="Trazado_106228" data-name="Trazado 106228" d="M2623.981,997.008c.7-1.159,72.591-32.736,122.128-26.738l-43.908,33.9-75.741.735S2620.5,1002.8,2623.981,997.008Z" transform="translate(-1435.603 -235.165)" fill="#8c6df2"/>
    <g id="Grupo_83481" data-name="Grupo 83481" transform="translate(711.676 593.967)">
      <path id="Trazado_106229" data-name="Trazado 106229" d="M1801.793,601.875s-39.174,114.573-47.038,132.147-27.523,30.2-27.523,30.2l-.117.056-126.54,66.1s-165.463,2.766-201.578,2.251h-.007c-3.275-.052-5.49-.131-6.411-.233-11.082-1.274-16.645-5.824-14.937-9.985S1628.937,763.791,1656.593,758c.263-.058.526-.115.789-.164,26.9-5.814,28.545-15.316,28.545-15.316l92.739-129.368a14.343,14.343,0,0,1,5.548-5.7C1791.347,603.008,1801.793,601.875,1801.793,601.875Z" transform="translate(-1377.339 -601.875)" fill="#8c6df2"/>
      <path id="Trazado_106230" data-name="Trazado 106230" d="M1784.214,616.479c-24.774,36.708-93.328,137.965-100.08,145.057-7.261,7.632-230.338,65.741-285.136,80.115h-.007c-3.275-.052-5.49-.131-6.411-.233-11.082-1.273-16.645-5.824-14.937-9.985s251.295-58.614,278.951-64.408,29.334-15.48,29.334-15.48l92.739-129.367A14.341,14.341,0,0,1,1784.214,616.479Z" transform="translate(-1377.339 -610.902)" fill="#ffb74d"/>
      <path id="Trazado_106231" data-name="Trazado 106231" d="M2255.141,601.875s-39.174,114.573-47.038,132.147-27.522,30.2-27.522,30.2l-.117.056a220.011,220.011,0,0,1-69.733-6.442c26.9-5.814,28.545-15.316,28.545-15.316l92.738-129.368a14.345,14.345,0,0,1,5.548-5.7C2244.695,603.008,2255.141,601.875,2255.141,601.875Z" transform="translate(-1830.687 -601.875)" fill="#5038a1"/>
    </g>
    <path id="Trazado_106232" data-name="Trazado 106232" d="M387.357,1182.832c-.882,10.016-3.527,16.687-5.513,20.431-13.957-7.587-22.939-15.854-20.643-23.589,2.927-9.849,10.7-16.367,18.84-21.4l.172.414S388.834,1166.081,387.357,1182.832Z" transform="translate(-37.313 -351.849)" fill="#ffb74d"/>
    <g id="P297LW" transform="translate(496.79 843.927)">
      <path id="Trazado_106233" data-name="Trazado 106233" d="M859.567,1307.031s1.121,6.378,2.348,13.041c1.333,7.242,2.789,14.822,3.064,14.917.528.182,1.319-.867,1.682-1.746a41.527,41.527,0,0,0,.576-9.953,18.706,18.706,0,0,0-.256-2.148c-.5-2.39-.575-10.829-2.151-12.17S859.567,1307.031,859.567,1307.031Z" transform="translate(-842.39 -1287.729)" fill="#ffb27d"/>
      <path id="Trazado_106234" data-name="Trazado 106234" d="M874.627,1372.874a3.741,3.741,0,0,0,.124,2.066c.4,1.022.48,1.314-.253,1.888s-1.527,1.38-2.077,1.141-.21-4.917-.21-4.917Z" transform="translate(-850.142 -1328.43)" fill="#ffb27d"/>
      <path id="Trazado_106235" data-name="Trazado 106235" d="M872.219,1472.664c-.68-.415-.294-3.514-.294-3.514s3.171-2.537,3.607-.594,3.012,2.814,4.479,3.052a1.574,1.574,0,0,1,1.423,1.057Z" transform="translate(-849.962 -1387.123)" fill="#233862"/>
      <path id="Trazado_106236" data-name="Trazado 106236" d="M835.345,1472.664c-.68-.415-.293-3.514-.293-3.514s3.171-2.537,3.607-.594,3.012,2.814,4.479,3.052a1.575,1.575,0,0,1,1.423,1.057Z" transform="translate(-827.168 -1387.123)" fill="#233862"/>
      <path id="Trazado_106237" data-name="Trazado 106237" d="M845.018,1369.53c1.128,4.769,2.55,10.215,3.105,13.284.065.355.117.679.157.966s.065.538.076.746c.3,5.75,4.84,18.9,5.653,19.2,1.258.475,3.239-.534,4.276-.864a.889.889,0,0,0,.623-1.01c-2.251-10.348-3.638-25.157-3.939-33.979-.152-4.443-.354-7.6-.354-7.6s-11.086-2.957-11.152.784A49.373,49.373,0,0,0,845.018,1369.53Z" transform="translate(-832.435 -1319.954)" fill="#2a4e96"/>
      <path id="Trazado_106238" data-name="Trazado 106238" d="M847.537,1378.045c1.128,4.769,2.55,10.214,3.105,13.284.065.355.4,3.372.444,3.659l1.94-22.051-2.752.254Z" transform="translate(-834.954 -1328.47)" fill="#192e4f"/>
      <path id="Trazado_106239" data-name="Trazado 106239" d="M847.377,1288.036l0,.543s.148,1.7-1.942,1.945-3.672-.661-3.616-1.971a15.382,15.382,0,0,0,.409-2.549,5.924,5.924,0,0,0-.074-1.016l4.049-.081,1.193.2Z" transform="translate(-831.417 -1274.053)" fill="#ffb27d"/>
      <path id="Trazado_106240" data-name="Trazado 106240" d="M847.932,1284.615l-.015,2.935a3.42,3.42,0,0,1-1.459.322,4.521,4.521,0,0,1-3.692-2.355,5.916,5.916,0,0,0-.074-1.016l4.049-.081Z" transform="translate(-831.958 -1273.752)" fill="#ed975d"/>
      <path id="Trazado_106241" data-name="Trazado 106241" d="M840.79,1363.379l-3.911,40.865a10.957,10.957,0,0,1-5.511.215s-1.521-22.341-1.378-27.8-1.231-14.614.313-15.623S840.79,1363.379,840.79,1363.379Z" transform="translate(-823.843 -1320.994)" fill="#2a4e96"/>
      <path id="Trazado_106242" data-name="Trazado 106242" d="M846.6,1274.809s-5.186,1.048-5.788-2.191-1.678-5.286,1.608-6.091,4.16.31,4.625,1.342S847.929,1274.453,846.6,1274.809Z" transform="translate(-830.385 -1262.521)" fill="#ffb27d"/>
      <path id="Trazado_106243" data-name="Trazado 106243" d="M839.25,1271.167s-1.8.406-1.974-2.876c-.066-1.263-.38-5.7,3.23-5.548a7.359,7.359,0,0,1,5.583,2.633c2.464,2.781-3.531.711-4.329,1.357s-.038,1.71-.95,2.09-1.634.38-1.482,1.216S839.25,1271.167,839.25,1271.167Z" transform="translate(-828.589 -1260.35)" fill="#233862"/>
      <path id="Trazado_106244" data-name="Trazado 106244" d="M844.921,1261.573a17.757,17.757,0,0,1-2.609.721l-3.2.22-4.377.772s-.855-3.25,1.286-5.292h0c.053-.051.11-.1.167-.151a5.7,5.7,0,0,1,2.387-1.173C843.812,1255.355,844.9,1261.383,844.921,1261.573Z" transform="translate(-826.937 -1256.482)" fill="#ff9e55"/>
      <g id="Grupo_83482" data-name="Grupo 83482" transform="translate(9.043 1.354)">
        <path id="Trazado_106245" data-name="Trazado 106245" d="M844.657,1264.394l-.827.11c-.647-.855-3.04-3.821-5.563-4.26a.641.641,0,0,1,.042-.057h0c.044-.053.079-.079.141-.158l.026.007A12.143,12.143,0,0,1,844.657,1264.394Z" transform="translate(-838.267 -1260.028)" fill="#e27830"/>
      </g>
      <path id="Trazado_106246" data-name="Trazado 106246" d="M839.386,1272.279a3.585,3.585,0,0,0-.711,1.25c-.147.613-2.99.98-3.186.662a8.542,8.542,0,0,1-.481-1.139Z" transform="translate(-827.21 -1266.247)" fill="#ff9e55"/>
      <path id="Trazado_106247" data-name="Trazado 106247" d="M846.473,1269.364s5.237.1,7.631-1.162a.223.223,0,0,0-.048-.415,10.136,10.136,0,0,0-1.983-.223A10.261,10.261,0,0,1,846.473,1269.364Z" transform="translate(-834.296 -1263.332)" fill="#e27830"/>
      <path id="Trazado_106248" data-name="Trazado 106248" d="M817.429,1302.527s1.994-5.271,3.521-6.39a13.256,13.256,0,0,1,4.038-1.49c.431-.1.818-.185,1.119-.247.391-.079.635-.122.641-.123h0a1.735,1.735,0,0,0,.732.938,5,5,0,0,0,2.684.609,2.223,2.223,0,0,0,2.131-1.6h0s.1.031.289.088c.271.086.715.233,1.255.435,1.61.6,3.167.937,4.221,2.638a20.126,20.126,0,0,1,2.207,5.8,11.838,11.838,0,0,1-2.969,1.845.617.617,0,0,1-.228.013c.1,13.77.728,15.89.431,15.885,0,0-1.658,1.823-6,1.774a32.465,32.465,0,0,1-4.41-.332c-3.479-.516-4.465-1.233-4.451-1.595.012-.327.19-9.038.232-9.5a29.848,29.848,0,0,0,.089-5.885A14.26,14.26,0,0,1,817.429,1302.527Z" transform="translate(-816.343 -1279.812)" fill="#2a4e96"/>
      <path id="Trazado_106249" data-name="Trazado 106249" d="M845.983,1326.758a40.439,40.439,0,0,1-5.166.462q-.822.034-1.747.034c-1.387,0-2.917-.052-4.538-.206-.571-.052-1.153-.114-1.747-.194a41.431,41.431,0,0,1-4.544-.856l.234-3.533.074-1.17.08-1.17.08-1.17.959-14.556.532-9.038,1.985-.484.137.2.851,1.3a3.713,3.713,0,0,0,6.5-.674l.314-.765.343.125,1.992.731,1.433,9.653,1.421,13.585.12,1.158.12,1.136.12,1.165Z" transform="translate(-823.027 -1280.216)" fill="#ff9843"/>
      <path id="Trazado_106250" data-name="Trazado 106250" d="M846.825,1345.425a3.658,3.658,0,0,1,1.284-.638c.558-.082,1.5-.438,1.345-.108s-1.181.851-1.181.851Z" transform="translate(-834.514 -1310.916)" fill="#ffb27d"/>
      <g id="Grupo_83483" data-name="Grupo 83483" transform="translate(5.603 38.739)">
        <path id="Trazado_106251" data-name="Trazado 106251" d="M845.926,1359.167a24.981,24.981,0,0,1-7.644,1.114c-1.1,0-2.141-.058-3.082-.149a38.665,38.665,0,0,1-5.942-1.028l.08-1.17c2.843.748,10.1,2.226,16.468.074Z" transform="translate(-829.258 -1357.934)" fill="#fff"/>
      </g>
      <g id="Grupo_83484" data-name="Grupo 83484" transform="translate(5.449 41.079)">
        <path id="Trazado_106252" data-name="Trazado 106252" d="M845.916,1365.256a24.77,24.77,0,0,1-7.883,1.187c-1.1,0-2.141-.057-3.082-.143a38.609,38.609,0,0,1-6.1-1.068l.074-1.17c2.757.736,10.32,2.346,16.868.029Z" transform="translate(-828.854 -1364.063)" fill="#fff"/>
      </g>
      <path id="Trazado_106253" data-name="Trazado 106253" d="M815.021,1326.468s6.058,3.456,10.883,4.223c0,0,.959-1.246.665-1.785-.22-.4-7.039-4.791-7.076-4.927-.091-.334,1.061-2.4,1.718-4.747a17.6,17.6,0,0,1-5.248-2.611C815.116,1319.567,813.934,1324.125,815.021,1326.468Z" transform="translate(-814.584 -1293.657)" fill="#ffb27d"/>
      <g id="Grupo_83485" data-name="Grupo 83485" transform="translate(13.133 25.871)">
        <path id="Trazado_106254" data-name="Trazado 106254" d="M849.548,1343.949l2.837.346a.649.649,0,0,0,.7-.457l1.941-6.437a.649.649,0,0,0-.543-.832l-2.838-.346a.649.649,0,0,0-.7.457l-1.941,6.437A.649.649,0,0,0,849.548,1343.949Z" transform="translate(-848.978 -1331.642)" fill="#233862"/>
        <path id="Trazado_106255" data-name="Trazado 106255" d="M852.18,1344.27l2.838.346a.649.649,0,0,0,.7-.457l1.941-6.437a.65.65,0,0,0-.543-.832l-2.837-.346a.649.649,0,0,0-.7.457l-1.941,6.437A.649.649,0,0,0,852.18,1344.27Z" transform="translate(-850.604 -1331.84)" fill="#192e4f"/>
        <path id="Trazado_106256" data-name="Trazado 106256" d="M858.181,1330.177h0a.2.2,0,0,0,.2-.128l1.9-5.648a.12.12,0,0,0-.1-.165h0a.2.2,0,0,0-.2.128l-1.9,5.648A.12.12,0,0,0,858.181,1330.177Z" transform="translate(-854.6 -1324.235)" fill="#192e4f"/>
      </g>
      <path id="Trazado_106257" data-name="Trazado 106257" d="M843.1,1346.222a1.4,1.4,0,0,0,.864.218,2.4,2.4,0,0,0,.9-.339c.362-.246,1.162.079,1.4.237.662.441,2.9.424,2.9.865a3.432,3.432,0,0,1-2.148,2.048c-1.176.367-3.48-.392-3.48-.392Z" transform="translate(-832.212 -1311.826)" fill="#ffb27d"/>
    </g>
    <g id="Grupo_83489" data-name="Grupo 83489" transform="translate(816.757 869.831)">
      <path id="Trazado_106258" data-name="Trazado 106258" d="M1689.99,1413.323a5.538,5.538,0,0,0-2.174.716c-.41.46-.666.819-.41,1.023s4.144-.793,4.144-.793Z" transform="translate(-1674.026 -1379.339)" fill="#ffb27d"/>
      <path id="Trazado_106259" data-name="Trazado 106259" d="M1697.757,1396.978l-4.758,6.088a2.16,2.16,0,0,0,1.74.972c1.33.153,4.144-.716,4.144-.972S1697.757,1396.978,1697.757,1396.978Z" transform="translate(-1677.546 -1369.235)" fill="#2c3a64"/>
      <path id="Trazado_106260" data-name="Trazado 106260" d="M1665.532,1418.889c1.384,1.595,4.3,2.626,9.932,2.887q.678.032,1.363.053.706.021,1.413.031c1.531.021,3.053,0,4.5-.045,1.407-.048,2.746-.125,3.96-.226a26.33,26.33,0,0,0,5.249-.814,1.867,1.867,0,0,0,.622-.305,1.088,1.088,0,0,0,.243-.314,3.97,3.97,0,0,0-.259-2.928,28.31,28.31,0,0,0-2.546-4.924c-.155-.245-.293-.46-.411-.64-.236-.361-.382-.572-.382-.572s-2.63.244-6.231.711c-.735.095-1.51.2-2.312.313-7.741,1.1-15.455,3.063-15.448,5.674A1.415,1.415,0,0,0,1665.532,1418.889Z" transform="translate(-1660.381 -1377.959)" fill="#2b478b"/>
      <path id="Trazado_106261" data-name="Trazado 106261" d="M1691.123,1430.2c.47.015,2.652.109,3.123.115,1.531.021,3.053,0,4.5-.045l1.365-5.5C1698,1427.719,1691.8,1430.014,1691.123,1430.2Z" transform="translate(-1676.387 -1386.418)" fill="#2c3a64"/>
      <path id="Trazado_106262" data-name="Trazado 106262" d="M1690.916,1472.253h-7.5a1.335,1.335,0,0,1,1.1-.781c1.182-.207,3.234-.846,2.971-2.553-.266-1.729,2.612-1.952,2.612-1.952S1691.293,1471.594,1690.916,1472.253Z" transform="translate(-1671.62 -1412.498)" fill="#2c3a64"/>
      <path id="Trazado_106263" data-name="Trazado 106263" d="M1665.7,1426.589s9.31,14.647,10.084,16.387c0,0,3.168.295,3.93-1.968,0,0-5.534-15.456-7.967-16.73S1665.7,1426.589,1665.7,1426.589Z" transform="translate(-1660.672 -1385.941)" fill="#2b478b"/>
      <g id="Grupo_83486" data-name="Grupo 83486" transform="translate(11.117)">
        <path id="Trazado_106264" data-name="Trazado 106264" d="M1704.738,1343.034s-3.206,4.388-6.064,4.622a8.58,8.58,0,0,1,.782-2.055,1.39,1.39,0,0,0-.017-1.375q-.078-.135-.15-.261a16.789,16.789,0,0,1-.81-1.589l1.314-2.379.272-1.278a8.694,8.694,0,0,0,.772,1.611A6.089,6.089,0,0,0,1704.738,1343.034Z" transform="translate(-1692.051 -1333.222)" fill="#ffb27d"/>
        <path id="Trazado_106265" data-name="Trazado 106265" d="M1700.963,1342.324a3.691,3.691,0,0,1-1.673,3.659,16.851,16.851,0,0,1-.81-1.589l1.314-2.378C1700.844,1341.859,1700.963,1342.324,1700.963,1342.324Z" transform="translate(-1692.051 -1335.239)" fill="#ed975d"/>
        <path id="Trazado_106266" data-name="Trazado 106266" d="M1690.511,1338.443s4.021-2.191,2.618-4.675-1.829-4.438-4.455-3.145-2.586,2.521-2.32,3.464S1689.428,1338.948,1690.511,1338.443Z" transform="translate(-1684.481 -1327.963)" fill="#ffb27d"/>
        <path id="Trazado_106267" data-name="Trazado 106267" d="M1690.277,1325.183c.022-.062.1-.136.3-.227a.887.887,0,0,0-.428.039,1.127,1.127,0,0,0-1.05-.666.672.672,0,0,1,.475.337c-.8-.375-2.2-.336-5.485,1.247-4.335,2.086-1.737,4.426-1.024,4.549s1.8-1.39,2.916-1.72,1.929,1.174,2.379,1.25.158-.253.565-.672.777.4.843.994,1.022,1.049,1.022,1.049l.4-1.018c.4-1.017-.185-4.453-.76-5.012Z" transform="translate(-1681.644 -1324.322)" fill="#2b478b"/>
      </g>
      <path id="Trazado_106268" data-name="Trazado 106268" d="M1764.988,1465.881s.935,1.42,1.153,1.879a1.362,1.362,0,0,1-.851,1.586c-.566.13-.65,1.133-.65,1.133h2.742a.722.722,0,0,0,.664-.406,9.836,9.836,0,0,0,.553-2.329,5.593,5.593,0,0,0,.344-2.225c-.143-.79-1.493-1.247-3.956-1.24C1762.283,1464.289,1764.988,1465.881,1764.988,1465.881Z" transform="translate(-1721.303 -1410.838)" fill="#233862"/>
      <path id="Trazado_106269" data-name="Trazado 106269" d="M1715.993,1376.9c-2.068,2.191-17.254-2.342-15.981-3.5.324-.293.214-.646.345-1.119.63-2.242-.624-6.077-1.162-7.564-.126-.344-.212-.562-.228-.607a26.084,26.084,0,0,1-1.171-4.229c-.5-2.679-.491-5.171.194-6.7,0-.008.006-.015.01-.021,2.845-.831,4.411-5.016,4.411-5.016s9.012,2.559,12.282,15.418c0,0,.169.82.377,2.051h0c.063.377.13.794.2,1.238.349,2.288.552,5.222.759,7.407.008.076.015.153.023.232C1716.156,1375.431,1716.336,1376.53,1715.993,1376.9Z" transform="translate(-1680.295 -1339.048)" fill="#f99746"/>
      <path id="Trazado_106270" data-name="Trazado 106270" d="M1710.089,1417.744s1.514.2,4.567.424c3.164.235,6.517.733,7.062,1.8a4.576,4.576,0,0,1-.3,2.473,59.965,59.965,0,0,1-4.83,10.985c5.547.322,13.093,1.546,13.093,1.546a3.319,3.319,0,0,1,.717,3.029c-.4,0-1.586.171-3.211.433-5.885.947-13.052,2.9-17.5,2.9a2.139,2.139,0,0,1-2-1.593h0C1705.872,1434.174,1710.089,1417.744,1710.089,1417.744Z" transform="translate(-1686.349 -1382.071)" fill="#2b478b"/>
      <path id="Trazado_106271" data-name="Trazado 106271" d="M1717.955,1396.838c-2.067,2.193-18.532-2.244-17.262-3.4a3.944,3.944,0,0,0,.525-.683,5.581,5.581,0,0,0,.625-1.214c0-.006.006-.019.006-.025a5.721,5.721,0,0,0,.177-1.011,8.581,8.581,0,0,0,.044-1.283,16.268,16.268,0,0,0-.91-4.563c-.126-.347-.214-.563-.227-.607l.784-.784,2.87-2.863a14.126,14.126,0,0,0,2.452,2.054,17.722,17.722,0,0,0,10,3.1c.063.379.126.8.2,1.239.127.86.24,1.808.335,2.775.044.43.088.86.126,1.289.057.645.114,1.283.165,1.9.044.474.082.929.126,1.359,0,.032.006.056.006.088.007.076.019.152.026.228C1718.119,1395.372,1718.3,1396.471,1717.955,1396.838Z" transform="translate(-1682.259 -1358.99)" fill="#f99746"/>
      <path id="Trazado_106272" data-name="Trazado 106272" d="M1653.863,1405.323a11.747,11.747,0,0,0,2.841-.87c1.336-.128.047-1.443.047-1.443a23.346,23.346,0,0,0-2.452-.434,3.8,3.8,0,0,0-.512.1l.226.539s-1.464.222-1.482.629S1653.4,1405.323,1653.863,1405.323Z" transform="translate(-1652.531 -1372.694)" fill="#ffb27d"/>
      <path id="Trazado_106273" data-name="Trazado 106273" d="M1662.318,1374.034c-.322-.93.127-1.221.127-1.221s9.169-4.348,9.919-4.827,5.791-9.659,5.791-9.659,1.868-3.754,4.248-3.679a4.28,4.28,0,0,1,3.854,2.707,4.332,4.332,0,0,1-.783,4.819c-2.746,2.906-8.259,8.658-9.688,9.531-3.179,1.944-12.706,3.515-12.706,3.515A3.1,3.1,0,0,1,1662.318,1374.034Z" transform="translate(-1658.509 -1343.068)" fill="#2b478b"/>
      <g id="Grupo_83487" data-name="Grupo 83487" transform="translate(19.767 30.232)">
        <path id="Trazado_106274" data-name="Trazado 106274" d="M1719.967,1405.132a21.877,21.877,0,0,1-6.049.74,48.533,48.533,0,0,1-9.62-1.094,8.611,8.611,0,0,0,.044-1.283c1.245.272,9.981,2.105,15.5.348C1719.885,1404.272,1719.929,1404.7,1719.967,1405.132Z" transform="translate(-1704.298 -1403.495)" fill="#fff"/>
      </g>
      <g id="Grupo_83488" data-name="Grupo 83488" transform="translate(18.958 32.526)">
        <path id="Trazado_106275" data-name="Trazado 106275" d="M1718.949,1412.1a23.729,23.729,0,0,1-4.494.392,51.729,51.729,0,0,1-12.274-1.751,5.565,5.565,0,0,0,.625-1.214c0-.006.007-.019.007-.025,2.225.569,10.2,2.414,16.01,1.239C1718.866,1411.217,1718.9,1411.672,1718.949,1412.1Z" transform="translate(-1702.18 -1409.504)" fill="#fff"/>
      </g>
    </g>
    <g id="Grupo_83496" data-name="Grupo 83496" transform="translate(1140.495 743.197)">
      <rect id="Rectángulo_8178" data-name="Rectángulo 8178" width="18.721" height="3.02" transform="translate(33.81 76.777)" fill="#e27727"/>
      <g id="Grupo_83490" data-name="Grupo 83490" transform="translate(33.479 63.799)">
        <path id="Trazado_106276" data-name="Trazado 106276" d="M2607.412,1192.773h-19.383v-27.86c0-2.838,2.893-5.147,6.449-5.147h6.485c3.557,0,6.449,2.31,6.449,5.147Zm-18.721-.53h18.059v-27.33c0-2.547-2.6-4.618-5.787-4.618h-6.485c-3.19,0-5.787,2.071-5.787,4.618Z" transform="translate(-2588.029 -1159.766)" fill="#2b478b"/>
      </g>
      <g id="Grupo_83494" data-name="Grupo 83494" transform="translate(12.447)">
        <path id="Trazado_106277" data-name="Trazado 106277" d="M2649.832,1078.072c-.791.631-1.731-.017-2.94-.42s.3-1.764.3-1.764a.339.339,0,0,0,.115-.032,10.669,10.669,0,0,1,2.385-.709,2.2,2.2,0,0,1,.635.012C2651.763,1075.435,2650.622,1077.443,2649.832,1078.072Z" transform="translate(-2603.092 -1043.649)" fill="#ed975d"/>
        <path id="Trazado_106278" data-name="Trazado 106278" d="M2651.257,1076.125l-.454.522-1.687.109s-.232-.558-.389-.966a6.532,6.532,0,0,1,2.955-.764Z" transform="translate(-2604.517 -1043.583)" fill="#ffb27d"/>
        <g id="Grupo_83491" data-name="Grupo 83491" transform="translate(36.208 12.014)">
          <rect id="Rectángulo_8179" data-name="Rectángulo 8179" width="0.806" height="38.89" transform="matrix(0.883, 0.47, -0.47, 0.883, 18.284, 5.639)" fill="#2c3a64"/>
          <path id="Trazado_106279" data-name="Trazado 106279" d="M2672.836,1032.03l-13.791-2.71,1.834-5.172,13.791,2.709Z" transform="translate(-2647.103 -1024.148)" fill="#f99746"/>
        </g>
        <path id="Trazado_106280" data-name="Trazado 106280" d="M2656.249,1076.22s-1.048.474-1.167,1-.071,1.411.319,1.327a2.093,2.093,0,0,0,1.084-1.5A1.622,1.622,0,0,0,2656.249,1076.22Z" transform="translate(-2608.41 -1044.323)" fill="#ed975d"/>
        <path id="Trazado_106281" data-name="Trazado 106281" d="M2563.173,1030.142s-4.188,1.984-4.927,2.962,2.793,1.836,2.793,1.836l2.839-2.235Z" transform="translate(-2548.523 -1015.84)" fill="#2a4e96"/>
        <path id="Trazado_106282" data-name="Trazado 106282" d="M2648.331,1078.36a1.393,1.393,0,0,0,.933.554c.521,0,2.167.072,2.3-.231s-.908-1.092-1.361-1.076S2648.7,1077.688,2648.331,1078.36Z" transform="translate(-2604.273 -1045.181)" fill="#ffb27d"/>
        <path id="Trazado_106283" data-name="Trazado 106283" d="M2603.773,1054.222c.132-1.032-.4-1.236-.4-1.236s-10.426-2.515-11.305-2.848-8.08-8.739-8.08-8.739-2.745-3.479-5.191-2.887a4.523,4.523,0,0,0-3.4,3.634,4.579,4.579,0,0,0,1.853,4.815c3.469,2.411,10.417,7.17,12.084,7.764,3.709,1.323,13.905.887,13.905.887A3.268,3.268,0,0,0,2603.773,1054.222Z" transform="translate(-2559.113 -1020.972)" fill="#1f437c"/>
        <path id="Trazado_106284" data-name="Trazado 106284" d="M2596.128,1237.4l-8.745.048a.79.79,0,0,1-.186-.053c-.585-.289-.415-2.525-.348-3.216.012-.128.021-.2.021-.2s3.062-2.476,3.5-.595c.014.058.029.116.046.173h0c.543,1.759,2.933,2.546,4.313,2.762A1.5,1.5,0,0,1,2596.128,1237.4Z" transform="translate(-2566.221 -1141.033)" fill="#2c3a64"/>
        <path id="Trazado_106285" data-name="Trazado 106285" d="M2569.334,1024.918s3.034,2.576,6.044.778a9.894,9.894,0,0,0,.213-3.029c-.024-.152-.047-.3-.069-.44-.217-1.394-.3-2.183-.3-2.183h0c-.157-.036-5.265-1.194-5.233-1.032A8.589,8.589,0,0,1,2569.334,1024.918Z" transform="translate(-2555.44 -1008.95)" fill="#ffb27d"/>
        <path id="Trazado_106286" data-name="Trazado 106286" d="M2572.683,1021.067a7.573,7.573,0,0,0,4.907,2.4c-.217-1.394-.3-2.183-.3-2.183h0C2577.147,1021.269,2572.5,1020.838,2572.683,1021.067Z" transform="translate(-2557.507 -1010.189)" fill="#ed975d"/>
        <path id="Trazado_106287" data-name="Trazado 106287" d="M2574.375,1007.144s-5.161,2.167-6.46-1.068-2.841-5.133.4-6.653,4.38-.545,5.077.429S2575.685,1006.5,2574.375,1007.144Z" transform="translate(-2553.618 -996.363)" fill="#ffb27d"/>
        <path id="Trazado_106288" data-name="Trazado 106288" d="M2563.646,1003.284c-.065.059-1.162.609-4.085-3.384a3.851,3.851,0,0,1-.361-3.512c.58-1.443,2.15-2.5,4.434-3.349s4.174-.058,4.954,1.183a3.941,3.941,0,0,0,.483.613,1.362,1.362,0,0,1-1.135,2.277,5.2,5.2,0,0,0-2.023-.041c-.8.41-.879,1.8-.871,2.239s-.03.813-1.161.609-.229,1.595,0,1.929C2563.884,1001.847,2564.192,1002.789,2563.646,1003.284Z" transform="translate(-2549.011 -992.686)" fill="#2a4e96"/>
        <path id="Trazado_106289" data-name="Trazado 106289" d="M2539.889,1232.227l-3.3.018c-.691,0-1.463-.684-1.663-1.951s-1.624-1.951-1.937-2.987,1.254-2.506,1.254-2.506l.262-.34.272-.354,2.617.6s.068.622.113,1.414a17.963,17.963,0,0,1,.02,1.814c-.069,1.384.4,2.871,1.635,3.134S2539.889,1232.227,2539.889,1232.227Z" transform="translate(-2532.948 -1135.739)" fill="#2c3a64"/>
        <path id="Trazado_106290" data-name="Trazado 106290" d="M2584.281,1111.772s.087,5.872-.424,12.878c-.693,9.518-1.527,21.209-1.6,23.424-.132,3.845-.715,10-.715,10a4.834,4.834,0,0,1-4.377.869,100.634,100.634,0,0,1-3.446-18.048c-.012-.152-.024-.305-.037-.458-.743-9.452-1.928-29.356-1.928-29.356Z" transform="translate(-2556.934 -1065.871)" fill="#2a4e96"/>
        <path id="Trazado_106291" data-name="Trazado 106291" d="M2582.452,1112.978s.932,2.091-.713,8.922c-1.207,5.011-8.023,18.993-8.023,18.993-.012-.152-.024-.305-.037-.458-.743-9.452-1.928-29.356-1.928-29.356Z" transform="translate(-2556.934 -1065.871)" fill="#1f437c"/>
        <path id="Trazado_106292" data-name="Trazado 106292" d="M2561.167,1112.015s-8.689,22.229-14.169,32.176-7.2,12.723-7.2,12.723-3.177-1.251-3.471-2.114c0,0,2.012-19.156,5.693-23.843,2.08-2.648,3.733-10.733,3.833-13.5a38.229,38.229,0,0,1,.522-5.03Z" transform="translate(-2535.04 -1066.449)" fill="#2a4e96"/>
        <path id="Trazado_106293" data-name="Trazado 106293" d="M2575.7,1064.036c-8.509.942-17.916-.073-17.9-.8.011-.643-.022-2.182-.068-4.139q-.016-.55-.034-1.133-.016-.711-.034-1.455c-.011-.372-.022-.756-.034-1.145-.158-5.391-.361-11.56-.395-12.1-.141-2.369,1.246-2.741,1.46-4.793.4-3.818-5.436-5.075,3.762-8.273.271-.091,1.015.446,2.345,1.021a4.726,4.726,0,0,0,3.344-.107l1.4,1.28a14.7,14.7,0,0,1,3.237,5.374c.885,3.6,1.731,11.425,2.278,17.606.034.383.067.761.1,1.128.04.49.085.97.118,1.433.034.388.062.766.091,1.128C2575.608,1062.017,2575.732,1064.031,2575.7,1064.036Z" transform="translate(-2547.952 -1015.87)" fill="#f99746"/>
        <path id="Trazado_106294" data-name="Trazado 106294" d="M2545.063,1109.853a4.224,4.224,0,0,0,0,1.454c.152.588.924,2.23,1.18,2.141.936-.324.271-2.178.584-2.375.206-.13.02.746.2.929.216.22.433-.612.466-1.058s-.577-1.242-.577-1.242Z" transform="translate(-2540.394 -1065.019)" fill="#ffb27d"/>
        <path id="Trazado_106295" data-name="Trazado 106295" d="M2543.377,1062.934c.895-.063,1.009-.482,1.009-.482s1.2-10.617,1.392-11.538,7.349-9.363,7.349-9.363,3-3.262,2.028-5.583a4.526,4.526,0,0,0-4.127-2.784,4.637,4.637,0,0,0-4.538,2.528c-1.832,3.807-5.352,11.487-5.675,13.227-.719,3.872,1.507,13.736,1.507,13.736S2542.563,1062.992,2543.377,1062.934Z" transform="translate(-2537.723 -1017.713)" fill="#2a4e96"/>
        <g id="Grupo_83492" data-name="Grupo 83492" transform="translate(9.673 39.499)">
          <path id="Trazado_106296" data-name="Trazado 106296" d="M2575.818,1097.262a68.09,68.09,0,0,1-8.554.513,79.771,79.771,0,0,1-8.949-.5c-.011-.372-.023-.756-.034-1.145a74.951,74.951,0,0,0,17.436.006C2575.75,1096.517,2575.783,1096.9,2575.818,1097.262Z" transform="translate(-2558.28 -1096.128)" fill="#fff"/>
        </g>
        <g id="Grupo_83493" data-name="Grupo 83493" transform="translate(9.74 42.065)">
          <path id="Trazado_106297" data-name="Trazado 106297" d="M2576.136,1103.976a68.53,68.53,0,0,1-8.763.536,78.7,78.7,0,0,1-8.882-.5c-.011-.367-.023-.744-.034-1.133a75.131,75.131,0,0,0,17.589-.034C2576.08,1103.237,2576.108,1103.614,2576.136,1103.976Z" transform="translate(-2558.457 -1102.848)" fill="#fff"/>
        </g>
      </g>
      <rect id="Rectángulo_8180" data-name="Rectángulo 8180" width="52.718" height="8.946" transform="translate(5.32 174.336)" fill="#f99746"/>
      <path id="Trazado_106298" data-name="Trazado 106298" d="M2503.887,1464.572a3.727,3.727,0,1,1,3.727,3.684A3.7,3.7,0,0,1,2503.887,1464.572Z" transform="translate(-2502.537 -1282.107)" fill="#2b478b"/>
      <path id="Trazado_106299" data-name="Trazado 106299" d="M2508.68,1467.5a1.9,1.9,0,1,1,1.9,1.875A1.886,1.886,0,0,1,2508.68,1467.5Z" transform="translate(-2505.5 -1285.035)" fill="#f99746"/>
      <path id="Trazado_106300" data-name="Trazado 106300" d="M2642.216,1464.572a3.727,3.727,0,1,1,3.727,3.684A3.705,3.705,0,0,1,2642.216,1464.572Z" transform="translate(-2588.046 -1282.107)" fill="#2b478b"/>
      <path id="Trazado_106301" data-name="Trazado 106301" d="M2647.008,1467.5a1.9,1.9,0,1,1,1.9,1.875A1.886,1.886,0,0,1,2647.008,1467.5Z" transform="translate(-2591.008 -1285.035)" fill="#f99746"/>
      <rect id="Rectángulo_8181" data-name="Rectángulo 8181" width="63.359" height="6.859" transform="translate(0 168.239)" fill="#2b478b"/>
      <path id="Trazado_106302" data-name="Trazado 106302" d="M2573.443,1317.209l-22.415-11.569,21.738-11.24-1.514-.875-20.6-11.3,21.835-11.6-1.112-1.057-20.723-11.371,21.835-11.6-.695-1.279-22.666,12.04-21.933-12.035-.713,1.269,21.108,11.582-21.1,11.207-.954.575.945.662,21.108,11.582-22.583,11.692,22.854,11.75-22.328,11.567.682,1.285,23.23-12.035,23.319,12.036Zm-45.041-47.2,20.712-11,20.723,11.371-20.711,11Zm.073,23.988,20.639-10.963,20.581,11.293-20.252,10.491Z" transform="translate(-2515.592 -1148.851)" fill="#2b478b"/>
      <rect id="Rectángulo_8182" data-name="Rectángulo 8182" width="22.213" height="3.196" transform="translate(9.543 76.965)" fill="#f99746"/>
      <g id="Grupo_83495" data-name="Grupo 83495" transform="translate(9.182 63.963)">
        <path id="Trazado_106303" data-name="Trazado 106303" d="M2547.334,1193.25H2524.4V1165.8c0-3.092,3.151-5.608,7.025-5.608h8.885c3.874,0,7.025,2.515,7.025,5.608Zm-22.213-.576h21.491V1165.8c0-2.775-2.827-5.031-6.3-5.031h-8.885c-3.476,0-6.3,2.257-6.3,5.031Z" transform="translate(-2524.399 -1160.196)" fill="#2c3a64"/>
      </g>
      <rect id="Rectángulo_8183" data-name="Rectángulo 8183" width="55.466" height="3.408" transform="translate(2.584 95.903)" fill="#2b478b"/>
    </g>
    <circle id="Elipse_4095" data-name="Elipse 4095" cx="0.455" cy="0.455" r="0.455" transform="translate(344.496 816.199)" fill="#2a4e96"/>
    <path id="Trazado_106304" data-name="Trazado 106304" d="M419.56,1215.987a.455.455,0,1,1,.455.454A.455.455,0,0,1,419.56,1215.987Z" transform="translate(-73.609 -387.242)" fill="#2a4e96"/>
    <path id="Trazado_106305" data-name="Trazado 106305" d="M419.56,1252.533a.455.455,0,1,1,.455.454A.455.455,0,0,1,419.56,1252.533Z" transform="translate(-73.609 -409.833)" fill="#2a4e96"/>
    <path id="Trazado_106306" data-name="Trazado 106306" d="M379.086,1215.987a.455.455,0,1,1,.455.454A.455.455,0,0,1,379.086,1215.987Z" transform="translate(-48.59 -387.242)" fill="#2a4e96"/>
    <g id="Grupo_83497" data-name="Grupo 83497" transform="translate(374.262 845.983)">
      <path id="Trazado_106307" data-name="Trazado 106307" d="M511.682,1293H493.7V1267.26a5.4,5.4,0,0,1,5.394-5.394h7.19a5.4,5.4,0,0,1,5.394,5.394Zm-17.424-.554h16.869V1267.26a4.845,4.845,0,0,0-4.839-4.84H499.1a4.845,4.845,0,0,0-4.84,4.84Z" transform="translate(-493.704 -1261.866)" fill="#2a4e96"/>
    </g>
    <rect id="Rectángulo_8184" data-name="Rectángulo 8184" width="17.424" height="0.704" transform="translate(374.539 858.231)" fill="#ff9843"/>
    <g id="Grupo_83501" data-name="Grupo 83501" transform="translate(347.907 876.652)">
      <g id="Grupo_83498" data-name="Grupo 83498" transform="translate(1.582 0)">
        <path id="Trazado_106308" data-name="Trazado 106308" d="M468.909,1389.066H428.825l.153-46.881h21.179l.076.19Zm-39.478-.6h38.587l-18.27-45.673H429.58Z" transform="translate(-428.825 -1342.185)" fill="#2a4e96"/>
      </g>
      <g id="Grupo_83499" data-name="Grupo 83499" transform="translate(12.454 0)">
        <path id="Trazado_106309" data-name="Trazado 106309" d="M507.644,1389.066H457.3v-.6h49.453l-18.269-45.673H457.3v-.6h31.592l.076.19Z" transform="translate(-457.299 -1342.186)" fill="#2a4e96"/>
      </g>
      <rect id="Rectángulo_8185" data-name="Rectángulo 8185" width="22.02" height="2.218" transform="translate(22.709 0.302)" fill="#ffb74d"/>
      <rect id="Rectángulo_8186" data-name="Rectángulo 8186" width="22.02" height="2.218" transform="translate(26.633 10.186)" fill="#ffb74d"/>
      <rect id="Rectángulo_8187" data-name="Rectángulo 8187" width="22.021" height="2.218" transform="translate(30.556 20.07)" fill="#ffb74d"/>
      <rect id="Rectángulo_8188" data-name="Rectángulo 8188" width="21.99" height="2.218" transform="translate(34.92 29.954)" fill="#ffb74d"/>
      <rect id="Rectángulo_8189" data-name="Rectángulo 8189" width="21.691" height="2.218" transform="translate(39.12 39.839)" fill="#ffb74d"/>
      <path id="Trazado_106310" data-name="Trazado 106310" d="M527.133,1472.017A1.987,1.987,0,1,1,529.12,1474,1.987,1.987,0,0,1,527.133,1472.017Z" transform="translate(-488.013 -1421.213)" fill="#2a4e96"/>
      <g id="Grupo_83500" data-name="Grupo 83500" transform="translate(1.602 0.181)">
        <rect id="Rectángulo_8190" data-name="Rectángulo 8190" width="50.746" height="0.604" transform="translate(0 46.27) rotate(-65.754)" fill="#2a4e96"/>
      </g>
      <rect id="Rectángulo_8191" data-name="Rectángulo 8191" width="0.828" height="2.773" transform="translate(40.693 46.321)" fill="#2a4e96"/>
      <path id="Trazado_106311" data-name="Trazado 106311" d="M424.683,1472.286a1.987,1.987,0,1,1,1.987,1.987A1.987,1.987,0,0,1,424.683,1472.286Z" transform="translate(-424.683 -1421.379)" fill="#2a4e96"/>
      <rect id="Rectángulo_8192" data-name="Rectángulo 8192" width="0.828" height="2.773" transform="translate(1.573 46.423)" fill="#2a4e96"/>
      <path id="Trazado_106312" data-name="Trazado 106312" d="M582.838,1472.017a1.987,1.987,0,1,1,1.987,1.987A1.987,1.987,0,0,1,582.838,1472.017Z" transform="translate(-522.447 -1421.213)" fill="#2a4e96"/>
      <rect id="Rectángulo_8193" data-name="Rectángulo 8193" width="0.828" height="2.231" transform="translate(61.964 46.863)" fill="#2a4e96"/>
    </g>
    <g id="Grupo_83504" data-name="Grupo 83504" transform="translate(344.685 805.502)">
      <rect id="Rectángulo_8194" data-name="Rectángulo 8194" width="0.674" height="5.333" transform="matrix(0.984, -0.179, 0.179, 0.984, 4.407, 19.843)" fill="#2a4e96"/>
      <rect id="Rectángulo_8195" data-name="Rectángulo 8195" width="0.354" height="5.333" transform="translate(4.1 17.261) rotate(-10.304)" fill="#2a4e96"/>
      <path id="Trazado_106313" data-name="Trazado 106313" d="M419.955,1178.652a8.087,8.087,0,0,0-1.37-2.059,3.262,3.262,0,0,0-2.315-.244c-.2.386.859.9,1.033,1.254s-.094.408.462,1.024a5.981,5.981,0,0,0,1.592,1.017Z" transform="translate(-416.246 -1168.455)" fill="#ffb27d"/>
      <path id="Trazado_106314" data-name="Trazado 106314" d="M423.735,1181.035c.4-.619.517-.651.517-.651s6.578,2.624,7.206,2.842,10.013.771,10.013.771l2.832,6.225s-12.507-2.852-14.086-3.438c-2.611-.969-6.8-4.763-6.8-4.763A2.051,2.051,0,0,1,423.735,1181.035Z" transform="translate(-420.679 -1171.017)" fill="#163560"/>
      <path id="Trazado_106315" data-name="Trazado 106315" d="M418.617,1180.121c-.01,0-.482-.2-.943-.381-.34-.136-.638-.388-.78-.435-.334-.111.088.77.746,1.243a2.74,2.74,0,0,0,1.23.55C419.108,1181.125,418.617,1180.121,418.617,1180.121Z" transform="translate(-416.575 -1170.345)" fill="#ffb27d"/>
      <path id="Trazado_106316" data-name="Trazado 106316" d="M455.437,1333a8.828,8.828,0,0,1-.572,2.852h-6.6a1.175,1.175,0,0,1,1.054-.943,4.828,4.828,0,0,0,3.419-2.292C453.4,1331.171,455.437,1333,455.437,1333Z" transform="translate(-436.04 -1264.777)" fill="#163560"/>
      <path id="Trazado_106317" data-name="Trazado 106317" d="M486.191,1331.483s.529,3.982-.036,4.033c-.075.006-2.53-.072-3.379-.045-1.186.038-3.131.023-3.131.023a.31.31,0,0,1-.281-.467,1.25,1.25,0,0,1,.9-.575,4.833,4.833,0,0,0,3.378-2.352C484.277,1330.64,486.191,1331.483,486.191,1331.483Z" transform="translate(-455.236 -1264.27)" fill="#163560"/>
      <path id="Trazado_106318" data-name="Trazado 106318" d="M458.92,1244.84a117.716,117.716,0,0,0,6.414,15.886c4.755,10.082,5.122,14.676,5.122,14.676l3.276-.154s-.308-12-2.554-17.087-2.7-19.01-2.7-19.01Z" transform="translate(-442.625 -1207.345)" fill="#233862"/>
      <path id="Trazado_106319" data-name="Trazado 106319" d="M451.939,1240.967a144.824,144.824,0,0,0,1.424,20.027c1.555,11.037,1.028,15.722,1.028,15.722l3.725.124s2.226-11.042,1.588-16.566,3.049-18.957,3.049-18.957Z" transform="translate(-438.308 -1208.467)" fill="#2a4e96"/>
      <path id="Trazado_106320" data-name="Trazado 106320" d="M464.239,1178.681l-1.757,1.3-2.539-.534c.035-.232.2-1.191.355-2.061l.027-.153c.131-.74.244-1.375.244-1.375l2.372-1.182.884-.441c0,.016-.068.821-.078.938A7.59,7.59,0,0,0,464.239,1178.681Z" transform="translate(-443.257 -1167.217)" fill="#ffb27d"/>
      <path id="Trazado_106321" data-name="Trazado 106321" d="M459.055,1182.676a24.155,24.155,0,0,1,3.823-.9c.369.122.588.836.588.836l-5.247,1.5S458.346,1182.975,459.055,1182.676Z" transform="translate(-442.192 -1171.868)" fill="#2a4e96"/>
      <path id="Trazado_106322" data-name="Trazado 106322" d="M464.013,1206.28a8.046,8.046,0,0,1-.1,1.488c-.572,2.629-13.509,1.323-13.349-.286.006-.046.046-.647.1-1.512v-.005c.023-.355.046-.745.075-1.162.023-.338.046-.7.069-1.06.023-.389.046-.784.069-1.167.115-1.81.218-3.442.229-3.522.218-2.233.43-4.415.447-5.841a20.494,20.494,0,0,1,.407-3.653c.212-1.06.469-2.022.693-2.772a3.067,3.067,0,0,1,1.793-1.969c.1-.04.2-.074.3-.1a13.6,13.6,0,0,1,3.991-.778c1.472.429,2.566,3.018,3.339,6.317a90.941,90.941,0,0,1,1.792,12.633c.029.4.057.79.08,1.157s.034.739.046,1.076C464,1205.547,464.013,1205.937,464.013,1206.28Z" transform="translate(-437.46 -1173.194)" fill="#f99746"/>
      <path id="Trazado_106323" data-name="Trazado 106323" d="M464.144,1175.926c-.52,1-2.461,1.858-3.27,2.175.009-.051.018-.1.027-.153.131-.74.244-1.375.244-1.375l2.372-1.182C464.04,1175.383,464.359,1175.515,464.144,1175.926Z" transform="translate(-443.833 -1167.931)" fill="#fca56b"/>
      <path id="Trazado_106324" data-name="Trazado 106324" d="M457.7,1166.723s4.279,1.335,5.069-1.343,1.874-4.308-.824-5.273-3.533-.1-4.014.728S456.606,1166.307,457.7,1166.723Z" transform="translate(-441.539 -1158.22)" fill="#ffb27d"/>
      <path id="Trazado_106325" data-name="Trazado 106325" d="M458.958,1158.212s.273,3.116.917,2.98,1.228-.236,1.134.7-.988,2.023,1,2.19,4.84-4.955,4.295-5.924C464.728,1155.364,456.683,1154.8,458.958,1158.212Z" transform="translate(-442.4 -1155.854)" fill="#163560"/>
      <path id="Trazado_106326" data-name="Trazado 106326" d="M430.335,1213.055a19.134,19.134,0,0,0-1.756-1.085,3.693,3.693,0,0,0-1.24-.109c-.043.073-.168.294-.008.369s.36.048.3.1-.663-.235-.8.073-.262,1.363.446,1.682a8.124,8.124,0,0,0,2.582.067C430.925,1214.463,430.335,1213.055,430.335,1213.055Z" transform="translate(-422.721 -1190.458)" fill="#ffb27d"/>
      <path id="Trazado_106327" data-name="Trazado 106327" d="M435.4,1199.758s7.2,1.225,7.843.914c1.019-.5-.4-7.806-.4-7.806a2.1,2.1,0,0,1,1.875-2.047,4.654,4.654,0,0,1,3.3.92,3.8,3.8,0,0,1,1.287,2.785c-.418,3.246-1.068,9.848-3.239,10.86-2.8,1.305-10.9-3.62-10.9-3.62a1.417,1.417,0,0,1-.231-.944A2.2,2.2,0,0,1,435.4,1199.758Z" transform="translate(-427.797 -1177.431)" fill="#2a4e96"/>
      <g id="Grupo_83502" data-name="Grupo 83502" transform="translate(13.347 29.381)">
        <path id="Trazado_106328" data-name="Trazado 106328" d="M464.336,1234.265a30.011,30.011,0,0,1-5.406.464,41.426,41.426,0,0,1-7.731-.762c.023-.389.046-.784.069-1.168a36.6,36.6,0,0,0,12.988.309C464.285,1233.509,464.313,1233.9,464.336,1234.265Z" transform="translate(-451.199 -1232.799)" fill="#fff"/>
      </g>
      <g id="Grupo_83503" data-name="Grupo 83503" transform="translate(13.203 31.609)">
        <path id="Trazado_106329" data-name="Trazado 106329" d="M464.173,1240.11a29.76,29.76,0,0,1-5.475.475,41.74,41.74,0,0,1-7.874-.785v-.005c.023-.355.046-.744.074-1.162a36.42,36.42,0,0,0,13.252.315C464.161,1239.377,464.173,1239.767,464.173,1240.11Z" transform="translate(-450.824 -1238.633)" fill="#fff"/>
      </g>
    </g>
    <g id="Grupo_83507" data-name="Grupo 83507" transform="translate(611.5 844.472)">
      <rect id="Rectángulo_8196" data-name="Rectángulo 8196" width="0.811" height="6.42" transform="translate(31.184 30.203) rotate(-169.673)" fill="#2a4e96"/>
      <rect id="Rectángulo_8197" data-name="Rectángulo 8197" width="0.426" height="6.42" transform="translate(31.554 27.095) rotate(-169.677)" fill="#2a4e96"/>
      <path id="Trazado_106330" data-name="Trazado 106330" d="M1201.87,1285.356a9.727,9.727,0,0,1,1.65-2.479,3.926,3.926,0,0,1,2.787-.293c.234.465-1.583,1.19-1.793,1.616s.661.384-.007,1.126a7.2,7.2,0,0,1-1.917,1.224Z" transform="translate(-1168.697 -1273.08)" fill="#ffb27d"/>
      <path id="Trazado_106331" data-name="Trazado 106331" d="M1163.849,1288.224c-.479-.745-.622-.784-.622-.784s-7.918,3.159-8.674,3.422-12.053.928-12.053.928l-3.41,7.494s15.055-3.434,16.957-4.14c3.143-1.166,8.184-5.734,8.184-5.734A2.466,2.466,0,0,0,1163.849,1288.224Z" transform="translate(-1129.889 -1276.164)" fill="#163560"/>
      <path id="Trazado_106332" data-name="Trazado 106332" d="M1207.029,1285.52c.01-.008.4-.48.786-.938.284-.336.46-.772.584-.9.292-.307.541.386.108,1.26a4.6,4.6,0,0,1-1.285,1.508C1206.985,1286.611,1207.029,1285.52,1207.029,1285.52Z" transform="translate(-1171.884 -1273.794)" fill="#ffb27d"/>
      <path id="Trazado_106333" data-name="Trazado 106333" d="M1152.413,1471.163s.172,2.78.688,3.434h7.943a1.413,1.413,0,0,0-1.268-1.135c-1.255-.219-3.356-1.1-4.116-2.759C1154.861,1468.958,1152.413,1471.163,1152.413,1471.163Z" transform="translate(-1138.125 -1389.033)" fill="#163560"/>
      <path id="Trazado_106334" data-name="Trazado 106334" d="M1115.187,1470.213s-.523,3.461.156,3.523c.09.008,3.272,0,4.137.132a21.735,21.735,0,0,0,3.769.027.374.374,0,0,0,.338-.562,1.507,1.507,0,0,0-1.079-.692c-1.251-.241-3.335-1.159-4.066-2.831C1117.674,1468.051,1115.187,1470.213,1115.187,1470.213Z" transform="translate(-1114.995 -1388.471)" fill="#163560"/>
      <path id="Trazado_106335" data-name="Trazado 106335" d="M1133.329,1365.033a141.7,141.7,0,0,1-7.721,19.125c-5.724,12.136-6.166,17.667-6.166,17.667l-3.943-.186s.371-14.445,3.074-20.569,3.255-22.883,3.255-22.883Z" transform="translate(-1115.307 -1319.896)" fill="#233862"/>
      <path id="Trazado_106336" data-name="Trazado 106336" d="M1149.518,1360.371a174.269,174.269,0,0,1-1.713,24.108c-1.873,13.287-1.238,18.926-1.238,18.926l-4.484.149s-2.68-13.292-1.911-19.942-3.67-22.82-3.67-22.82Z" transform="translate(-1128.29 -1321.247)" fill="#2a4e96"/>
      <path id="Trazado_106337" data-name="Trazado 106337" d="M1147.418,1285.392l2.115,1.565,3.057-.643c-.042-.279-.244-1.434-.428-2.48-.011-.062-.022-.123-.033-.184-.157-.89-.293-1.655-.293-1.655l-2.855-1.423-1.064-.531c0,.019.082.988.094,1.129A9.145,9.145,0,0,1,1147.418,1285.392Z" transform="translate(-1135.037 -1271.591)" fill="#ffb27d"/>
      <path id="Trazado_106338" data-name="Trazado 106338" d="M1151.805,1290.2a29,29,0,0,0-4.6-1.089c-.444.147-.708,1.007-.708,1.007l6.316,1.8S1152.66,1290.56,1151.805,1290.2Z" transform="translate(-1134.467 -1277.19)" fill="#2a4e96"/>
      <path id="Trazado_106339" data-name="Trazado 106339" d="M1129.856,1318.614a9.724,9.724,0,0,0,.117,1.792c.69,3.164,16.262,1.593,16.069-.344-.007-.055-.055-.779-.117-1.82v-.007c-.028-.428-.055-.9-.09-1.4-.028-.407-.055-.841-.083-1.275-.027-.469-.055-.945-.083-1.406-.138-2.178-.262-4.143-.276-4.24-.262-2.688-.517-5.315-.538-7.031a24.661,24.661,0,0,0-.49-4.4c-.255-1.275-.565-2.433-.834-3.336a3.689,3.689,0,0,0-2.158-2.371,3.711,3.711,0,0,0-.358-.125c-1.744-.5-4.15-1.13-4.8-.937-1.772.517-3.088,3.633-4.019,7.6a109.306,109.306,0,0,0-2.158,15.208c-.035.482-.069.951-.1,1.392s-.041.889-.055,1.3C1129.87,1317.732,1129.856,1318.2,1129.856,1318.614Z" transform="translate(-1124.181 -1278.785)" fill="#f99746"/>
      <path id="Trazado_106340" data-name="Trazado 106340" d="M1149.4,1282.074c.627,1.2,2.963,2.237,3.937,2.619-.011-.062-.022-.124-.033-.184-.157-.891-.293-1.655-.293-1.655l-2.855-1.423C1149.523,1281.42,1149.139,1281.58,1149.4,1282.074Z" transform="translate(-1136.211 -1272.449)" fill="#fca56b"/>
      <path id="Trazado_106341" data-name="Trazado 106341" d="M1150.993,1271s-5.15,1.607-6.1-1.616-2.256-5.187.992-6.348,4.253-.122,4.832.877S1152.308,1270.5,1150.993,1271Z" transform="translate(-1132.807 -1260.759)" fill="#ffb27d"/>
      <path id="Trazado_106342" data-name="Trazado 106342" d="M1146.919,1260.75s-.329,3.75-1.1,3.587-1.479-.283-1.366.848,1.19,2.436-1.2,2.636-5.827-5.965-5.17-7.132C1139.973,1257.321,1149.658,1256.641,1146.919,1260.75Z" transform="translate(-1129.213 -1257.911)" fill="#163560"/>
      <path id="Trazado_106343" data-name="Trazado 106343" d="M1189.244,1326.77a23.033,23.033,0,0,1,2.114-1.306,4.421,4.421,0,0,1,1.493-.131c.052.087.2.353.01.444s-.434.058-.361.121.8-.283.966.088.315,1.639-.537,2.024-2.956.037-3.108.081C1188.534,1328.465,1189.244,1326.77,1189.244,1326.77Z" transform="translate(-1160.771 -1299.568)" fill="#ffb27d"/>
      <path id="Trazado_106344" data-name="Trazado 106344" d="M1162.458,1310.763s-8.673,1.474-9.441,1.1c-1.227-.6.476-9.4.476-9.4a2.532,2.532,0,0,0-2.256-2.465,5.607,5.607,0,0,0-3.977,1.108s-1.776,1.589-1.55,3.352c.5,3.907,1.286,11.855,3.9,13.074,3.371,1.571,13.126-4.357,13.126-4.357a1.7,1.7,0,0,0,.279-1.136A2.649,2.649,0,0,0,1162.458,1310.763Z" transform="translate(-1133.969 -1283.886)" fill="#2a4e96"/>
      <g id="Grupo_83505" data-name="Grupo 83505" transform="translate(5.758 35.369)">
        <path id="Trazado_106345" data-name="Trazado 106345" d="M1130.073,1352.3a36.063,36.063,0,0,0,6.508.558,49.954,49.954,0,0,0,9.306-.917c-.028-.469-.055-.944-.083-1.407a44.053,44.053,0,0,1-15.635.373C1130.135,1351.392,1130.1,1351.861,1130.073,1352.3Z" transform="translate(-1130.073 -1350.537)" fill="#fff"/>
      </g>
      <g id="Grupo_83506" data-name="Grupo 83506" transform="translate(5.675 38.051)">
        <path id="Trazado_106346" data-name="Trazado 106346" d="M1129.856,1359.339a35.832,35.832,0,0,0,6.59.572,50.313,50.313,0,0,0,9.479-.945v-.007c-.028-.428-.055-.9-.09-1.4a43.83,43.83,0,0,1-15.952.379C1129.87,1358.456,1129.856,1358.925,1129.856,1359.339Z" transform="translate(-1129.856 -1357.56)" fill="#fff"/>
      </g>
    </g>
    <g id="Grupo_83508" data-name="Grupo 83508" transform="translate(349.64 845.958)">
      <path id="Trazado_106347" data-name="Trazado 106347" d="M450.5,1292.989H429.223v-25.311a5.882,5.882,0,0,1,5.875-5.875h9.526a5.882,5.882,0,0,1,5.875,5.875Zm-20.674-.6H449.9v-24.708a5.278,5.278,0,0,0-5.272-5.272H435.1a5.278,5.278,0,0,0-5.272,5.272Z" transform="translate(-429.223 -1261.802)" fill="#2a4e96"/>
    </g>
    <rect id="Rectángulo_8198" data-name="Rectángulo 8198" width="20.674" height="0.704" transform="translate(349.942 858.231)" fill="#f99746"/>
    <path id="Trazado_106348" data-name="Trazado 106348" d="M1310.019,1231.457l.306,55.872s-20.439,9.646-53.705,11.048c-20.365.856-34.288-2.291-42.024-4.861a43.639,43.639,0,0,1-7.321-3.028l-.321-58.571a19.114,19.114,0,0,1,7.281-4.276c25.521-9.215,91.514,1.968,91.514,1.968Z" transform="translate(-560.339 -392.476)" fill="#5038a1"/>
    <path id="Trazado_106349" data-name="Trazado 106349" d="M1214.235,1233.535l.361,65.875a43.657,43.657,0,0,1-7.321-3.028l-.321-58.571A19.114,19.114,0,0,1,1214.235,1233.535Z" transform="translate(-560.339 -398.37)" fill="#ffb74d"/>
    <g id="Grupo_83509" data-name="Grupo 83509" transform="translate(885.055 909.493)">
      <path id="Trazado_106350" data-name="Trazado 106350" d="M1855.483,1447.648s-15.352.163-15.189,0l1.308-3.729,1.393-3.973,1.052-3,1.393-3.973,1.678-4.784h1.587l1.666,4.784,1.385,3.973,1.044,3,1.384,3.973Z" transform="translate(-1836.894 -1428.189)" fill="#f99746"/>
      <rect id="Rectángulo_8199" data-name="Rectángulo 8199" width="21.637" height="1.054" transform="translate(0 18.892)" fill="#e27423"/>
      <path id="Trazado_106351" data-name="Trazado 106351" d="M1857.836,1444.69h-7.709l1.393-3.973h4.931Z" transform="translate(-1842.973 -1435.933)" fill="#fff"/>
      <path id="Trazado_106352" data-name="Trazado 106352" d="M1856.3,1462.95h-12.582l1.393-3.973h9.806Z" transform="translate(-1839.014 -1447.221)" fill="#fff"/>
    </g>
    <g id="Grupo_83510" data-name="Grupo 83510" transform="translate(300.48 909.493)">
      <path id="Trazado_106353" data-name="Trazado 106353" d="M324.572,1447.648s-15.352.163-15.19,0l1.309-3.729,1.393-3.973,1.052-3,1.393-3.973,1.679-4.784h1.587l1.666,4.784,1.385,3.973,1.044,3,1.383,3.973Z" transform="translate(-305.982 -1428.189)" fill="#ffb74d"/>
      <rect id="Rectángulo_8200" data-name="Rectángulo 8200" width="21.637" height="1.054" transform="translate(0 18.892)" fill="#ffb74d"/>
      <path id="Trazado_106354" data-name="Trazado 106354" d="M326.924,1444.69h-7.709l1.393-3.973h4.931Z" transform="translate(-312.061 -1435.933)" fill="#fff"/>
      <path id="Trazado_106355" data-name="Trazado 106355" d="M325.393,1462.95H312.811l1.393-3.973h9.806Z" transform="translate(-308.103 -1447.221)" fill="#fff"/>
    </g>
    <g id="Grupo_83511" data-name="Grupo 83511" transform="translate(539.946 909.493)">
      <path id="Trazado_106356" data-name="Trazado 106356" d="M951.7,1447.648s-15.352.163-15.19,0l1.309-3.729,1.393-3.973,1.052-3,1.393-3.973,1.679-4.784h1.587l1.666,4.784,1.385,3.973,1.044,3,1.383,3.973Z" transform="translate(-933.107 -1428.189)" fill="#f99746"/>
      <rect id="Rectángulo_8201" data-name="Rectángulo 8201" width="21.637" height="1.054" transform="translate(0 18.892)" fill="#e27423"/>
      <path id="Trazado_106357" data-name="Trazado 106357" d="M954.049,1444.69H946.34l1.393-3.973h4.931Z" transform="translate(-939.186 -1435.933)" fill="#fff"/>
      <path id="Trazado_106358" data-name="Trazado 106358" d="M952.518,1462.95H939.936l1.393-3.973h9.806Z" transform="translate(-935.228 -1447.221)" fill="#fff"/>
    </g>
  </g>
</svg>
