<svg xmlns="http://www.w3.org/2000/svg" xmlns:xlink="http://www.w3.org/1999/xlink" width="572.712" height="415.046" viewBox="0 0 572.712 415.046">
  <defs>
    <linearGradient id="linear-gradient" x1="0.5" x2="0.5" y2="1" gradientUnits="objectBoundingBox">
      <stop offset="0" stop-color="#ffb74d"/>
      <stop offset="1" stop-color="#ffdc72"/>
    </linearGradient>
  </defs>
  <g id="Grupo_55996" data-name="Grupo 55996" transform="translate(-864.908 -120.5)">
    <path id="Trazado_101708" data-name="Trazado 101708" d="M2060.748,912.706c57.042-29,60.769-169.641-49.548-202.558s-89.879-115.982-182.688-178.072c-84.6-56.6-224.553-8.623-271.169,138.567-33.24,104.955,5.546,236.615,32.013,242.063Z" transform="translate(-679.599 -388.494)" fill="#f6edd3" opacity="0.747"/>
    <g id="Grupo_55990" data-name="Grupo 55990" transform="translate(-676.068 -374.125)">
      <path id="Trazado_101679" data-name="Trazado 101679" d="M2116.242,1770.361H1562.057a5.552,5.552,0,0,1-5.551-5.552h0a5.551,5.551,0,0,1,5.551-5.551h554.185a5.551,5.551,0,0,1,5.551,5.551h0A5.552,5.552,0,0,1,2116.242,1770.361Z" transform="translate(-8.105 -860.69)" fill="#ffb74d"/>
      <g id="Grupo_55984" data-name="Grupo 55984" transform="translate(1588.886 590.877)">
        <path id="Trazado_101680" data-name="Trazado 101680" d="M1715.486,1633.549c-3.33,3.805-2.871,11.765-3.562,12.248-1.449,1.016-4.328-6.362-4.328-6.362l4.035-14.283s8.16-7.917,17.483-17.745a60.425,60.425,0,0,1,7.645,8.525C1727.591,1622.671,1719.52,1628.942,1715.486,1633.549Z" transform="translate(-1699.046 -1348.999)" fill="#ffa283"/>
        <path id="Trazado_101681" data-name="Trazado 101681" d="M1693.835,1660.814s-.5-1.228-3.1-.2-9.487,12.164-9.487,12.164l1.707,1.841s5.519-7.846,5.926-7.435-4.47,9.149-3.751,10.425,6.8,8.31,8.848,8.324.5-5.768.5-5.768-3.719-2.882-3.714-3.745S1693.835,1660.814,1693.835,1660.814Z" transform="translate(-1681.249 -1384.66)" fill="#291860"/>
        <path id="Trazado_101682" data-name="Trazado 101682" d="M1843.409,1671.345c.437,5.038,6.5,10.22,6.367,11.053-.272,1.748-7.587-1.286-7.587-1.286l-7.506-12.8s-.058-11.368-.689-24.9a60.453,60.453,0,0,1,11.445.391C1843.948,1655.079,1842.88,1665.244,1843.409,1671.345Z" transform="translate(-1784.421 -1373.243)" fill="#ffa283"/>
        <path id="Trazado_101683" data-name="Trazado 101683" d="M1830.909,1720.277s-1.235-.487-2.291,2.1,2.2,15.268,2.2,15.268l2.51.044s-1.836-9.416-1.258-9.423,3.5,9.561,4.92,9.927,10.707.849,12.132-.616-3.815-4.354-3.815-4.354-4.655.686-5.273.084S1830.909,1720.277,1830.909,1720.277Z" transform="translate(-1780.647 -1425.212)" fill="#291860"/>
        <path id="Trazado_101684" data-name="Trazado 101684" d="M1845.143,968.9a25.594,25.594,0,0,1,9.116,0c4.949.912,24.485,14.066,26.569,11.982s4.037-9.507,4.037-9.507L1898.8,974.8s-1.824,21.58-7.684,24.706-18.437,2.956-27.35-.912S1845.143,968.9,1845.143,968.9Z" transform="translate(-1791.952 -917.443)" fill="#ffb74d"/>
        <path id="Trazado_101685" data-name="Trazado 101685" d="M1863.992,991.469c14.336,12.894,14.192,11.982,14.192,16.931,0,.665.031,1.616.086,2.794a39.091,39.091,0,0,1-10.87-2.794c-6.622-2.873-13.685-17.868-16.878-25.387A48.66,48.66,0,0,1,1863.992,991.469Z" transform="translate(-1795.585 -927.25)" fill="#ff7a03"/>
        <path id="Trazado_101686" data-name="Trazado 101686" d="M1972.652,872.075s6.642-30.964,8.6-35.946,11.916-19.536,12.8-18.657-1.856,9.133-1.611,9.377,3.076,0,3.614,1.319a7.858,7.858,0,0,0,1.709,3.175c1,1,.635,2.3.635,3.369s.074,4.42-1.27,5.763-5.275.977-6.447,3.565-5.746,31.794-5.746,31.794Z" transform="translate(-1878.078 -815.41)" fill="#ffc685"/>
        <path id="Trazado_101687" data-name="Trazado 101687" d="M1783.631,1221l15.889-8.075-.518,6.755s14.618,65.658,11.1,75.568c-8.225,23.18-55.906,62.24-55.906,62.24l-9.377-8.6s36.727-50.533,36.727-60.17-11.982-64.338-11.982-64.338Z" transform="translate(-1724.188 -1082.544)" fill="#4b2b93"/>
        <path id="Trazado_101688" data-name="Trazado 101688" d="M1833.046,1288.722c0-9.638-11.982-64.338-11.982-64.338L1835.13,1221l15.889-8.075-.518,6.755s2.2,9.866,4.682,22.525c-8.235,5.484-8.7,47.961-13.5,81.42l-14.526-21.175C1830.685,1296.238,1833.046,1291.165,1833.046,1288.722Z" transform="translate(-1775.687 -1082.544)" fill="#291860"/>
        <path id="Trazado_101689" data-name="Trazado 101689" d="M1819.035,1202.623s-.887,11.093-.887,12.657-13.96,124.093-9.532,143.89h-16.67s-18.234-112.266-18.234-130.759a56.4,56.4,0,0,1,8.856-30.736Z" transform="translate(-1743.703 -1072.244)" fill="#5038a1"/>
        <path id="Trazado_101690" data-name="Trazado 101690" d="M1796.618,1197.674l36.467,4.949s-.887,11.093-.887,12.657c0,.171-.167,1.792-.459,4.568-7.047-2.533-15.754-5.852-20.794-8.473-9.329-4.852-12.008-10.043-16.432-10.2A33.8,33.8,0,0,1,1796.618,1197.674Z" transform="translate(-1757.753 -1072.244)" fill="#291860"/>
        <path id="Trazado_101691" data-name="Trazado 101691" d="M1816.5,903.521s-5.47,14.066-3.647,23.182a94.6,94.6,0,0,0,5.21,16.931l-24.193-18.494,3.616-26.829Z" transform="translate(-1757.322 -870.038)" fill="url(#linear-gradient)"/>
        <path id="Trazado_101692" data-name="Trazado 101692" d="M1803.75,901.354l.41-3.043,19.015,5.21a72.931,72.931,0,0,0-2.54,8.3,55.013,55.013,0,0,1-9.709-3.015A13.335,13.335,0,0,1,1803.75,901.354Z" transform="translate(-1763.993 -870.038)" fill="#ffb74d" opacity="0.68" style="mix-blend-mode: multiply;isolation: isolate"/>
        <path id="Trazado_101693" data-name="Trazado 101693" d="M1768.568,968.136s17.843.391,30.736,13.284,12.763,11.982,12.763,16.931,1.563,25.787,1.563,38.03,1.543,19.026,0,19.276c-11.224,1.807-29.564-13.284-40.764-11.461,0,0-10.029-15.5-8.335-21.489s-1.042-10.028-2.214-20.838S1758.41,968.136,1768.568,968.136Z" transform="translate(-1735.173 -917.202)" fill="#ffa42f"/>
        <path id="Trazado_101694" data-name="Trazado 101694" d="M1772.009,979.171s1.915,19.049,9.606,28.721,33.049,22.057,34.15,21.549c.416,7.637-.052,6.251,0,13.2-4.411,2.875-9.918,3.582-12.889,2.557-5.47-1.887-31.468-31.033-35.555-40.877S1761.85,979.171,1772.009,979.171Z" transform="translate(-1737.311 -924.656)" fill="#ff7a03"/>
        <path id="Trazado_101695" data-name="Trazado 101695" d="M1772.009,979.17a24.612,24.612,0,0,1,17.833,8.791c7.692,9.013,20.066,29.108,21.629,29.108s4.993-1.758,4.993-1.758,5.947,0,5.947,11.721-14.066,15.433-19.536,13.675-31.468-28.92-35.555-38.095S1761.85,979.17,1772.009,979.17Z" transform="translate(-1737.311 -924.655)" fill="#fcc13f"/>
        <path id="Trazado_101696" data-name="Trazado 101696" d="M1806.346,831.7s6.121.13,9.637,3.647,12.373,23.052,9.378,26.048-10.68,3.647-22.922-1.3S1790.717,831.7,1806.346,831.7Z" transform="translate(-1757.322 -825.044)" fill="#ffc685"/>
        <path id="Trazado_101697" data-name="Trazado 101697" d="M1780.547,817.851s-4.049,2.6-2.676,11.2-5.139,12.764-7.483,17.192-1.3,12.242-12.242,12.242-11.721-10.419-11.721-17.973,5.808-19.362,12.242-24.485C1765.7,810.427,1783.414,808.144,1780.547,817.851Z" transform="translate(-1725.272 -811.198)" fill="#12263f"/>
        <path id="Trazado_101698" data-name="Trazado 101698" d="M1755.186,836.772c-4.221,5.794-7.352,13.582-7.352,19.1,0,7.554.789,17.973,11.84,17.973,3.712,0,6.058-.881,7.626-2.22-1.432,2.348-3.923,4.135-9.154,4.135-10.94,0-11.721-10.419-11.721-17.973C1746.425,851.633,1750.279,842.658,1755.186,836.772Z" transform="translate(-1725.272 -828.472)" fill="#2d2861"/>
        <path id="Trazado_101699" data-name="Trazado 101699" d="M1724.15,863.761s.4,6.514-3.382,8.727-6,2.215-7.168,0-5.861-.131-5.08-5.08.521-8.335,4.3-9.507,5.34,0,9.117,0S1724.15,863.761,1724.15,863.761Z" transform="translate(-1699.611 -842.391)" fill="#12263f"/>
        <path id="Trazado_101700" data-name="Trazado 101700" d="M1971.181,972.759s.684,11.754-.521,12.959-21.294-5.926-21.619-8.4,4.1-9.182,5.145-9.182S1971.079,970.537,1971.181,972.759Z" transform="translate(-1862.118 -917.202)" fill="#fcc13f"/>
      </g>
      <g id="Grupo_55988" data-name="Grupo 55988" transform="translate(1686.336 752.71)">
        <g id="Grupo_55985" data-name="Grupo 55985" transform="translate(0 131.438)">
          <rect id="Rectángulo_7810" data-name="Rectángulo 7810" width="9.514" height="21.923" rx="4.757" transform="translate(89.348 21.923) rotate(180)" fill="#2d2861"/>
          <path id="Rectángulo_7811" data-name="Rectángulo 7811" d="M4.757,0h0A4.757,4.757,0,0,1,9.514,4.757V17.166a4.757,4.757,0,0,1-4.757,4.757h0A4.757,4.757,0,0,1,0,17.166V4.757A4.757,4.757,0,0,1,4.757,0Z" transform="translate(9.514 21.923) rotate(180)" fill="#2d2861"/>
        </g>
        <g id="Grupo_55987" data-name="Grupo 55987" transform="translate(5.917 0)">
          <path id="Trazado_101701" data-name="Trazado 101701" d="M2052.909,1313.1v38H2095.9v-38c0-3.038-2.022-5.5-4.515-5.5h-33.962C2054.931,1307.595,2052.909,1310.058,2052.909,1313.1Zm40.488,35.039h-37.983v-37.582H2093.4Z" transform="translate(-2035.654 -1306.323)" fill="#7271b3"/>
          <path id="Trazado_101702" data-name="Trazado 101702" d="M2074.3,1397.086v4.846h29.12v-4.846C2103.418,1390.8,2074.3,1390.8,2074.3,1397.086Zm25.823,1.948h-22.527v-2.544c0-3.275,22.527-3.275,22.527,0Z" transform="translate(-2050.102 -1363.585)" fill="#2d2861"/>
          <rect id="Rectángulo_7812" data-name="Rectángulo 7812" width="114.347" height="77.513" rx="8" transform="translate(77.513 35.399) rotate(90)" fill="#5038a1"/>
          <rect id="Rectángulo_7813" data-name="Rectángulo 7813" width="69.558" height="105.29" rx="6" transform="translate(3.978 39.928)" fill="#3b3b3b" style="mix-blend-mode: screen;isolation: isolate"/>
          <g id="Grupo_55986" data-name="Grupo 55986" transform="translate(16.557 46.294)">
            <path id="Trazado_101703" data-name="Trazado 101703" d="M2052.846,1538.875h0a2.088,2.088,0,0,1-2.088-2.088v-88.381a2.088,2.088,0,0,1,2.088-2.088h0a2.088,2.088,0,0,1,2.088,2.088v88.381A2.088,2.088,0,0,1,2052.846,1538.875Z" transform="translate(-2050.758 -1446.318)" fill="#5038a1"/>
            <path id="Trazado_101704" data-name="Trazado 101704" d="M2094.158,1538.875h0a2.088,2.088,0,0,1-2.088-2.089v-88.381a2.088,2.088,0,0,1,2.088-2.088h0a2.088,2.088,0,0,1,2.088,2.088v88.381A2.088,2.088,0,0,1,2094.158,1538.875Z" transform="translate(-2078.662 -1446.318)" fill="#5038a1"/>
            <path id="Trazado_101705" data-name="Trazado 101705" d="M2135.471,1538.875h0a2.088,2.088,0,0,1-2.088-2.089v-88.381a2.088,2.088,0,0,1,2.088-2.088h0a2.088,2.088,0,0,1,2.088,2.088v88.381A2.088,2.088,0,0,1,2135.471,1538.875Z" transform="translate(-2106.567 -1446.318)" fill="#5038a1"/>
            <path id="Trazado_101706" data-name="Trazado 101706" d="M2176.783,1538.875h0a2.088,2.088,0,0,1-2.088-2.089v-88.381a2.088,2.088,0,0,1,2.088-2.088h0a2.088,2.088,0,0,1,2.089,2.088v88.381A2.089,2.089,0,0,1,2176.783,1538.875Z" transform="translate(-2134.472 -1446.318)" fill="#5038a1"/>
          </g>
          <path id="Trazado_101707" data-name="Trazado 101707" d="M2089.946,1303.677h-36.22c-2.494,0-4.515,2.463-4.515,5.5v8.322a.7.7,0,0,0,.651.735h3.213a.7.7,0,0,0,.651-.735v-6.885a1.327,1.327,0,0,1,1.179-1.437h33.862a1.327,1.327,0,0,1,1.179,1.437v6.885a.7.7,0,0,0,.651.735h3.213a.7.7,0,0,0,.651-.735v-8.322c0-3.038-2.022-5.5-4.515-5.5Z" transform="translate(-2033.156 -1303.677)" fill="#2d2861"/>
        </g>
      </g>
    </g>
    <g id="Grupo_55992" data-name="Grupo 55992" transform="translate(-290.737 2222.545)" opacity="0.593">
      <rect id="Rectángulo_7874" data-name="Rectángulo 7874" width="13.286" height="13.286" transform="translate(1473.55 -1832.936)" fill="#2d2861"/>
      <rect id="Rectángulo_7875" data-name="Rectángulo 7875" width="1.879" height="23.565" transform="translate(1478.516 -1823.084)" fill="#2d2861"/>
      <path id="Trazado_101709" data-name="Trazado 101709" d="M1642.957-1568.3h0a3.087,3.087,0,0,1-3.087-3.087v-5.771a3.087,3.087,0,0,1,3.087-3.087h0a3.086,3.086,0,0,1,3.087,3.087v5.771A3.087,3.087,0,0,1,1642.957-1568.3Z" transform="translate(-167.168 -224.67)" fill="#2d2861"/>
      <path id="Trazado_101710" data-name="Trazado 101710" d="M1662.772-1569.82h0a3.087,3.087,0,0,1-3.086-3.086v-5.771a3.087,3.087,0,0,1,3.086-3.087h0a3.087,3.087,0,0,1,3.087,3.087v5.771A3.087,3.087,0,0,1,1662.772-1569.82Z" transform="translate(-179.492 -223.727)" fill="#2d2861"/>
      <rect id="Rectángulo_7876" data-name="Rectángulo 7876" width="13.287" height="13.286" transform="translate(1578.499 -1819.649) rotate(180)" fill="#2d2861"/>
      <rect id="Rectángulo_7877" data-name="Rectángulo 7877" width="1.879" height="23.565" transform="translate(1573.533 -1799.518) rotate(180)" fill="#2d2861"/>
      <path id="Trazado_101711" data-name="Trazado 101711" d="M1909.178-1569.288h0a3.087,3.087,0,0,0,3.087-3.087v-5.771a3.087,3.087,0,0,0-3.087-3.087h0a3.087,3.087,0,0,0-3.087,3.087v5.771A3.087,3.087,0,0,0,1909.178-1569.288Z" transform="translate(-332.733 -224.058)" fill="#2d2861"/>
      <path id="Trazado_101712" data-name="Trazado 101712" d="M1888.345-1569.288h0a3.087,3.087,0,0,0,3.086-3.087v-5.771a3.087,3.087,0,0,0-3.086-3.087h0a3.087,3.087,0,0,0-3.087,3.087v5.771A3.087,3.087,0,0,0,1888.345-1569.288Z" transform="translate(-319.777 -224.058)" fill="#2d2861"/>
      <path id="Trazado_101713" data-name="Trazado 101713" d="M1372.486-1721.193l132.211,9.072c.545.037,1.022.563,1.209,1.333l5.7,23.418c.354,1.455-.461,2.946-1.481,2.706l-137.91-32.491C1370.528-1717.552,1370.781-1721.31,1372.486-1721.193Z" transform="translate(0 -137.013)" fill="#ffb74d"/>
      <path id="Trazado_101714" data-name="Trazado 101714" d="M1975.267-1707.661l-119.666,7.125-8.06,23.857,128.063-26.7C1977.66-1703.811,1977.348-1707.785,1975.267-1707.661Z" transform="translate(-296.32 -145.429)" fill="#ffb74d"/>
      <path id="Trazado_101715" data-name="Trazado 101715" d="M1600.56-1652.814a15.972,15.972,0,0,1-16.78,16.781,16.03,16.03,0,0,1-15.118-15.118,15.973,15.973,0,0,1,16.78-16.781A16.03,16.03,0,0,1,1600.56-1652.814Z" transform="translate(-122.87 -170.126)" fill="#ffb74d"/>
      <path id="Trazado_101717" data-name="Trazado 101717" d="M1944.142-1644.4a15.972,15.972,0,0,1-16.782,16.779,16.029,16.029,0,0,1-15.117-15.118,15.972,15.972,0,0,1,16.783-16.781A16.031,16.031,0,0,1,1944.142-1644.4Z" transform="translate(-336.546 -175.359)" fill="#ffb74d"/>
      <path id="Trazado_101719" data-name="Trazado 101719" d="M1658.363-1760.933h92.794a1.964,1.964,0,0,1,.481,3.869l-46.4,11.712a1.965,1.965,0,0,1-.961,0l-46.4-11.712A1.964,1.964,0,0,1,1658.363-1760.933Z" transform="translate(-177.447 -112.3)" fill="#f3ffff"/>
      <path id="Trazado_101720" data-name="Trazado 101720" d="M1750.566-1941.507s6.844,4.831,8.857,17.715,0,43.482,0,43.482l15.572,6.869-27.766,1.413Z" transform="translate(-233.936)" fill="#f3ffff"/>
      <path id="Trazado_101721" data-name="Trazado 101721" d="M1767.114-1737.479c0,16.233-14.871,33.415-33.216,33.415s-33.216-17.182-33.216-33.415,14.871-29.393,33.216-29.393S1767.114-1753.712,1767.114-1737.479Z" transform="translate(-204.988 -108.607)" fill="#f3ffff"/>
      <g id="Grupo_55991" data-name="Grupo 55991" transform="translate(1500.787 -1862.482)">
        <path id="Trazado_101722" data-name="Trazado 101722" d="M1729.476-1727.022a3.023,3.023,0,0,0-3.375-3.006q-3.325.4-6.632.967a6.022,6.022,0,0,0-5.176,7.077h0a6.26,6.26,0,0,0,7.188,4.635q2.673-.459,5.359-.8a3.016,3.016,0,0,0,2.637-2.994Z" transform="translate(-1714.152 1730.975)" fill="#5038a1"/>
        <path id="Trazado_101723" data-name="Trazado 101723" d="M1779.917-1732.141a132.571,132.571,0,0,0-17.418-.132,3.027,3.027,0,0,0-2.848,3.022v5.847a3.023,3.023,0,0,0,3.216,3.014,120.822,120.822,0,0,1,16.59.131,3.023,3.023,0,0,0,3.264-3.01v-5.854A3.027,3.027,0,0,0,1779.917-1732.141Z" transform="translate(-1742.448 1732.497)" fill="#5038a1"/>
        <path id="Trazado_101724" data-name="Trazado 101724" d="M1833.7-1728.652q-2.314-.4-4.639-.713a3.024,3.024,0,0,0-3.421,3v5.893a3.015,3.015,0,0,0,2.588,2.988q1.733.246,3.461.543a6.26,6.26,0,0,0,7.188-4.635h0A6.022,6.022,0,0,0,1833.7-1728.652Z" transform="translate(-1783.484 1730.566)" fill="#5038a1"/>
      </g>
      <path id="Trazado_101725" data-name="Trazado 101725" d="M1766.761-1685.235c-6.211,11.569-18.145,12.388-29.418,12.388s-13.286-11.877-22.144-15.9c-4.9-2.227-10.475-1.375-14.48-.168.5,15.981,15.173,32.578,33.2,32.578,16.645,0,30.431-14.147,32.841-28.9Z" transform="translate(-205.01 -156.33)" fill="#5038a1"/>
    </g>
    <g id="Grupo_55995" data-name="Grupo 55995" transform="translate(1080.333 120.5)">
      <rect id="Rectángulo_7814" data-name="Rectángulo 7814" width="3.058" height="40.496" transform="translate(23.843 0)" fill="#352e73"/>
      <rect id="Rectángulo_7815" data-name="Rectángulo 7815" width="3.057" height="40.496" transform="translate(210.203 0)" fill="#352e73"/>
      <path id="Rectángulo_7816" data-name="Rectángulo 7816" d="M4.731,0H227.855a4.731,4.731,0,0,1,4.731,4.731V131.125a4.73,4.73,0,0,1-4.73,4.73H4.732A4.732,4.732,0,0,1,0,131.124V4.731A4.731,4.731,0,0,1,4.731,0Z" transform="translate(0 23.139)" fill="#5038a1"/>
      <path id="Rectángulo_7817" data-name="Rectángulo 7817" d="M4.731,0H227.854a4.732,4.732,0,0,1,4.732,4.732V24.07a4.731,4.731,0,0,1-4.731,4.731H4.732A4.732,4.732,0,0,1,0,24.07V4.731A4.731,4.731,0,0,1,4.731,0Z" transform="translate(0 23.139)" fill="#ffa42f"/>
      <path id="Rectángulo_7818" data-name="Rectángulo 7818" d="M2.446,0H20.786a2.445,2.445,0,0,1,2.445,2.445v0a2.445,2.445,0,0,1-2.445,2.445H2.445A2.445,2.445,0,0,1,0,2.446v0A2.446,2.446,0,0,1,2.446,0Z" transform="translate(18.137 63.013)" fill="#ffdc72"/>
      <path id="Rectángulo_7819" data-name="Rectángulo 7819" d="M2.445,0h18.34a2.446,2.446,0,0,1,2.446,2.446v0a2.445,2.445,0,0,1-2.445,2.445H2.445A2.445,2.445,0,0,1,0,2.446v0A2.445,2.445,0,0,1,2.445,0Z" transform="translate(54.614 63.013)" fill="#ffdc72"/>
      <path id="Rectángulo_7820" data-name="Rectángulo 7820" d="M2.446,0h18.34a2.446,2.446,0,0,1,2.446,2.446v0a2.445,2.445,0,0,1-2.445,2.445H2.445A2.445,2.445,0,0,1,0,2.446v0A2.446,2.446,0,0,1,2.446,0Z" transform="translate(102.911 63.013)" fill="#ffdc72"/>
      <path id="Rectángulo_7821" data-name="Rectángulo 7821" d="M2.445,0H20.786a2.446,2.446,0,0,1,2.446,2.446v0a2.445,2.445,0,0,1-2.445,2.445H2.445A2.445,2.445,0,0,1,0,2.446v0A2.445,2.445,0,0,1,2.445,0Z" transform="translate(150.188 63.013)" fill="#ffdc72"/>
      <path id="Rectángulo_7822" data-name="Rectángulo 7822" d="M2.446,0h18.34a2.445,2.445,0,0,1,2.445,2.445v0a2.445,2.445,0,0,1-2.445,2.445H2.445A2.445,2.445,0,0,1,0,2.446v0A2.446,2.446,0,0,1,2.446,0Z" transform="translate(193.595 63.013)" fill="#ffdc72"/>
      <rect id="Rectángulo_7823" data-name="Rectángulo 7823" width="27.103" height="2.649" rx="1.324" transform="translate(19.563 93.173)" fill="#8c6df2"/>
      <rect id="Rectángulo_7824" data-name="Rectángulo 7824" width="27.103" height="2.649" rx="1.324" transform="translate(19.563 97.86)" fill="#8c6df2"/>
      <path id="Rectángulo_7825" data-name="Rectángulo 7825" d="M1.325,0h15.9a1.325,1.325,0,0,1,1.325,1.325v0A1.325,1.325,0,0,1,17.22,2.649H1.324A1.324,1.324,0,0,1,0,1.325v0A1.325,1.325,0,0,1,1.325,0Z" transform="translate(23.843 103.77)" fill="#8c6df2"/>
      <rect id="Rectángulo_7826" data-name="Rectángulo 7826" width="27.103" height="2.649" rx="1.324" transform="translate(19.563 110.393)" fill="#8c6df2"/>
      <rect id="Rectángulo_7827" data-name="Rectángulo 7827" width="27.103" height="2.649" rx="1.325" transform="translate(19.563 115.08)" fill="#8c6df2"/>
      <rect id="Rectángulo_7828" data-name="Rectángulo 7828" width="18.544" height="2.649" rx="1.325" transform="translate(23.843 120.989)" fill="#8c6df2"/>
      <rect id="Rectángulo_7829" data-name="Rectángulo 7829" width="27.103" height="2.649" rx="1.325" transform="translate(19.563 126.899)" fill="#8c6df2"/>
      <rect id="Rectángulo_7830" data-name="Rectángulo 7830" width="27.103" height="2.649" rx="1.325" transform="translate(19.563 131.586)" fill="#8c6df2"/>
      <rect id="Rectángulo_7831" data-name="Rectángulo 7831" width="18.544" height="2.649" rx="1.325" transform="translate(23.843 137.496)" fill="#adeff7"/>
      <path id="Rectángulo_7832" data-name="Rectángulo 7832" d="M1.477,0h9.68a1.477,1.477,0,0,1,1.477,1.477v0a1.477,1.477,0,0,1-1.477,1.477H1.477A1.477,1.477,0,0,1,0,1.478v0A1.477,1.477,0,0,1,1.477,0Z" transform="translate(62.052 93.683)" fill="#ffdc72"/>
      <path id="Rectángulo_7833" data-name="Rectángulo 7833" d="M1.528,0h11.31a1.528,1.528,0,0,1,1.528,1.528v0a1.528,1.528,0,0,1-1.528,1.528H1.528A1.528,1.528,0,0,1,0,1.529v0A1.528,1.528,0,0,1,1.528,0Z" transform="translate(61.237 108.661)" fill="#ffdc72"/>
      <path id="Rectángulo_7834" data-name="Rectángulo 7834" d="M1.528,0h11.31a1.528,1.528,0,0,1,1.528,1.528v0a1.528,1.528,0,0,1-1.528,1.528H1.528A1.528,1.528,0,0,1,0,1.529v0A1.528,1.528,0,0,1,1.528,0Z" transform="translate(61.237 113.551)" fill="#ffdc72"/>
      <rect id="Rectángulo_7835" data-name="Rectángulo 7835" width="12.635" height="2.955" rx="1.477" transform="translate(62.001 124.861)" fill="#ffdc72"/>
      <path id="Rectángulo_7836" data-name="Rectángulo 7836" d="M1.528,0H12.839a1.528,1.528,0,0,1,1.528,1.528v0a1.528,1.528,0,0,1-1.528,1.528H1.528A1.528,1.528,0,0,1,0,1.529v0A1.528,1.528,0,0,1,1.528,0Z" transform="translate(61.695 130.058)" fill="#ffdc72"/>
      <path id="Rectángulo_7837" data-name="Rectángulo 7837" d="M1.324,0H25.779A1.324,1.324,0,0,1,27.1,1.324v0a1.324,1.324,0,0,1-1.324,1.324H1.324A1.324,1.324,0,0,1,0,1.324v0A1.324,1.324,0,0,1,1.324,0Z" transform="translate(102.911 93.173)" fill="#8c6df2"/>
      <path id="Rectángulo_7838" data-name="Rectángulo 7838" d="M1.324,0H25.779A1.324,1.324,0,0,1,27.1,1.324v0a1.324,1.324,0,0,1-1.324,1.324H1.324A1.324,1.324,0,0,1,0,1.324v0A1.324,1.324,0,0,1,1.324,0Z" transform="translate(102.911 97.86)" fill="#8c6df2"/>
      <path id="Rectángulo_7839" data-name="Rectángulo 7839" d="M1.324,0h15.9a1.325,1.325,0,0,1,1.325,1.325v0A1.325,1.325,0,0,1,17.22,2.649H1.324A1.324,1.324,0,0,1,0,1.325v0A1.324,1.324,0,0,1,1.324,0Z" transform="translate(107.19 103.77)" fill="#ffdc72"/>
      <path id="Rectángulo_7840" data-name="Rectángulo 7840" d="M1.324,0H25.779A1.324,1.324,0,0,1,27.1,1.324v0a1.324,1.324,0,0,1-1.324,1.324H1.324A1.324,1.324,0,0,1,0,1.324v0A1.324,1.324,0,0,1,1.324,0Z" transform="translate(102.911 110.393)" fill="#8c6df2"/>
      <rect id="Rectángulo_7841" data-name="Rectángulo 7841" width="27.104" height="2.649" rx="1.325" transform="translate(102.911 115.08)" fill="#8c6df2"/>
      <path id="Rectángulo_7842" data-name="Rectángulo 7842" d="M1.324,0h15.9a1.325,1.325,0,0,1,1.325,1.325v0A1.325,1.325,0,0,1,17.22,2.649H1.324A1.324,1.324,0,0,1,0,1.325v0A1.324,1.324,0,0,1,1.324,0Z" transform="translate(107.19 120.989)" fill="#8c6df2"/>
      <rect id="Rectángulo_7843" data-name="Rectángulo 7843" width="27.104" height="2.649" rx="1.325" transform="translate(102.911 126.899)" fill="#8c6df2"/>
      <path id="Rectángulo_7844" data-name="Rectángulo 7844" d="M1.325,0H25.779A1.324,1.324,0,0,1,27.1,1.324v0a1.325,1.325,0,0,1-1.325,1.325H1.325A1.325,1.325,0,0,1,0,1.325v0A1.325,1.325,0,0,1,1.325,0Z" transform="translate(102.911 131.586)" fill="#8c6df2"/>
      <path id="Rectángulo_7845" data-name="Rectángulo 7845" d="M1.324,0h15.9a1.324,1.324,0,0,1,1.324,1.324v0A1.325,1.325,0,0,1,17.22,2.649H1.324A1.324,1.324,0,0,1,0,1.325v0A1.324,1.324,0,0,1,1.324,0Z" transform="translate(107.19 137.496)" fill="#8c6df2"/>
      <path id="Rectángulo_7846" data-name="Rectángulo 7846" d="M1.477,0h9.68a1.478,1.478,0,0,1,1.478,1.478v0a1.477,1.477,0,0,1-1.477,1.477H1.478A1.478,1.478,0,0,1,0,1.477v0A1.477,1.477,0,0,1,1.477,0Z" transform="translate(145.4 93.683)" fill="#ffdc72"/>
      <path id="Rectángulo_7847" data-name="Rectángulo 7847" d="M1.528,0H12.839a1.528,1.528,0,0,1,1.528,1.528v0a1.528,1.528,0,0,1-1.528,1.528H1.528A1.528,1.528,0,0,1,0,1.529v0A1.528,1.528,0,0,1,1.528,0Z" transform="translate(144.584 108.661)" fill="#ffdc72"/>
      <path id="Rectángulo_7848" data-name="Rectángulo 7848" d="M1.528,0h11.31a1.528,1.528,0,0,1,1.528,1.528v0a1.528,1.528,0,0,1-1.528,1.528H1.528A1.528,1.528,0,0,1,0,1.529v0A1.528,1.528,0,0,1,1.528,0Z" transform="translate(144.584 113.551)" fill="#ffdc72"/>
      <path id="Rectángulo_7849" data-name="Rectángulo 7849" d="M1.477,0h9.68a1.477,1.477,0,0,1,1.477,1.477v0a1.477,1.477,0,0,1-1.477,1.477H1.477A1.477,1.477,0,0,1,0,1.477v0A1.477,1.477,0,0,1,1.477,0Z" transform="translate(145.348 124.861)" fill="#ffdc72"/>
      <rect id="Rectángulo_7850" data-name="Rectángulo 7850" width="14.367" height="3.057" rx="1.528" transform="translate(145.043 130.058)" fill="#ffdc72"/>
      <rect id="Rectángulo_7851" data-name="Rectángulo 7851" width="15.998" height="2.7" rx="1.35" transform="translate(192.066 92.46)" fill="#ffb74d"/>
      <path id="Rectángulo_7852" data-name="Rectángulo 7852" d="M1.35,0h8.3A1.35,1.35,0,0,1,11,1.35v0A1.35,1.35,0,0,1,9.654,2.7H1.35A1.35,1.35,0,0,1,0,1.35v0A1.35,1.35,0,0,1,1.35,0Z" transform="translate(210.203 92.46)" fill="#ffb74d"/>
      <rect id="Rectángulo_7853" data-name="Rectángulo 7853" width="15.998" height="2.7" rx="1.35" transform="translate(192.066 97.834)" fill="#ffb74d"/>
      <path id="Rectángulo_7854" data-name="Rectángulo 7854" d="M1.35,0h8.3A1.35,1.35,0,0,1,11,1.35v0A1.35,1.35,0,0,1,9.654,2.7H1.35A1.35,1.35,0,0,1,0,1.35v0A1.35,1.35,0,0,1,1.35,0Z" transform="translate(210.203 97.834)" fill="#ffb74d"/>
      <rect id="Rectángulo_7855" data-name="Rectángulo 7855" width="15.998" height="2.7" rx="1.35" transform="translate(192.066 103.209)" fill="#ffb74d"/>
      <path id="Rectángulo_7856" data-name="Rectángulo 7856" d="M1.35,0h8.3A1.35,1.35,0,0,1,11,1.35v0A1.35,1.35,0,0,1,9.654,2.7H1.35A1.35,1.35,0,0,1,0,1.35v0A1.35,1.35,0,0,1,1.35,0Z" transform="translate(210.203 103.209)" fill="#ffb74d"/>
      <path id="Rectángulo_7857" data-name="Rectángulo 7857" d="M1.35,0h13.3A1.35,1.35,0,0,1,16,1.35v0a1.35,1.35,0,0,1-1.35,1.35H1.35A1.35,1.35,0,0,1,0,1.35v0A1.35,1.35,0,0,1,1.35,0Z" transform="translate(192.066 108.584)" fill="#ffb74d"/>
      <path id="Rectángulo_7858" data-name="Rectángulo 7858" d="M1.35,0h8.3A1.35,1.35,0,0,1,11,1.35v0A1.35,1.35,0,0,1,9.654,2.7H1.35A1.35,1.35,0,0,1,0,1.35v0A1.35,1.35,0,0,1,1.35,0Z" transform="translate(210.203 108.584)" fill="#ffb74d"/>
      <rect id="Rectángulo_7859" data-name="Rectángulo 7859" width="15.998" height="2.7" rx="1.35" transform="translate(192.066 113.959)" fill="#ffb74d"/>
      <path id="Rectángulo_7860" data-name="Rectángulo 7860" d="M1.35,0h8.3A1.35,1.35,0,0,1,11,1.35v0A1.35,1.35,0,0,1,9.654,2.7H1.35A1.35,1.35,0,0,1,0,1.35v0A1.35,1.35,0,0,1,1.35,0Z" transform="translate(210.203 113.959)" fill="#ffb74d"/>
      <path id="Rectángulo_7861" data-name="Rectángulo 7861" d="M1.35,0h13.3A1.35,1.35,0,0,1,16,1.35v0a1.35,1.35,0,0,1-1.35,1.35H1.35A1.35,1.35,0,0,1,0,1.35v0A1.35,1.35,0,0,1,1.35,0Z" transform="translate(192.066 119.334)" fill="#ffb74d"/>
      <path id="Rectángulo_7862" data-name="Rectángulo 7862" d="M1.35,0h8.3A1.35,1.35,0,0,1,11,1.35v0A1.35,1.35,0,0,1,9.654,2.7H1.35A1.35,1.35,0,0,1,0,1.35v0A1.35,1.35,0,0,1,1.35,0Z" transform="translate(210.203 119.334)" fill="#ffb74d"/>
      <rect id="Rectángulo_7863" data-name="Rectángulo 7863" width="15.998" height="2.7" rx="1.35" transform="translate(192.066 124.708)" fill="#ffb74d"/>
      <path id="Rectángulo_7864" data-name="Rectángulo 7864" d="M1.35,0h8.3A1.35,1.35,0,0,1,11,1.35v0A1.35,1.35,0,0,1,9.654,2.7H1.35A1.35,1.35,0,0,1,0,1.35v0A1.35,1.35,0,0,1,1.35,0Z" transform="translate(210.203 124.708)" fill="#ffb74d"/>
      <path id="Rectángulo_7865" data-name="Rectángulo 7865" d="M1.35,0h13.3A1.35,1.35,0,0,1,16,1.35v0a1.35,1.35,0,0,1-1.35,1.35H1.35A1.35,1.35,0,0,1,0,1.35v0A1.35,1.35,0,0,1,1.35,0Z" transform="translate(192.066 130.083)" fill="#ffb74d"/>
      <path id="Rectángulo_7866" data-name="Rectángulo 7866" d="M1.35,0h8.3A1.35,1.35,0,0,1,11,1.35v0A1.35,1.35,0,0,1,9.654,2.7H1.35A1.35,1.35,0,0,1,0,1.35v0A1.35,1.35,0,0,1,1.35,0Z" transform="translate(210.203 130.083)" fill="#ffb74d"/>
      <path id="Rectángulo_7867" data-name="Rectángulo 7867" d="M1.35,0h13.3A1.35,1.35,0,0,1,16,1.35v0a1.35,1.35,0,0,1-1.35,1.35H1.35A1.35,1.35,0,0,1,0,1.35v0A1.35,1.35,0,0,1,1.35,0Z" transform="translate(192.066 135.458)" fill="#ffb74d"/>
      <path id="Rectángulo_7868" data-name="Rectángulo 7868" d="M1.35,0h8.3A1.35,1.35,0,0,1,11,1.35v0A1.35,1.35,0,0,1,9.654,2.7H1.35A1.35,1.35,0,0,1,0,1.35v0A1.35,1.35,0,0,1,1.35,0Z" transform="translate(210.203 135.458)" fill="#ffb74d"/>
      <rect id="Rectángulo_7869" data-name="Rectángulo 7869" width="15.998" height="2.7" rx="1.35" transform="translate(192.066 140.833)" fill="#ffb74d"/>
      <path id="Rectángulo_7870" data-name="Rectángulo 7870" d="M1.35,0h8.3A1.35,1.35,0,0,1,11,1.35v0A1.35,1.35,0,0,1,9.654,2.7H1.35A1.35,1.35,0,0,1,0,1.35v0A1.35,1.35,0,0,1,1.35,0Z" transform="translate(210.203 140.833)" fill="#ffb74d"/>
      <rect id="Rectángulo_7871" data-name="Rectángulo 7871" width="15.998" height="2.7" rx="1.35" transform="translate(192.066 146.208)" fill="#ffb74d"/>
      <rect id="Rectángulo_7872" data-name="Rectángulo 7872" width="11.004" height="2.7" rx="1.35" transform="translate(210.203 146.208)" fill="#ffb74d"/>
      <path id="Rectángulo_7873" data-name="Rectángulo 7873" d="M9.256,0h95.5a9.257,9.257,0,0,1,9.257,9.257v0a9.256,9.256,0,0,1-9.256,9.256H9.256A9.256,9.256,0,0,1,0,9.257v0A9.256,9.256,0,0,1,9.256,0Z" transform="translate(107.19 28.347)" fill="#fff"/>
    </g>
  </g>
</svg>
